<?xml version="1.0" encoding="utf-8"?>
<!-- Generator: Adobe Illustrator 23.0.1, SVG Export Plug-In . SVG Version: 6.00 Build 0)  -->
<svg version="1.1" id="Layer_1" xmlns="http://www.w3.org/2000/svg" xmlns:xlink="http://www.w3.org/1999/xlink" x="0px" y="0px"
	 viewBox="0 0 35.26 35.83" style="enable-background:new 0 0 35.26 35.83;" xml:space="preserve">
<style type="text/css">
	.st0{fill:none;stroke:#fff;stroke-width:0.25;stroke-miterlimit:10;}
	.st1{fill:none;stroke:#fff;stroke-width:0.25;stroke-miterlimit:10;}
</style>
<g>
	<path class="st0" d="M23.55,24.07l-0.04-0.05L11.04,11.34l0-5.45L11.14,6c0.08,0.08,7.84,8.05,12.38,12.42l7.71-7.62l-4.44-4.46
		l-6.69,6.67V7.56l0.02-0.02l6.69-6.67l0.04,0.04l7.48,7.55v4.83l-0.02,0.02L23.55,24.07z M11.17,11.29l12.38,12.61l10.67-10.65
		V8.52l-7.4-7.47l-6.58,6.56v5.08l6.56-6.54l4.62,4.64l-7.89,7.8l-0.04-0.04C19.24,14.47,12.13,7.18,11.16,6.19L11.17,11.29z"/>
</g>
<g>
	<path class="st1" d="M23.59,34.58L11.1,22.02L0.71,32.51l-0.02-5.48L0.71,27L11.1,16.61l0.04,0.04l12.42,12.38l10.78-10.78v5.58
		l-0.02,0.02L23.59,34.58z M11.1,21.84l0.04,0.05L23.59,34.4l10.64-10.62v-5.22L23.57,29.21l-0.04-0.04L11.1,16.79L0.82,27.07
		l0.02,5.13L11.1,21.84z"/>
</g>
</svg>
