<?xml version="1.0" encoding="utf-8"?>
<!-- Generator: Adobe Illustrator 23.0.1, SVG Export Plug-In . SVG Version: 6.00 Build 0)  -->
<svg version="1.1" id="Layer_1" xmlns="http://www.w3.org/2000/svg" xmlns:xlink="http://www.w3.org/1999/xlink" x="0px" y="0px"
	 viewBox="0 0 39.41 47.99" style="enable-background:new 0 0 39.41 47.99;" xml:space="preserve">
<style type="text/css">
	.st0{fill:#fff;}
	.st1{fill:none;stroke:#fff;stroke-width:0.5;stroke-miterlimit:10;}
	.st2{fill:none;stroke:#fff;stroke-width:0.5;stroke-miterlimit:10;}
</style>
<g>
	<g>
		<path class="st0" d="M4.58,9.41v21.21h0.59V9.41H4.58z M4.58,0.57v9.17h0.59V1.7H37.4v44.22H5.17V30.54H4.58v16.5h33.4V0.57H4.58z
			"/>
	</g>
	<polyline class="st1" points="4.58,13.89 1.16,13.89 1.16,9.48 4.58,9.48 	"/>
	<polyline class="st1" points="5.21,13.89 8.56,13.89 8.56,9.48 5.21,9.48 	"/>
	<polyline class="st1" points="4.58,35.06 1.16,35.06 1.16,30.63 4.58,30.63 	"/>
	<polyline class="st1" points="5.21,35.06 8.56,35.06 8.56,30.63 5.21,30.63 	"/>
	<polyline class="st2" points="14.29,23.3 29.62,23.3 29.62,39.09 	"/>
	<line class="st2" x1="14.72" y1="23.04" x2="14.72" y2="39"/>
	<circle class="st2" cx="22.23" cy="14.24" r="5.74"/>
	<line class="st1" x1="22.05" y1="28.84" x2="22.05" y2="36.32"/>
	<line class="st1" x1="22.08" y1="25.72" x2="22.08" y2="27.18"/>
</g>
</svg>
