<?xml version="1.0" encoding="utf-8"?>
<!-- Generator: Adobe Illustrator 23.0.1, SVG Export Plug-In . SVG Version: 6.00 Build 0)  -->
<svg version="1.1" id="Layer_1" xmlns="http://www.w3.org/2000/svg" xmlns:xlink="http://www.w3.org/1999/xlink" x="0px" y="0px"
	 viewBox="0 0 34.15 49.43" style="enable-background:new 0 0 34.15 49.43;" xml:space="preserve">
<style type="text/css">
	.st0{clip-path:url(#SVGID_2_);}
	.st1{fill:#CAA457;}
	.st2{fill:none;}
	.st3{fill:#D1D3D4;}
</style>
<g>
	<g>
		<defs>
			<rect id="SVGID_1_" x="-6.7" y="2.24" width="40.42" height="23.35"/>
		</defs>
		<clipPath id="SVGID_2_">
			<use xlink:href="#SVGID_1_"  style="overflow:visible;"/>
		</clipPath>
		<g class="st0">
			<path class="st1" d="M22.66,26.88L10.01,14l-0.01-6.18l0.58,0.59c0.08,0.08,7.54,7.75,12.06,12.1l7.25-7.17l-4.01-4.03
				l-6.89,6.87v-6.16l6.92-6.89l7.72,7.79v5.01L22.66,26.88z M10.68,13.73l11.98,12.2l10.28-10.26v-4.45L25.9,4.09l-6.24,6.22v4.26
				l6.22-6.2l4.96,4.99l-8.19,8.1l-0.24-0.23c-3.78-3.63-9.84-9.82-11.73-11.75L10.68,13.73z"/>
		</g>
		<g class="st0">
			<path class="st1" d="M22.71,37.28L10.35,24.85L-0.22,35.5l-0.02-6.2l10.58-10.58l12.34,12.3l10.95-10.95v6.29L22.71,37.28z
				 M10.34,23.89l12.37,12.43l10.25-10.24v-4.39L22.69,31.97l-12.34-12.3l-9.91,9.91l0.01,4.3L10.34,23.89z"/>
		</g>
	</g>
	<g>
		<rect x="0.61" y="-0.12" class="st2" width="32.69" height="25.65"/>
	</g>
	<g>
		<path class="st3" d="M33.73,25.89H0.4V1.71h33.33V25.89z M0.98,25.31h32.17V2.3H0.98V25.31z"/>
	</g>
	<g>
		<rect x="16.39" y="25.86" class="st3" width="0.58" height="22.82"/>
	</g>
	<g>
		
			<rect x="8.06" y="44.78" transform="matrix(0.7264 -0.6873 0.6873 0.7264 -27.4135 21.2923)" class="st3" width="9.94" height="0.58"/>
	</g>
	<g>
		
			<rect x="20.06" y="40.2" transform="matrix(0.6874 -0.7263 0.7263 0.6874 -26.4457 28.9011)" class="st3" width="0.58" height="9.94"/>
	</g>
</g>
</svg>
