<?xml version="1.0" encoding="utf-8"?>
<!-- Generator: Adobe Illustrator 23.0.1, SVG Export Plug-In . SVG Version: 6.00 Build 0)  -->
<svg version="1.1" id="Layer_1" xmlns="http://www.w3.org/2000/svg" xmlns:xlink="http://www.w3.org/1999/xlink" x="0px" y="0px"
	 viewBox="0 0 35.26 43.81" style="enable-background:new 0 0 35.26 43.81;" xml:space="preserve">
<style type="text/css">
	.st0{fill:none;stroke:#fff;stroke-width:0.5;stroke-miterlimit:10;}
	.st1{fill:none;stroke:#fff;stroke-width:0.5;stroke-miterlimit:10;}
	.st2{fill:#fff;}
	.st3{font-family:'Ah-Al_Kofi';}
	.st4{font-size:6.7708px;}
</style>
<g>
	<polyline class="st0" points="28.77,14.39 28.87,14.48 28.87,28.56 33.63,33.32 33.63,36.72 21.78,36.72 21.78,38.5 18.67,41.62 
		17.82,41.62 16.91,41.62 16.06,41.62 12.94,38.5 12.94,36.72 1.1,36.72 1.1,33.32 5.85,28.56 5.85,14.48 15,5.34 15.1,2.57 
		17.36,1.04 17.19,0.93 17.53,0.93 17.36,1.04 19.62,2.57 19.72,5.34 20.82,6.44 	"/>
	<circle class="st1" cx="24.86" cy="10.35" r="5.63"/>
	<text transform="matrix(1 0 0 1 22.2939 13.1687)" class="st2 st3 st4">٥</text>
</g>
</svg>
