<?xml version="1.0" encoding="utf-8"?>
<!-- Generator: Adobe Illustrator 23.0.1, SVG Export Plug-In . SVG Version: 6.00 Build 0)  -->
<svg version="1.1" id="Layer_1" xmlns="http://www.w3.org/2000/svg" xmlns:xlink="http://www.w3.org/1999/xlink" x="0px" y="0px"
	 viewBox="0 0 35.26 39.43" style="enable-background:new 0 0 35.26 39.43;" xml:space="preserve">
<style type="text/css">
	.st0{fill:none;stroke:#fff;stroke-width:0.25;stroke-miterlimit:10;}
	.st1{fill:none;stroke:#fff;stroke-width:0.5;stroke-miterlimit:10;}
	.st2{fill:none;stroke:#fff;stroke-width:0.5;stroke-miterlimit:10;}
	.st3{fill:#fff;}
</style>
<g>
	<line class="st0" x1="14.27" y1="4.88" x2="22.03" y2="4.88"/>
	<line class="st0" x1="14.72" y1="5.53" x2="21.58" y2="5.53"/>
	<line class="st0" x1="15.49" y1="6.17" x2="20.8" y2="6.17"/>
	<line class="st0" x1="16.15" y1="6.81" x2="20.15" y2="6.81"/>
	<polyline class="st1" points="0.9,23.23 14.83,23.23 14.83,37.58 	"/>
	<line class="st1" x1="1.03" y1="22.98" x2="1.03" y2="37.6"/>
	<circle class="st1" cx="8.11" cy="15.01" r="5.22"/>
	<line class="st2" x1="7.95" y1="28.27" x2="7.95" y2="35.06"/>
	<line class="st2" x1="7.98" y1="25.43" x2="7.98" y2="26.76"/>
	<polyline class="st1" points="20.2,23.23 34.13,23.23 34.13,37.58 	"/>
	<line class="st1" x1="20.59" y1="22.99" x2="20.59" y2="37.5"/>
	<circle class="st1" cx="27.41" cy="15.01" r="5.22"/>
	<line class="st2" x1="27.25" y1="28.27" x2="27.25" y2="35.06"/>
	<line class="st2" x1="27.28" y1="25.43" x2="27.28" y2="26.76"/>
	<rect x="13.49" y="2.77" class="st1" width="9.56" height="6.43"/>
	<polygon class="st3" points="23.05,7.69 23.92,10.21 21.76,9.3 23.05,9.2 	"/>
	<polyline class="st1" points="19.51,2.77 19.51,1.43 9.95,1.43 9.95,7.86 13.49,7.86 	"/>
	<polygon class="st3" points="9.96,6.34 9.08,8.86 11.24,7.95 9.96,7.85 	"/>
</g>
</svg>
