<?xml version="1.0" encoding="utf-8"?>
<!-- Generator: Adobe Illustrator 23.0.1, SVG Export Plug-In . SVG Version: 6.00 Build 0)  -->
<svg version="1.1" id="Layer_1" xmlns="http://www.w3.org/2000/svg" xmlns:xlink="http://www.w3.org/1999/xlink" x="0px" y="0px"
	 viewBox="0 0 39.14 37.44" style="enable-background:new 0 0 39.14 37.44;" xml:space="preserve">
<style type="text/css">
	.st0{fill:none;stroke:#fff;stroke-width:0.5;stroke-miterlimit:10;}
	.st1{fill:none;stroke:#fff;stroke-miterlimit:10;}
</style>
<g>
	<polyline class="st0" points="33.05,17.83 33.05,36.59 0.49,36.59 0.49,5.51 22.89,5.51 	"/>
	
		<rect x="11.36" y="10.34" transform="matrix(0.7071 -0.7071 0.7071 0.7071 -2.3834 21.9706)" class="st1" width="27.95" height="7.05"/>
	<path class="st1" d="M17.72,26.44c0.04-0.05,0.09-0.09,0.13-0.13c-0.01-0.03-0.02-0.07-0.02-0.1c-0.06-0.06-0.12-0.12-0.16-0.2
		l-4.71-4.71c-0.07,0.05-0.14,0.1-0.21,0.14l-1.35,6.34L17.72,26.44C17.71,26.44,17.71,26.44,17.72,26.44z"/>
</g>
</svg>
