<?xml version="1.0" encoding="utf-8"?>
<!-- Generator: Adobe Illustrator 23.0.1, SVG Export Plug-In . SVG Version: 6.00 Build 0)  -->
<svg version="1.1" id="Layer_1" xmlns="http://www.w3.org/2000/svg" xmlns:xlink="http://www.w3.org/1999/xlink" x="0px" y="0px"
	 viewBox="0 0 39.14 41.23" style="enable-background:new 0 0 39.14 41.23;" xml:space="preserve">
<style type="text/css">
	.st0{fill:none;stroke:#fff;stroke-miterlimit:10;}
	.st1{fill:none;stroke:#fff;stroke-width:0.5;stroke-miterlimit:10;}
	.st2{fill:none;stroke:#fff;stroke-width:0.5;stroke-miterlimit:10;}
</style>
<g>
	<polyline class="st1" points="2.93,13.62 16.6,13.62 16.6,27.71 	"/>
	<line class="st1" x1="3.16" y1="13.38" x2="3.16" y2="27.62"/>
	<circle class="st1" cx="10.01" cy="5.54" r="5.12"/>
	<line class="st2" x1="9.85" y1="18.56" x2="9.85" y2="25.23"/>
	<line class="st2" x1="9.88" y1="15.78" x2="9.88" y2="17.08"/>
	<polyline class="st1" points="22.54,13.62 36.21,13.62 36.21,27.71 	"/>
	<line class="st1" x1="22.75" y1="13.38" x2="22.75" y2="27.62"/>
	<circle class="st1" cx="29.62" cy="5.54" r="5.12"/>
	<line class="st2" x1="29.46" y1="18.56" x2="29.46" y2="25.23"/>
	<line class="st2" x1="29.49" y1="15.78" x2="29.49" y2="17.08"/>
	<polyline class="st1" points="10.71,22.89 27.94,22.89 27.94,40.64 	"/>
	<line class="st1" x1="10.97" y1="22.63" x2="10.97" y2="40.57"/>
	<circle class="st1" cx="19.64" cy="12.72" r="6.45"/>
	<line class="st2" x1="19.43" y1="29.12" x2="19.43" y2="37.53"/>
	<line class="st2" x1="19.47" y1="25.62" x2="19.47" y2="27.25"/>
</g>
</svg>
