<?xml version="1.0" encoding="utf-8"?>
<!-- Generator: Adobe Illustrator 23.0.1, SVG Export Plug-In . SVG Version: 6.00 Build 0)  -->
<svg version="1.1" id="Layer_1" xmlns="http://www.w3.org/2000/svg" xmlns:xlink="http://www.w3.org/1999/xlink" x="0px" y="0px"
	 viewBox="0 0 35.09 47.16" style="enable-background:new 0 0 35.09 47.16;" xml:space="preserve">
<style type="text/css">
	.st0{clip-path:url(#SVGID_2_);}
	.st1{fill:#fff;}
	.st2{fill:none;stroke:#fff;stroke-width:0.5;stroke-miterlimit:10;}
	.st3{fill:none;stroke:#fff;stroke-width:0.5;stroke-miterlimit:10;}
</style>
<g>
	<g>
		<defs>
			<rect id="SVGID_1_" x="20.27" y="38.51" width="13.64" height="7.88"/>
		</defs>
		<clipPath id="SVGID_2_">
			<use xlink:href="#SVGID_1_"  style="overflow:visible;"/>
		</clipPath>
		<g class="st0">
			<path class="st1" d="M30.18,46.82l-4.27-4.35l0-2.09l0.19,0.2c0.03,0.03,2.54,2.61,4.07,4.08l2.45-2.42l-1.35-1.36l-2.33,2.32
				v-2.08l2.33-2.33l2.61,2.63v1.69L30.18,46.82z M26.14,42.39l4.04,4.12l3.47-3.46v-1.5l-2.38-2.4l-2.11,2.1v1.44l2.1-2.09
				l1.67,1.68l-2.76,2.73l-0.08-0.08c-1.27-1.22-3.32-3.31-3.96-3.96L26.14,42.39z"/>
		</g>
		<g class="st0">
			<path class="st1" d="M30.2,50.33l-4.17-4.19l-3.56,3.59l-0.01-2.09l3.57-3.57l4.16,4.15l3.69-3.69v2.12L30.2,50.33z M26.02,45.82
				l4.17,4.19l3.46-3.46v-1.48l-3.47,3.47l-4.16-4.15l-3.34,3.34l0,1.45L26.02,45.82z"/>
		</g>
	</g>
	<rect x="29.14" y="4.41" class="st2" width="3.19" height="4"/>
	<rect x="27.29" y="0.51" class="st2" width="2.81" height="3.93"/>
	<polygon class="st3" points="34.09,46.23 1.13,46.23 1.13,28.92 16.83,28.92 20.79,22.34 34.09,22.34 	"/>
	<polyline class="st3" points="9.14,29.15 9.14,4.41 32.33,4.41 	"/>
	<line class="st3" x1="12.09" y1="12.74" x2="30.25" y2="12.74"/>
	<line class="st3" x1="12.27" y1="17.15" x2="29.71" y2="17.15"/>
	<line class="st3" x1="15.78" y1="20.48" x2="26.66" y2="20.48"/>
	<line class="st3" x1="32.33" y1="3.97" x2="32.33" y2="22.41"/>
	<polyline class="st3" points="6.05,29.07 6.02,0.63 30.11,0.55 30.15,4.48 	"/>
</g>
</svg>
