<svg width="18" height="16" viewBox="0 0 18 16" fill="none" xmlns="http://www.w3.org/2000/svg">
<path fill-rule="evenodd" clip-rule="evenodd" d="M15.4529 0.371719L17.8369 3.14027C17.9248 3.20883 17.9814 3.31605 17.9814 3.43629C17.9814 3.47215 17.9764 3.5066 17.967 3.53965L18 15.3863C18 15.5923 17.8327 15.7596 17.6266 15.7596V15.761H0.374766C0.167695 15.761 0 15.593 0 15.3863V3.43629C0 3.33082 0.0435937 3.23555 0.113555 3.16734L2.55234 0.368906C2.62617 0.284883 2.72953 0.241641 2.83359 0.241641V0.240234H15.1678C15.2821 0.240234 15.3844 0.291211 15.4529 0.371719ZM1.19707 3.06152H16.7797L14.9963 0.989766H3.00234L1.19707 3.06152ZM12.3286 9.0307C12.5712 9.04125 12.7438 9.12106 12.8433 9.27258C13.1133 9.67723 12.7744 10.1079 12.4886 10.3589L9.30023 13.1584C9.02883 13.4583 8.64246 13.4583 8.37141 13.1584C8.00121 12.7263 6.12844 11.0589 5.43867 10.2823C5.19961 10.0133 4.90395 9.64594 5.15285 9.27258C5.2527 9.12106 5.42496 9.04125 5.66789 9.0307H7.22988V6.33879C7.22988 6.16969 7.36805 6.03152 7.53715 6.03152H10.4632C10.6323 6.03152 10.7708 6.17004 10.7708 6.33879V9.0307H12.3286Z" fill="#229AD6"/>
</svg>
