<svg width="12" height="9" viewBox="0 0 12 9" fill="none" xmlns="http://www.w3.org/2000/svg">
<path d="M1 3.9241C0.68194 3.9241 0.424101 4.18194 0.424101 4.5C0.424101 4.81806 0.68194 5.0759 1 5.0759L1 3.9241ZM11.6772 4.90722C11.9021 4.68232 11.9021 4.31768 11.6772 4.09278L8.01222 0.427777C7.78732 0.202875 7.42268 0.202875 7.19778 0.427777C6.97287 0.65268 6.97287 1.01732 7.19778 1.24222L10.4556 4.5L7.19778 7.75778C6.97287 7.98268 6.97287 8.34732 7.19778 8.57222C7.42268 8.79713 7.78732 8.79713 8.01222 8.57222L11.6772 4.90722ZM1 5.0759L11.27 5.0759L11.27 3.9241L1 3.9241L1 5.0759Z" fill="#229AD6"/>
</svg>
