<svg width="18" height="18" viewBox="0 0 18 18" fill="none" xmlns="http://www.w3.org/2000/svg">
<path d="M16 2H16.006C17.107 2 18 2.895 18 3.994V16.006C17.9997 16.5348 17.7896 17.0418 17.4157 17.4157C17.0418 17.7896 16.5348 17.9997 16.006 18H3.994C3.46524 17.9997 2.95821 17.7896 2.58432 17.4157C2.21043 17.0418 2.00027 16.5348 2 16.006V16H15C15.555 16 16 15.552 16 15V2ZM2.49523e-07 2.006C2.49523e-07 0.898 0.897 0 2.006 0H11.994C13.102 0 14 0.897 14 2.006V11.994C14.0001 12.2575 13.9483 12.5184 13.8476 12.7618C13.7468 13.0053 13.5991 13.2264 13.4128 13.4128C13.2264 13.5991 13.0053 13.7468 12.7618 13.8476C12.5184 13.9483 12.2575 14.0001 11.994 14H2.006C1.74253 14.0001 1.48162 13.9483 1.23818 13.8476C0.994743 13.7468 0.773551 13.5991 0.587251 13.4128C0.40095 13.2264 0.253195 13.0053 0.15243 12.7618C0.0516659 12.5184 -0.000131189 12.2575 2.49523e-07 11.994V2.006ZM2 2V12H12V2H2ZM3 5C3 4.448 3.453 4 3.997 4H10.003C10.553 4 11 4.444 11 5C11 5.552 10.547 6 10.003 6H3.997C3.86578 6.00013 3.73583 5.97434 3.61461 5.92409C3.4934 5.87385 3.3833 5.80014 3.29066 5.70722C3.19801 5.6143 3.12464 5.50398 3.07476 5.38261C3.02488 5.26124 2.99947 5.13122 3 5ZM3 8C3 7.448 3.453 7 3.997 7H10.003C10.553 7 11 7.444 11 8C11 8.552 10.547 9 10.003 9H3.997C3.86578 9.00013 3.73583 8.97434 3.61461 8.92409C3.4934 8.87385 3.3833 8.80014 3.29066 8.70722C3.19801 8.6143 3.12464 8.50398 3.07476 8.38261C3.02488 8.26124 2.99947 8.13122 3 8Z" fill="#44546F" fill-opacity="0.7"/>
</svg>
