<svg width="11" height="14" viewBox="0 0 11 14" fill="none" xmlns="http://www.w3.org/2000/svg">
<path fill-rule="evenodd" clip-rule="evenodd" d="M9.33333 5.44833V12.4444H1.55556V1.55556H6.21444V3.49222C6.21444 3.80164 6.33736 4.09839 6.55615 4.31718C6.77495 4.53597 7.07169 4.65889 7.38111 4.65889H10.8811V4.25289C10.8811 4.02189 10.7784 3.80333 10.6019 3.65556L6.65544 0.360889C6.37544 0.127556 6.02311 0 5.65833 0H1.55556C1.143 0 0.747335 0.163888 0.455612 0.455612C0.163888 0.747335 0 1.143 0 1.55556V12.4444C0 12.857 0.163888 13.2527 0.455612 13.5444C0.747335 13.8361 1.143 14 1.55556 14H9.33333C9.74589 14 10.1416 13.8361 10.4333 13.5444C10.725 13.2527 10.8889 12.857 10.8889 12.4444V5.44833H9.33333Z" fill="#868DA6"/>
<path d="M7.77778 7H3.11111C2.68156 7 2.33333 7.34822 2.33333 7.77778C2.33333 8.20733 2.68156 8.55556 3.11111 8.55556H7.77778C8.20733 8.55556 8.55556 8.20733 8.55556 7.77778C8.55556 7.34822 8.20733 7 7.77778 7Z" fill="#868DA6"/>
<path d="M4.66667 9.33333H3.11111C2.68156 9.33333 2.33333 9.68156 2.33333 10.1111C2.33333 10.5407 2.68156 10.8889 3.11111 10.8889H4.66667C5.09622 10.8889 5.44444 10.5407 5.44444 10.1111C5.44444 9.68156 5.09622 9.33333 4.66667 9.33333Z" fill="#868DA6"/>
</svg>
