<svg width="18" height="21" viewBox="0 0 18 21" fill="none" xmlns="http://www.w3.org/2000/svg">
<path fill-rule="evenodd" clip-rule="evenodd" d="M0.152344 19.1899C0.152344 18.8679 0.280257 18.5591 0.507943 18.3314C0.735629 18.1037 1.04444 17.9758 1.36644 17.9758H15.9355C16.2575 17.9758 16.5663 18.1037 16.794 18.3314C17.0217 18.5591 17.1496 18.8679 17.1496 19.1899C17.1496 19.5119 17.0217 19.8207 16.794 20.0484C16.5663 20.2761 16.2575 20.404 15.9355 20.404H1.36644C1.04444 20.404 0.735629 20.2761 0.507943 20.0484C0.280257 19.8207 0.152344 19.5119 0.152344 19.1899ZM4.15035 9.83289C4.37802 9.60528 4.68678 9.47742 5.00871 9.47742C5.33064 9.47742 5.6394 9.60528 5.86707 9.83289L7.43689 11.4027V2.19261C7.43689 1.87061 7.56481 1.5618 7.79249 1.33411C8.02018 1.10643 8.32899 0.978516 8.65098 0.978516C8.97298 0.978516 9.28179 1.10643 9.50948 1.33411C9.73716 1.5618 9.86508 1.87061 9.86508 2.19261V11.4027L11.4349 9.83289C11.5469 9.71693 11.6809 9.62444 11.829 9.56081C11.9771 9.49718 12.1364 9.46368 12.2976 9.46228C12.4588 9.46088 12.6187 9.4916 12.7679 9.55265C12.9171 9.61369 13.0527 9.70384 13.1667 9.81784C13.2807 9.93183 13.3708 10.0674 13.4319 10.2166C13.4929 10.3658 13.5236 10.5257 13.5222 10.6869C13.5208 10.8481 13.4873 11.0074 13.4237 11.1555C13.3601 11.3036 13.2676 11.4376 13.1516 11.5496L9.50935 15.1919C9.28167 15.4195 8.97292 15.5474 8.65098 15.5474C8.32905 15.5474 8.0203 15.4195 7.79262 15.1919L4.15035 11.5496C3.92274 11.3219 3.79488 11.0132 3.79488 10.6912C3.79488 10.3693 3.92274 10.0606 4.15035 9.83289Z" fill="#1FAA5E"/>
</svg>
