<svg width="39" height="39" viewBox="0 0 39 39" fill="none" xmlns="http://www.w3.org/2000/svg">
<path d="M2 9.4C2 5.31309 5.31309 2 9.4 2H29.6C33.6869 2 37 5.31309 37 9.4V29.6C37 33.6869 33.6869 37 29.6 37H9.4C5.31309 37 2 33.6869 2 29.6V9.4Z" fill="#229AD6" stroke="white" stroke-width="2.90196"/>
<path d="M17.8426 11C17.2379 11 16.6579 11.2402 16.2303 11.6678C15.8027 12.0954 15.5625 12.6754 15.5625 13.2801V22.4006C15.5625 23.0053 15.8027 23.5852 16.2303 24.0128C16.6579 24.4404 17.2379 24.6807 17.8426 24.6807H24.6829C25.2877 24.6807 25.8676 24.4404 26.2952 24.0128C26.7228 23.5852 26.9631 23.0053 26.9631 22.4006V16.0322C26.9629 15.4275 26.7226 14.8477 26.295 14.4202L23.5429 11.6681C23.1154 11.2404 22.5355 11.0001 21.9309 11H17.8426Z" fill="white"/>
<path d="M11 17.8407C11 17.2359 11.2402 16.656 11.6678 16.2284C12.0954 15.8008 12.6754 15.5605 13.2801 15.5605V26.9611H22.4006C22.4006 27.5658 22.1603 28.1458 21.7327 28.5734C21.3051 29.001 20.7252 29.2412 20.1204 29.2412H13.2801C12.6754 29.2412 12.0954 29.001 11.6678 28.5734C11.2402 28.1458 11 27.5658 11 26.9611V17.8407Z" fill="white"/>
</svg>
