<svg width="18" height="13" viewBox="0 0 18 13" fill="none" xmlns="http://www.w3.org/2000/svg">
<path d="M17.1 1.8C17.1 0.805887 16.2941 0 15.3 0C14.3059 0 13.5 0.805887 13.5 1.8V8.1C13.5 9.09411 14.3059 9.9 15.3 9.9C16.2941 9.9 17.1 9.09411 17.1 8.1V1.8Z" fill="#229AD6"/>
<path d="M11.7 4.5C11.7 3.50589 10.8941 2.7 9.9 2.7C8.90589 2.7 8.1 3.50589 8.1 4.5V8.1C8.1 9.09411 8.90589 9.9 9.9 9.9C10.8941 9.9 11.7 9.09411 11.7 8.1V4.5Z" fill="#229AD6"/>
<path d="M6.3 7.2C6.3 6.20589 5.49412 5.4 4.5 5.4C3.50589 5.4 2.7 6.20589 2.7 7.2V8.1C2.7 9.09411 3.50589 9.9 4.5 9.9C5.49412 9.9 6.3 9.09411 6.3 8.1V7.2Z" fill="#229AD6"/>
<path d="M17.1 10.8H2.6955C2.2032 10.8 1.8 10.3932 1.8 9.8919V0.9C1.8 0.661305 1.70518 0.432387 1.5364 0.263604C1.36762 0.0948213 1.1387 0 0.900004 0C0.661309 0 0.43239 0.0948213 0.263608 0.263604C0.0948249 0.432387 3.77059e-06 0.661305 3.77059e-06 0.9V9.8919C-0.00119188 10.6083 0.282012 11.2959 0.787414 11.8037C1.29282 12.3114 1.97909 12.5979 2.6955 12.6H17.1C17.3387 12.6 17.5676 12.5052 17.7364 12.3364C17.9052 12.1676 18 11.9387 18 11.7C18 11.4613 17.9052 11.2324 17.7364 11.0636C17.5676 10.8948 17.3387 10.8 17.1 10.8Z" fill="#229AD6"/>
</svg>
