<svg width="18" height="18" viewBox="0 0 18 18" fill="none" xmlns="http://www.w3.org/2000/svg">
<path fill-rule="evenodd" clip-rule="evenodd" d="M2.25 0H15.75C16.9926 0 18 1.00736 18 2.25V15.75C18 16.9926 16.9926 18 15.75 18H2.25C1.00736 18 0 16.9926 0 15.75V2.25C0 1.00736 1.00736 0 2.25 0ZM4.5 4.5H13.5C14.1213 4.5 14.625 5.00368 14.625 5.625C14.625 6.24632 14.1213 6.75 13.5 6.75H4.5C3.87868 6.75 3.375 6.24632 3.375 5.625C3.375 5.00368 3.87868 4.5 4.5 4.5ZM13.5 7.875H4.5C3.87868 7.875 3.375 8.37868 3.375 9C3.375 9.62132 3.87868 10.125 4.5 10.125H13.5C14.1213 10.125 14.625 9.62132 14.625 9C14.625 8.37868 14.1213 7.875 13.5 7.875ZM4.5 11.25H7.875C8.49632 11.25 9 11.7537 9 12.375C9 12.9963 8.49632 13.5 7.875 13.5H4.5C3.87868 13.5 3.375 12.9963 3.375 12.375C3.375 11.7537 3.87868 11.25 4.5 11.25Z" fill="#229AD6"/>
</svg>
