<svg width="202" height="27" viewBox="0 0 202 27" fill="none" xmlns="http://www.w3.org/2000/svg">
<path d="M14.5089 0L30.1888 15.6164V24H22.8715V18.6302L11.483 7.28765H9.11728V24H1.8V0H14.5089ZM22.8715 8.32876V0H30.1888V8.32876H22.8715Z" fill="#1866A9"/>
<path opacity="0.2" d="M12.7089 0L28.3888 15.6164V24H21.0715V18.6302L9.68302 7.28765H7.31727V24H0V0H12.7089ZM21.0715 8.32876V0H28.3888V8.32876H21.0715Z" fill="#1866A9"/>
<path d="M60.5806 5.88976V21H57.4672L51.3961 10.8712V21H48.2827V5.88976H51.3961L57.4776 16.029V5.88976H60.5806ZM69.1631 18.4678V13.4656C69.1631 13.1059 69.1043 12.798 68.9867 12.542C68.869 12.2791 68.6857 12.075 68.4366 11.9297C68.1945 11.7844 67.8797 11.7118 67.4922 11.7118C67.1601 11.7118 66.873 11.7706 66.6309 11.8882C66.3887 11.9989 66.2019 12.1615 66.0705 12.376C65.939 12.5835 65.8733 12.8291 65.8733 13.1128H62.8844C62.8844 12.6354 62.9951 12.1822 63.2165 11.7533C63.4379 11.3243 63.7597 10.9473 64.1817 10.6221C64.6037 10.29 65.1053 10.0305 65.6865 9.84374C66.2746 9.65694 66.9318 9.56354 67.6583 9.56354C68.53 9.56354 69.3049 9.70883 69.9829 9.99941C70.661 10.29 71.1937 10.7259 71.5811 11.307C71.9755 11.8882 72.1727 12.6146 72.1727 13.4864V18.2914C72.1727 18.9071 72.2107 19.4122 72.2868 19.8065C72.3629 20.194 72.4736 20.533 72.6189 20.8236V21H69.599C69.4537 20.6956 69.343 20.3151 69.2669 19.8584C69.1977 19.3949 69.1631 18.9313 69.1631 18.4678ZM69.5574 14.161L69.5782 15.8526H67.9074C67.513 15.8526 67.1705 15.8975 66.8799 15.9875C66.5894 16.0774 66.3507 16.2054 66.1639 16.3715C65.9771 16.5306 65.8387 16.7174 65.7488 16.9319C65.6657 17.1463 65.6242 17.3816 65.6242 17.6376C65.6242 17.8935 65.683 18.1253 65.8006 18.3329C65.9183 18.5335 66.0878 18.6926 66.3092 18.8103C66.5306 18.921 66.79 18.9763 67.0875 18.9763C67.5372 18.9763 67.9281 18.8864 68.2602 18.7065C68.5923 18.5266 68.8483 18.3052 69.0282 18.0423C69.215 17.7794 69.3118 17.5303 69.3188 17.2951L70.1075 18.5612C69.9968 18.8449 69.8446 19.1389 69.6508 19.4433C69.464 19.7477 69.2254 20.0349 68.9348 20.3047C68.6442 20.5676 68.2948 20.7855 67.8866 20.9585C67.4784 21.1245 66.9941 21.2076 66.4337 21.2076C65.7211 21.2076 65.0742 21.0657 64.493 20.7821C63.9188 20.4915 63.4622 20.0937 63.1231 19.5886C62.791 19.0766 62.625 18.4955 62.625 17.8451C62.625 17.257 62.7357 16.7347 62.9571 16.278C63.1785 15.8214 63.5037 15.4374 63.9326 15.1261C64.3685 14.8078 64.9116 14.5692 65.562 14.41C66.2123 14.244 66.9664 14.161 67.8243 14.161H69.5574ZM80.5477 17.897C80.5477 17.6825 80.4854 17.4888 80.3609 17.3158C80.2363 17.1429 80.0045 16.9837 79.6655 16.8385C79.3334 16.6862 78.8526 16.5479 78.223 16.4233C77.6557 16.2988 77.1264 16.1431 76.6352 15.9563C76.1509 15.7626 75.7288 15.5308 75.3691 15.261C75.0162 14.9912 74.7395 14.6729 74.5388 14.3062C74.3382 13.9326 74.2379 13.5071 74.2379 13.0298C74.2379 12.5593 74.3382 12.1165 74.5388 11.7014C74.7464 11.2863 75.0404 10.9196 75.421 10.6013C75.8084 10.2762 76.2789 10.0236 76.8324 9.84374C77.3928 9.65694 78.0224 9.56354 78.7211 9.56354C79.6967 9.56354 80.5338 9.71921 81.2326 10.0305C81.9383 10.3419 82.478 10.7708 82.8516 11.3174C83.2321 11.8571 83.4223 12.4728 83.4223 13.1647H80.4335C80.4335 12.8741 80.3712 12.6146 80.2467 12.3863C80.1291 12.1511 79.9423 11.9678 79.6863 11.8363C79.4372 11.6979 79.112 11.6287 78.7108 11.6287C78.3787 11.6287 78.0916 11.6876 77.8494 11.8052C77.6073 11.9159 77.4204 12.0681 77.289 12.2618C77.1645 12.4486 77.1022 12.6562 77.1022 12.8845C77.1022 13.0574 77.1368 13.2131 77.206 13.3515C77.2821 13.4829 77.4032 13.604 77.5692 13.7147C77.7352 13.8254 77.9497 13.9292 78.2126 14.026C78.4825 14.116 78.8145 14.199 79.2089 14.2751C80.0184 14.4412 80.7414 14.6591 81.3779 14.9289C82.0144 15.1918 82.5195 15.5516 82.8931 16.0082C83.2667 16.4579 83.4535 17.0495 83.4535 17.7828C83.4535 18.281 83.3428 18.7376 83.1214 19.1527C82.9 19.5678 82.5817 19.9311 82.1666 20.2424C81.7515 20.5468 81.2534 20.7855 80.6722 20.9585C80.0979 21.1245 79.4511 21.2076 78.7315 21.2076C77.6868 21.2076 76.8012 21.0208 76.0748 20.6472C75.3552 20.2735 74.8087 19.7996 74.4351 19.2254C74.0684 18.6442 73.885 18.0492 73.885 17.4404H76.7182C76.732 17.8486 76.8358 18.1772 77.0295 18.4263C77.2302 18.6753 77.4827 18.8552 77.7871 18.9659C78.0985 19.0766 78.434 19.132 78.7938 19.132C79.1812 19.132 79.5029 19.0801 79.7589 18.9763C80.0149 18.8656 80.2086 18.7203 80.3401 18.5404C80.4785 18.3536 80.5477 18.1392 80.5477 17.897ZM91.4652 17.897C91.4652 17.6825 91.403 17.4888 91.2784 17.3158C91.1539 17.1429 90.9221 16.9837 90.5831 16.8385C90.251 16.6862 89.7702 16.5479 89.1406 16.4233C88.5732 16.2988 88.044 16.1431 87.5528 15.9563C87.0684 15.7626 86.6464 15.5308 86.2866 15.261C85.9338 14.9912 85.6571 14.6729 85.4564 14.3062C85.2558 13.9326 85.1555 13.5071 85.1555 13.0298C85.1555 12.5593 85.2558 12.1165 85.4564 11.7014C85.664 11.2863 85.958 10.9196 86.3385 10.6013C86.726 10.2762 87.1964 10.0236 87.7499 9.84374C88.3103 9.65694 88.9399 9.56354 89.6387 9.56354C90.6142 9.56354 91.4514 9.71921 92.1502 10.0305C92.8559 10.3419 93.3955 10.7708 93.7691 11.3174C94.1496 11.8571 94.3399 12.4728 94.3399 13.1647H91.3511C91.3511 12.8741 91.2888 12.6146 91.1643 12.3863C91.0466 12.1511 90.8598 11.9678 90.6039 11.8363C90.3548 11.6979 90.0296 11.6287 89.6283 11.6287C89.2962 11.6287 89.0091 11.6876 88.767 11.8052C88.5248 11.9159 88.338 12.0681 88.2066 12.2618C88.082 12.4486 88.0198 12.6562 88.0198 12.8845C88.0198 13.0574 88.0544 13.2131 88.1235 13.3515C88.1996 13.4829 88.3207 13.604 88.4868 13.7147C88.6528 13.8254 88.8673 13.9292 89.1302 14.026C89.4 14.116 89.7321 14.199 90.1265 14.2751C90.936 14.4412 91.6589 14.6591 92.2955 14.9289C92.932 15.1918 93.437 15.5516 93.8106 16.0082C94.1842 16.4579 94.371 17.0495 94.371 17.7828C94.371 18.281 94.2603 18.7376 94.0389 19.1527C93.8176 19.5678 93.4993 19.9311 93.0842 20.2424C92.6691 20.5468 92.1709 20.7855 91.5898 20.9585C91.0155 21.1245 90.3686 21.2076 89.6491 21.2076C88.6044 21.2076 87.7188 21.0208 86.9923 20.6472C86.2728 20.2735 85.7262 19.7996 85.3526 19.2254C84.9859 18.6442 84.8026 18.0492 84.8026 17.4404H87.6358C87.6496 17.8486 87.7534 18.1772 87.9471 18.4263C88.1478 18.6753 88.4003 18.8552 88.7047 18.9659C89.016 19.0766 89.3516 19.132 89.7114 19.132C90.0988 19.132 90.4205 19.0801 90.6765 18.9763C90.9325 18.8656 91.1262 18.7203 91.2577 18.5404C91.396 18.3536 91.4652 18.1392 91.4652 17.897ZM99.3005 12.2203V21H96.3117V9.7711H99.1241L99.3005 12.2203ZM102.684 9.69845L102.632 12.4694C102.487 12.4486 102.31 12.4313 102.103 12.4175C101.902 12.3967 101.719 12.3863 101.553 12.3863C101.131 12.3863 100.764 12.4417 100.452 12.5524C100.148 12.6562 99.8921 12.8118 99.6845 13.0194C99.4839 13.2269 99.3317 13.4795 99.2279 13.777C99.131 14.0745 99.0757 14.4135 99.0619 14.794L98.4599 14.6072C98.4599 13.8808 98.5326 13.2131 98.6779 12.6043C98.8232 11.9885 99.0342 11.4523 99.3109 10.9957C99.5946 10.5391 99.9405 10.1862 100.349 9.93714C100.757 9.68807 101.224 9.56354 101.75 9.56354C101.916 9.56354 102.085 9.57738 102.258 9.60505C102.431 9.62581 102.573 9.65694 102.684 9.69845ZM115.718 8.47386L111.609 21H108.298L113.913 5.88976H116.019L115.718 8.47386ZM119.133 21L115.013 8.47386L114.681 5.88976H116.808L122.454 21H119.133ZM118.946 15.3752V17.814H110.965V15.3752H118.946ZM126.823 5.05952V21H123.824V5.05952H126.823ZM140.688 14.3685H136.806L136.786 12.2307H140.044C140.618 12.2307 141.089 12.158 141.456 12.0127C141.822 11.8605 142.096 11.6426 142.275 11.3589C142.462 11.0683 142.556 10.7155 142.556 10.3004C142.556 9.8299 142.466 9.44938 142.286 9.1588C142.113 8.86822 141.84 8.6572 141.466 8.52575C141.099 8.39429 140.625 8.32857 140.044 8.32857H137.886V21H134.772V5.88976H140.044C140.923 5.88976 141.708 5.97278 142.4 6.13883C143.099 6.30487 143.69 6.5574 144.175 6.89641C144.659 7.23543 145.029 7.66438 145.285 8.18328C145.541 8.69525 145.669 9.30409 145.669 10.0098C145.669 10.6325 145.527 11.2067 145.244 11.7325C144.967 12.2583 144.528 12.6873 143.926 13.0194C143.331 13.3515 142.552 13.5348 141.591 13.5694L140.688 14.3685ZM140.553 21H135.955L137.17 18.5716H140.553C141.099 18.5716 141.546 18.4851 141.892 18.3121C142.237 18.1322 142.493 17.8901 142.659 17.5857C142.826 17.2812 142.909 16.9319 142.909 16.5375C142.909 16.0947 142.832 15.7107 142.68 15.3855C142.535 15.0604 142.3 14.8113 141.975 14.6383C141.649 14.4585 141.22 14.3685 140.688 14.3685H137.688L137.709 12.2307H141.445L142.161 13.0713C143.082 13.0574 143.822 13.22 144.382 13.559C144.95 13.8911 145.361 14.3235 145.617 14.8563C145.88 15.389 146.012 15.9598 146.012 16.5686C146.012 17.5372 145.801 18.3536 145.378 19.0178C144.956 19.6751 144.337 20.1698 143.521 20.5019C142.711 20.834 141.722 21 140.553 21ZM154.22 18.4678V13.4656C154.22 13.1059 154.162 12.798 154.044 12.542C153.926 12.2791 153.743 12.075 153.494 11.9297C153.252 11.7844 152.937 11.7118 152.55 11.7118C152.218 11.7118 151.93 11.7706 151.688 11.8882C151.446 11.9989 151.259 12.1615 151.128 12.376C150.996 12.5835 150.931 12.8291 150.931 13.1128H147.942C147.942 12.6354 148.053 12.1822 148.274 11.7533C148.495 11.3243 148.817 10.9473 149.239 10.6221C149.661 10.29 150.163 10.0305 150.744 9.84374C151.332 9.65694 151.989 9.56354 152.716 9.56354C153.587 9.56354 154.362 9.70883 155.04 9.99941C155.718 10.29 156.251 10.7259 156.639 11.307C157.033 11.8882 157.23 12.6146 157.23 13.4864V18.2914C157.23 18.9071 157.268 19.4122 157.344 19.8065C157.42 20.194 157.531 20.533 157.676 20.8236V21H154.656C154.511 20.6956 154.4 20.3151 154.324 19.8584C154.255 19.3949 154.22 18.9313 154.22 18.4678ZM154.615 14.161L154.636 15.8526H152.965C152.57 15.8526 152.228 15.8975 151.937 15.9875C151.647 16.0774 151.408 16.2054 151.221 16.3715C151.034 16.5306 150.896 16.7174 150.806 16.9319C150.723 17.1463 150.682 17.3816 150.682 17.6376C150.682 17.8935 150.74 18.1253 150.858 18.3329C150.976 18.5335 151.145 18.6926 151.367 18.8103C151.588 18.921 151.847 18.9763 152.145 18.9763C152.595 18.9763 152.986 18.8864 153.318 18.7065C153.65 18.5266 153.906 18.3052 154.086 18.0423C154.272 17.7794 154.369 17.5303 154.376 17.2951L155.165 18.5612C155.054 18.8449 154.902 19.1389 154.708 19.4433C154.521 19.7477 154.283 20.0349 153.992 20.3047C153.702 20.5676 153.352 20.7855 152.944 20.9585C152.536 21.1245 152.051 21.2076 151.491 21.2076C150.778 21.2076 150.132 21.0657 149.55 20.7821C148.976 20.4915 148.52 20.0937 148.181 19.5886C147.848 19.0766 147.682 18.4955 147.682 17.8451C147.682 17.257 147.793 16.7347 148.014 16.278C148.236 15.8214 148.561 15.4374 148.99 15.1261C149.426 14.8078 149.969 14.5692 150.619 14.41C151.27 14.244 152.024 14.161 152.882 14.161H154.615ZM162.523 12.2203V21H159.534V9.7711H162.346L162.523 12.2203ZM165.906 9.69845L165.854 12.4694C165.709 12.4486 165.532 12.4313 165.325 12.4175C165.124 12.3967 164.941 12.3863 164.775 12.3863C164.353 12.3863 163.986 12.4417 163.675 12.5524C163.37 12.6562 163.114 12.8118 162.907 13.0194C162.706 13.2269 162.554 13.4795 162.45 13.777C162.353 14.0745 162.298 14.4135 162.284 14.794L161.682 14.6072C161.682 13.8808 161.755 13.2131 161.9 12.6043C162.045 11.9885 162.256 11.4523 162.533 10.9957C162.817 10.5391 163.163 10.1862 163.571 9.93714C163.979 9.68807 164.446 9.56354 164.972 9.56354C165.138 9.56354 165.308 9.57738 165.481 9.60505C165.653 9.62581 165.795 9.65694 165.906 9.69845ZM173.025 18.4678V13.4656C173.025 13.1059 172.966 12.798 172.849 12.542C172.731 12.2791 172.548 12.075 172.299 11.9297C172.057 11.7844 171.742 11.7118 171.354 11.7118C171.022 11.7118 170.735 11.7706 170.493 11.8882C170.251 11.9989 170.064 12.1615 169.933 12.376C169.801 12.5835 169.735 12.8291 169.735 13.1128H166.747C166.747 12.6354 166.857 12.1822 167.079 11.7533C167.3 11.3243 167.622 10.9473 168.044 10.6221C168.466 10.29 168.967 10.0305 169.549 9.84374C170.137 9.65694 170.794 9.56354 171.52 9.56354C172.392 9.56354 173.167 9.70883 173.845 9.99941C174.523 10.29 175.056 10.7259 175.443 11.307C175.838 11.8882 176.035 12.6146 176.035 13.4864V18.2914C176.035 18.9071 176.073 19.4122 176.149 19.8065C176.225 20.194 176.336 20.533 176.481 20.8236V21H173.461C173.316 20.6956 173.205 20.3151 173.129 19.8584C173.06 19.3949 173.025 18.9313 173.025 18.4678ZM173.42 14.161L173.44 15.8526H171.77C171.375 15.8526 171.033 15.8975 170.742 15.9875C170.452 16.0774 170.213 16.2054 170.026 16.3715C169.839 16.5306 169.701 16.7174 169.611 16.9319C169.528 17.1463 169.486 17.3816 169.486 17.6376C169.486 17.8935 169.545 18.1253 169.663 18.3329C169.78 18.5335 169.95 18.6926 170.171 18.8103C170.393 18.921 170.652 18.9763 170.95 18.9763C171.399 18.9763 171.79 18.8864 172.122 18.7065C172.454 18.5266 172.71 18.3052 172.89 18.0423C173.077 17.7794 173.174 17.5303 173.181 17.2951L173.97 18.5612C173.859 18.8449 173.707 19.1389 173.513 19.4433C173.326 19.7477 173.088 20.0349 172.797 20.3047C172.506 20.5676 172.157 20.7855 171.749 20.9585C171.341 21.1245 170.856 21.2076 170.296 21.2076C169.583 21.2076 168.936 21.0657 168.355 20.7821C167.781 20.4915 167.324 20.0937 166.985 19.5886C166.653 19.0766 166.487 18.4955 166.487 17.8451C166.487 17.257 166.598 16.7347 166.819 16.278C167.041 15.8214 167.366 15.4374 167.795 15.1261C168.231 14.8078 168.774 14.5692 169.424 14.41C170.074 14.244 170.829 14.161 171.687 14.161H173.42ZM181.328 5.04915V21H178.339V5.04915H181.328ZM188.405 9.7711L183.528 15.3337L180.912 17.98L179.823 15.8214L181.898 13.1854L184.815 9.7711H188.405ZM185.302 21L181.981 15.811L184.047 14.0053L188.748 21H185.302ZM195.192 9.7711V11.8882H188.654V9.7711H195.192ZM190.273 7.00019H193.262V17.6168C193.262 17.942 193.304 18.191 193.387 18.364C193.477 18.537 193.608 18.6581 193.781 18.7272C193.954 18.7895 194.172 18.8206 194.435 18.8206C194.622 18.8206 194.788 18.8137 194.933 18.7999C195.085 18.7791 195.213 18.7584 195.317 18.7376L195.327 20.9377C195.071 21.0208 194.795 21.0865 194.497 21.1349C194.2 21.1833 193.871 21.2076 193.511 21.2076C192.854 21.2076 192.28 21.1003 191.789 20.8858C191.304 20.6644 190.931 20.3116 190.668 19.8273C190.405 19.343 190.273 18.7065 190.273 17.9178V7.00019ZM200.049 9.7711V21H197.05V9.7711H200.049ZM196.863 6.84452C196.863 6.40865 197.016 6.04888 197.32 5.76522C197.624 5.48156 198.033 5.33973 198.545 5.33973C199.05 5.33973 199.454 5.48156 199.759 5.76522C200.07 6.04888 200.226 6.40865 200.226 6.84452C200.226 7.2804 200.07 7.64016 199.759 7.92383C199.454 8.20749 199.05 8.34932 198.545 8.34932C198.033 8.34932 197.624 8.20749 197.32 7.92383C197.016 7.64016 196.863 7.2804 196.863 6.84452Z" fill="#333333"/>
</svg>
