<svg width="18" height="16" viewBox="0 0 18 16" fill="none" xmlns="http://www.w3.org/2000/svg">
<path fill-rule="evenodd" clip-rule="evenodd" d="M11.4771 11.8042C8.79199 11.8042 10.5601 12.0151 10.9248 9.09717C11.4712 4.7334 15.6211 4.7334 16.2334 9.09717C16.626 11.9053 18.3091 11.8042 15.6812 11.8042H14.6338C14.6294 12.519 14.5181 12.8838 15.2593 13.2852C15.999 13.6851 18 13.8916 18 14.9067V15.5571C18 15.6099 17.9575 15.6523 17.9048 15.6523C11.937 15.6523 5.96777 15.6523 0 15.6523V13.77C0.79541 13.4155 3.3208 12.749 3.51709 11.7544C3.56982 11.4878 2.95459 10.5957 2.79199 10.1226C2.54004 9.71973 2.38477 8.95215 2.68506 8.51855C2.86377 8.25928 2.7876 7.6543 2.7876 7.32471C2.7876 4.71729 7.35352 4.71875 7.35352 7.32471C7.35352 7.58691 7.30078 8.27979 7.42383 8.47021C7.73438 8.94922 7.6333 9.66846 7.34912 10.1226C7.21582 10.5723 6.63721 11.5083 6.6665 11.7544C6.87598 13.5283 9.06445 12.6494 9.99316 13.978C10.6084 13.7158 11.4258 13.5635 11.9736 13.2354C12.6255 12.8457 12.5142 12.4531 12.5098 11.8042H11.4771ZM7.67578 0.347656H6.00732C5.75098 0.347656 5.53271 0.438477 5.34961 0.618652C5.16797 0.798828 5.07861 1.01855 5.07861 1.27637V2.90381C5.07861 3.16162 5.16943 3.38135 5.34961 3.56152C5.52979 3.7417 5.74951 3.83252 6.00732 3.83252H6.72363C6.6709 4.0376 6.60498 4.23242 6.52295 4.41406C6.44238 4.59863 6.30615 4.77441 6.11719 4.94287C6.479 4.84912 6.80127 4.70703 7.08545 4.521C7.36816 4.33643 7.61426 4.10498 7.81641 3.83252H8.43018C8.68652 3.83252 8.90479 3.74023 9.08789 3.56152C9.26953 3.38135 9.35889 3.16162 9.35889 2.90381V1.2749C9.35889 1.01855 9.26807 0.800293 9.08789 0.617188C8.90918 0.435547 8.68945 0.347656 8.43164 0.347656H7.67578ZM12.5552 2.2168V3.84424C12.5552 3.99219 12.5288 4.13135 12.4746 4.26025C12.4219 4.38916 12.3442 4.50635 12.2373 4.61035C12.1919 4.65576 12.1436 4.69678 12.0938 4.73047C12.0425 4.76709 11.9897 4.79785 11.9355 4.82422C11.9341 4.82568 11.9297 4.82568 11.9268 4.82861C11.8564 4.86084 11.7861 4.88428 11.7114 4.90039C11.6338 4.9165 11.5532 4.92529 11.4712 4.92529H10.96C10.9702 4.95752 10.9805 4.99121 10.9922 5.02344C11.0229 5.11426 11.0596 5.20361 11.0991 5.2915V5.29297C11.1343 5.375 11.1826 5.45264 11.2427 5.53027C11.3042 5.61084 11.3774 5.68848 11.4653 5.76758C11.5283 5.82324 11.5356 5.91846 11.4771 5.98291C11.4375 6.02832 11.3789 6.04443 11.3262 6.02979C11.1372 5.97998 10.957 5.91992 10.79 5.84521C10.6216 5.77197 10.4619 5.68555 10.3125 5.5874C10.1646 5.49072 10.0254 5.38086 9.89648 5.25928C9.78809 5.15674 9.68555 5.04395 9.58887 4.92529H9.05273C8.95166 4.92529 8.85352 4.91357 8.76123 4.88867C8.66895 4.86377 8.58105 4.82568 8.49756 4.77441C8.42578 4.73193 8.40381 4.63672 8.44629 4.56494C8.48877 4.49316 8.58398 4.47119 8.65576 4.51367C8.71289 4.54883 8.77441 4.5752 8.8418 4.59424C8.90771 4.61328 8.97949 4.62061 9.05273 4.62061H9.66504C9.71192 4.62061 9.75732 4.64111 9.78809 4.68213C9.88477 4.81104 9.99023 4.92969 10.1074 5.03809C10.2217 5.14648 10.3477 5.24463 10.4824 5.33252C10.6113 5.41602 10.749 5.49219 10.894 5.55811C10.8647 5.51123 10.8428 5.46436 10.8208 5.41748C10.7798 5.32373 10.7402 5.22705 10.7065 5.12451C10.6743 5.02783 10.6436 4.92822 10.6157 4.82715C10.6099 4.81104 10.6069 4.79199 10.6069 4.77441C10.6069 4.69092 10.6743 4.62061 10.7607 4.62061H11.4727C11.5342 4.62061 11.5913 4.61475 11.647 4.60156C11.6997 4.58984 11.7495 4.57227 11.7964 4.55176C11.7979 4.55029 11.8008 4.55029 11.8022 4.54736C11.8418 4.52832 11.8799 4.50635 11.915 4.48145C11.9517 4.45508 11.9868 4.42578 12.019 4.39062C12.0952 4.31445 12.1523 4.23096 12.189 4.14014C12.2256 4.04932 12.2446 3.94971 12.2446 3.84131V2.21973C12.2446 2.11133 12.2256 2.01025 12.189 1.9209C12.1523 1.83154 12.0952 1.74658 12.019 1.67041C11.9429 1.59424 11.8594 1.53711 11.7686 1.50049C11.6777 1.46387 11.5781 1.44482 11.4697 1.44482H10.3887C10.3052 1.44482 10.2349 1.37744 10.2349 1.29102C10.2349 1.20752 10.3022 1.13721 10.3887 1.13721H11.4697C11.6177 1.13721 11.7539 1.16357 11.8828 1.21777C12.0117 1.27051 12.126 1.34814 12.2329 1.45361C12.3369 1.55762 12.4175 1.6748 12.4688 1.80371C12.5215 1.93262 12.5493 2.07031 12.5493 2.2168H12.5552Z" fill="#229AD6"/>
</svg>
