<svg width="14" height="21" viewBox="0 0 14 21" fill="none" xmlns="http://www.w3.org/2000/svg">
<path fill-rule="evenodd" clip-rule="evenodd" d="M0.652344 8.74876L8.49054 0.978516L13.4969 5.89793L12.6894 6.27404L9.21273 2.86221L9.17164 2.81954C9.0184 2.67318 8.81332 2.59363 8.60146 2.59837C8.3896 2.60311 8.18829 2.69175 8.04174 2.84483L7.75887 3.13876L7.74939 3.12928L6.42195 4.53573L1.33819 9.42038L0.652344 8.74876ZM2.7715 13.123L2.72409 13.4264C2.59925 14.2355 2.39698 15.5503 2.3148 16.0149C2.3092 16.0428 2.30018 16.0698 2.28794 16.0955C2.27864 16.1201 2.26469 16.1426 2.24685 16.1619C2.15292 16.2814 2.06789 16.4076 1.99242 16.5396C1.93729 16.6324 1.89678 16.7331 1.87232 16.8382C1.86036 16.8902 1.86036 16.9443 1.87232 16.9963C1.88581 17.044 1.91203 17.0871 1.94817 17.1211C2.71935 17.8954 3.53794 18.6777 4.28699 19.4678C4.39923 19.5718 4.53315 19.6495 4.67909 19.6954C4.82502 19.7413 4.97932 19.7543 5.13086 19.7333C5.41472 19.6967 5.69492 19.6359 5.96841 19.5516C6.26551 19.4861 6.55797 19.4011 6.84389 19.2971C7.12873 19.1876 7.39115 19.0269 7.61823 18.8231L8.26298 18.1499C8.27173 18.1372 8.28179 18.1256 8.29301 18.1151C8.31197 18.0961 8.36728 18.0408 8.45104 17.9665C8.87771 17.5494 9.3992 17.0358 9.10369 16.6091L8.88719 16.3926L8.72917 16.5348L8.52215 16.7071C8.41153 16.8035 8.30881 16.8951 8.21557 16.9868C8.15271 17.0496 8.06744 17.085 7.97853 17.085C7.88962 17.085 7.80436 17.0496 7.74149 16.9868C7.67862 16.9239 7.6433 16.8386 7.6433 16.7497C7.6433 16.6608 7.67862 16.5756 7.74149 16.5127C7.84105 16.4131 7.96115 16.3057 8.08599 16.1966L8.10179 16.184C8.52057 15.8126 8.99939 15.3938 8.76551 15.0462L8.51109 14.7918C8.45104 14.8534 8.38782 14.9119 8.32461 14.9703C8.2614 15.0288 8.16658 15.1157 8.08441 15.1853L8.06387 15.2011C7.95641 15.2959 7.85527 15.3844 7.76203 15.4776C7.7309 15.5087 7.69395 15.5334 7.65328 15.5503C7.61261 15.5671 7.56901 15.5758 7.52499 15.5758C7.48097 15.5758 7.43738 15.5671 7.3967 15.5503C7.35603 15.5334 7.31908 15.5087 7.28795 15.4776C7.25682 15.4465 7.23213 15.4095 7.21528 15.3688C7.19843 15.3282 7.18976 15.2846 7.18976 15.2406C7.18976 15.1965 7.19843 15.1529 7.21528 15.1123C7.23213 15.0716 7.25682 15.0346 7.28795 15.0035C7.38435 14.9071 7.50287 14.8012 7.62771 14.6875L7.64667 14.6701C8.06545 14.3003 8.54427 13.8799 8.31197 13.5323C8.22347 13.4454 8.1334 13.3584 8.04806 13.2684L7.3401 13.9763C7.27723 14.0392 7.19196 14.0745 7.10306 14.0745C7.01415 14.0745 6.92888 14.0392 6.86601 13.9763C6.80314 13.9135 6.76783 13.8282 6.76783 13.7393C6.76783 13.6504 6.80314 13.5651 6.86601 13.5023L8.28827 12.08C8.42174 11.9535 8.52399 11.7977 8.58694 11.6249C8.63971 11.4828 8.64415 11.3273 8.59958 11.1824C8.58495 11.1387 8.56533 11.0968 8.54111 11.0576C8.51778 11.0198 8.49021 10.9848 8.45894 10.9533C8.42722 10.9211 8.39166 10.893 8.35306 10.8695C8.31413 10.8462 8.27281 10.8271 8.2298 10.8126C8.0851 10.7692 7.93011 10.7747 7.7889 10.8284C7.61263 10.8982 7.45398 11.0062 7.32429 11.1445L3.90614 14.5784C3.84328 14.6413 3.75801 14.6766 3.6691 14.6766C3.58019 14.6766 3.49493 14.6413 3.43206 14.5784C3.36919 14.5156 3.33387 14.4303 3.33387 14.3414C3.33387 14.2525 3.36919 14.1672 3.43206 14.1043L3.58061 13.9574L2.76518 13.1246L2.7715 13.123ZM4.37549 13.1672L6.40773 11.135L6.3698 11.1239C6.09948 11.0352 5.86121 10.8689 5.68466 10.6458C5.50811 10.4227 5.40106 10.1526 5.37684 9.86909C5.35262 9.5856 5.4123 9.30125 5.54845 9.05142C5.68459 8.80158 5.8912 8.5973 6.14256 8.46399C6.39391 8.33068 6.67892 8.27423 6.96211 8.30165C7.24531 8.32908 7.51419 8.43917 7.73529 8.61824C7.9564 8.79731 8.11996 9.03744 8.20564 9.30875C8.29132 9.58006 8.29532 9.87058 8.21715 10.1442C8.29281 10.155 8.36737 10.1724 8.43997 10.1963C8.53117 10.2263 8.61865 10.2666 8.70072 10.3164C8.78371 10.3675 8.86059 10.428 8.92986 10.4966C8.95994 10.5266 8.98843 10.5583 9.0152 10.5914L10.9431 8.62866C10.7701 8.44914 10.6747 8.20867 10.6776 7.95933C10.6806 7.70999 10.7817 7.47185 10.9589 7.29648L9.19535 5.49496C9.01596 5.66872 8.77527 5.76469 8.52555 5.76203C8.27582 5.75936 8.03723 5.65828 7.86159 5.48074L3.02277 10.4444C3.19793 10.6219 3.29614 10.8612 3.29614 11.1105C3.29614 11.3598 3.19793 11.5991 3.02277 11.7766L4.38339 13.1672H4.37549ZM9.2396 11.8113C9.1472 12.102 8.98434 12.3653 8.76551 12.5778L8.53321 12.8085L8.80818 13.0835L8.83346 13.1119L8.85559 13.1419C8.98512 13.298 9.06268 13.4907 9.07741 13.6929C9.09214 13.8952 9.04332 14.0971 8.93776 14.2703H8.94566C8.96401 14.2827 8.98144 14.2964 8.99781 14.3114L9.26646 14.5816C9.27609 14.5899 9.28459 14.5995 9.29175 14.61L9.31229 14.6369C9.46386 14.8261 9.54338 15.063 9.53669 15.3054C9.52413 15.5053 9.4575 15.6981 9.34389 15.8632L9.61096 16.1287L9.63625 16.1587L9.65521 16.1856C10.3094 17.08 9.54775 17.8243 8.93302 18.4248C8.89193 18.4738 8.82398 18.5339 8.77499 18.5829C8.56008 18.8073 8.30091 19.1107 8.07967 19.3098C7.4602 19.8708 6.85021 20.0209 6.14382 20.1932C5.8286 20.2908 5.50474 20.358 5.17669 20.3939C4.9324 20.4208 4.68516 20.3938 4.45249 20.3146C4.21982 20.2354 4.00741 20.106 3.83029 19.9356L1.49463 17.5999C1.37693 17.49 1.29027 17.351 1.24337 17.197C1.20015 17.0381 1.19581 16.8711 1.23073 16.7102C1.26282 16.5592 1.31602 16.4134 1.38876 16.2772C1.47323 16.1157 1.57158 15.9619 1.68269 15.8174C1.74274 15.4744 1.8739 14.6005 1.99874 13.7978C2.06986 13.3158 2.13939 12.8622 2.19154 12.5335L0.878324 11.1919L8.64857 3.34894L13.1097 7.90805L9.2396 11.8113Z" fill="#1866A9"/>
</svg>
