<svg width="18" height="18" viewBox="0 0 18 18" fill="none" xmlns="http://www.w3.org/2000/svg">
<path fill-rule="evenodd" clip-rule="evenodd" d="M3 14H2V4H3V2H2C1.46957 2 0.960859 2.21071 0.585786 2.58579C0.210714 2.96086 0 3.46957 0 4V14C0 14.5304 0.210714 15.0391 0.585786 15.4142C0.960859 15.7893 1.46957 16 2 16H3V14ZM16 7.005V16H6V2H11.99V4.49C11.99 4.68698 12.0288 4.88204 12.1042 5.06402C12.1796 5.24601 12.2901 5.41137 12.4293 5.55066C12.5686 5.68995 12.734 5.80044 12.916 5.87582C13.098 5.9512 13.293 5.99 13.49 5.99H17.99V5.468C17.99 5.171 17.858 4.89 17.631 4.7L12.557 0.464C12.197 0.164 11.744 0 11.275 0H6C5.46957 0 4.96086 0.210714 4.58579 0.585786C4.21071 0.960859 4 1.46957 4 2V16C4 16.5304 4.21071 17.0391 4.58579 17.4142C4.96086 17.7893 5.46957 18 6 18H16C16.5304 18 17.0391 17.7893 17.4142 17.4142C17.7893 17.0391 18 16.5304 18 16V7.005H16Z" fill="#229AD6"/>
</svg>
