<svg width="18" height="24" viewBox="0 0 18 24" fill="none" xmlns="http://www.w3.org/2000/svg">
<path fill-rule="evenodd" clip-rule="evenodd" d="M14.1429 7.71429C15.1714 7.71429 16.2 7.32857 16.8429 6.55714C17.6143 5.78571 18 4.88571 18 3.85714C18 2.82857 17.6143 1.8 16.8429 1.15714C15.4286 -0.257143 12.8571 -0.257143 11.4429 1.15714C10.6714 1.8 10.2857 2.82857 10.2857 3.85714C10.2857 4.88571 10.6714 5.78571 11.3143 6.42857L9 10.4143L6.68571 6.42857C7.32857 5.78571 7.71429 4.88571 7.71429 3.85714C7.71429 2.82857 7.32857 1.8 6.55714 1.15714C5.14286 -0.385714 2.57143 -0.385714 1.15714 1.15714C0.385714 1.8 0 2.82857 0 3.85714C0 4.88571 0.385714 5.91429 1.15714 6.55714C1.92857 7.32857 2.82857 7.71429 3.85714 7.71429H4.37143L12.9857 22.5C13.2429 22.8857 13.6286 23.1429 14.1429 23.1429C14.4 23.1429 14.5286 23.1429 14.7857 23.0143C15.4286 22.6286 15.5571 21.8571 15.3 21.2143L10.5429 12.9857L13.6286 7.58571C13.7571 7.71429 14.0143 7.71429 14.1429 7.71429ZM4.75714 4.75714C4.24286 5.27143 3.47143 5.27143 2.95714 4.75714C2.7 4.5 2.57143 4.24286 2.57143 3.85714C2.57143 3.47143 2.7 3.21429 2.95714 2.95714C3.21429 2.7 3.47143 2.57143 3.85714 2.57143C4.24286 2.57143 4.5 2.7 4.75714 2.95714C5.01429 3.21429 5.14286 3.47143 5.14286 3.85714C5.14286 4.24286 5.01429 4.5 4.75714 4.75714ZM13.2429 2.95714C13.5 2.7 13.7571 2.57143 14.1429 2.57143C14.5286 2.57143 14.7857 2.7 15.0429 2.95714C15.3 3.21429 15.4286 3.47143 15.4286 3.85714C15.4286 4.24286 15.3 4.5 15.0429 4.75714C14.5286 5.27143 13.7571 5.27143 13.2429 4.75714C12.9857 4.5 12.8571 4.24286 12.8571 3.85714C12.8571 3.47143 12.9857 3.21429 13.2429 2.95714Z" fill="#229AD6"/>
<path fill-rule="evenodd" clip-rule="evenodd" d="M6.81429 14.2714L2.82857 21.2143C2.44286 21.8571 2.57143 22.6286 3.21429 22.8857C3.47143 23.0143 3.6 23.1429 3.85714 23.1429C4.24286 23.1429 4.75714 22.8857 5.01429 22.5L8.35714 16.8429L6.81429 14.2714Z" fill="#229AD6"/>
</svg>
