<svg width="25" height="25" viewBox="0 0 25 25" fill="none" xmlns="http://www.w3.org/2000/svg">
<path d="M22.6904 22.6904L19.7346 19.7346M22.6904 12.3452C22.6904 13.7037 22.4228 15.049 21.9029 16.3041C21.383 17.5593 20.621 18.6997 19.6604 19.6604C18.6997 20.621 17.5593 21.383 16.3041 21.9029C15.049 22.4228 13.7037 22.6904 12.3452 22.6904C10.9866 22.6904 9.6414 22.4228 8.38626 21.9029C7.13113 21.383 5.99068 20.621 5.03004 19.6604C4.0694 18.6997 3.30738 17.5593 2.78748 16.3041C2.26759 15.049 2 13.7037 2 12.3452C2 9.60148 3.08994 6.97014 5.03004 5.03004C6.97014 3.08994 9.60148 2 12.3452 2C15.0889 2 17.7203 3.08994 19.6604 5.03004C21.6005 6.97014 22.6904 9.60148 22.6904 12.3452Z" stroke="#44546F" stroke-opacity="0.5" stroke-width="2.95577" stroke-linecap="round" stroke-linejoin="round"/>
</svg>
