<svg width="20" height="21" viewBox="0 0 20 21" fill="none" xmlns="http://www.w3.org/2000/svg">
<path d="M3.121 16.2649C5.21942 15.0789 7.58958 14.4573 10 14.4609C12.5 14.4609 14.847 15.1159 16.879 16.2649M13 8.46094C13 9.25659 12.6839 10.0196 12.1213 10.5823C11.5587 11.1449 10.7956 11.4609 10 11.4609C9.20435 11.4609 8.44129 11.1449 7.87868 10.5823C7.31607 10.0196 7 9.25659 7 8.46094C7 7.66529 7.31607 6.90223 7.87868 6.33962C8.44129 5.77701 9.20435 5.46094 10 5.46094C10.7956 5.46094 11.5587 5.77701 12.1213 6.33962C12.6839 6.90223 13 7.66529 13 8.46094ZM19 10.4609C19 11.6428 18.7672 12.8132 18.3149 13.9051C17.8626 14.997 17.1997 15.9892 16.364 16.8249C15.5282 17.6606 14.5361 18.3236 13.4442 18.7759C12.3522 19.2281 11.1819 19.4609 10 19.4609C8.8181 19.4609 7.64778 19.2281 6.55585 18.7759C5.46392 18.3236 4.47177 17.6606 3.63604 16.8249C2.80031 15.9892 2.13738 14.997 1.68508 13.9051C1.23279 12.8132 1 11.6428 1 10.4609C1 8.07399 1.94821 5.7848 3.63604 4.09698C5.32387 2.40915 7.61305 1.46094 10 1.46094C12.3869 1.46094 14.6761 2.40915 16.364 4.09698C18.0518 5.7848 19 8.07399 19 10.4609Z" stroke="black" stroke-width="1.1" stroke-linecap="round" stroke-linejoin="round"/>
</svg>
