<svg width="18" height="18" viewBox="0 0 18 18" fill="none" xmlns="http://www.w3.org/2000/svg">
<path d="M12.8826 1.73048L11.2518 0.099675C11.1189 -0.033225 10.902 -0.033225 10.7691 0.099675L10.1553 0.713475L9.5415 0.099675C9.4086 -0.033225 9.1917 -0.033225 9.0588 0.099675L7.428 1.73048H2.4C1.0767 1.73048 0 2.80717 0 4.13048V15.7849C0 16.9678 0.9627 17.9305 2.1456 17.9305H18V13.7305V9.53048V6.53048V5.93048V1.73048H12.8826ZM11.0106 0.706875L12.0342 1.73048L16.2342 5.93048H14.6169L11.2368 2.55008C11.1099 2.42677 10.911 2.42707 10.7811 2.55338L7.4043 5.93048H5.787L10.5798 1.13797L11.0106 0.706875ZM13.7688 5.93048H8.2527L11.0106 3.17257L13.7688 5.93048ZM9.3 0.706875L9.7311 1.13797L4.9386 5.93048H4.0764L8.2764 1.73048L9.3 0.706875ZM2.4 2.33048H6.828L6.2097 2.94877C6.1188 2.97817 6.0492 3.04748 6.0198 3.13867L3.228 5.93048H2.4C1.4073 5.93048 0.6 5.12318 0.6 4.13048C0.6 3.13777 1.4073 2.33048 2.4 2.33048ZM17.4 13.1305H14.1C13.2729 13.1305 12.6 12.4576 12.6 11.6305C12.6 10.8034 13.2729 10.1305 14.1 10.1305H17.4V13.1305ZM17.4 7.13048H17.1C16.9341 7.13048 16.8 7.26458 16.8 7.43048C16.8 7.59638 16.9341 7.73048 17.1 7.73048H17.4V9.53048H14.1C12.9423 9.53048 12 10.4728 12 11.6305C12 12.7882 12.9423 13.7305 14.1 13.7305H17.4V16.1305H17.1C16.9341 16.1305 16.8 16.2646 16.8 16.4305C16.8 16.5964 16.9341 16.7305 17.1 16.7305H17.4V17.3305H2.1456C1.2936 17.3305 0.6 16.6372 0.6 15.7849V15.1237C0.6699 15.0487 0.7035 14.9428 0.6723 14.8375C0.6243 14.6737 0.6 14.503 0.6 14.3305V6.12368C0.6699 6.04868 0.7035 5.94278 0.6723 5.83748C0.6666 5.81798 0.6645 5.79788 0.6594 5.77838C0.6864 5.80688 0.7137 5.83478 0.7419 5.86178C0.7677 5.88668 0.7944 5.91038 0.8214 5.93408C0.855 5.96348 0.8892 5.99198 0.9243 6.01958C0.9525 6.04178 0.9813 6.06308 1.0104 6.08408C1.0467 6.11018 1.0842 6.13478 1.122 6.15878C1.1523 6.17798 1.1826 6.19658 1.2138 6.21458C1.2534 6.23708 1.2939 6.25808 1.3347 6.27848C1.3662 6.29438 1.3977 6.31028 1.4301 6.32468C1.473 6.34358 1.5168 6.36038 1.5606 6.37688C1.593 6.38918 1.6251 6.40178 1.6581 6.41258C1.7052 6.42788 1.7532 6.44018 1.8012 6.45278C1.833 6.46088 1.8642 6.47048 1.8966 6.47738C1.9509 6.48908 2.0061 6.49688 2.0616 6.50468C2.0892 6.50858 2.1162 6.51428 2.1441 6.51728C2.2281 6.52628 2.3133 6.53138 2.3994 6.53138H3.5442H4.3926H5.2548H6.1032H7.59H14.4315H15.9174H16.7658H17.4V7.13048ZM17.0826 5.93048L14.6826 3.53047H14.7C14.8659 3.53047 15 3.39637 15 3.23047C15 3.06457 14.8659 2.93047 14.7 2.93047H14.1C14.0949 2.93047 14.0907 2.93318 14.0856 2.93348L13.4826 2.33048H17.4V5.93048H17.0826Z" fill="#229AD6"/>
</svg>
