<svg width="18" height="18" viewBox="0 0 18 18" fill="none" xmlns="http://www.w3.org/2000/svg">
<path d="M12.8826 1.76563L11.2518 0.134831C11.1189 0.00193125 10.902 0.00193125 10.7691 0.134831L10.1553 0.748631L9.5415 0.134831C9.4086 0.00193125 9.1917 0.00193125 9.0588 0.134831L7.428 1.76563H2.4C1.0767 1.76563 0 2.84233 0 4.16563V15.82C0 17.0029 0.9627 17.9656 2.1456 17.9656H18V13.7656V9.56563V6.56563V5.96563V1.76563H12.8826ZM11.0106 0.742031L12.0342 1.76563L16.2342 5.96563H14.6169L11.2368 2.58523C11.1099 2.46193 10.911 2.46223 10.7811 2.58853L7.4043 5.96563H5.787L10.5798 1.17313L11.0106 0.742031ZM13.7688 5.96563H8.2527L11.0106 3.20773L13.7688 5.96563ZM9.3 0.742031L9.7311 1.17313L4.9386 5.96563H4.0764L8.2764 1.76563L9.3 0.742031ZM2.4 2.36563H6.828L6.2097 2.98393C6.1188 3.01333 6.0492 3.08263 6.0198 3.17383L3.228 5.96563H2.4C1.4073 5.96563 0.6 5.15833 0.6 4.16563C0.6 3.17293 1.4073 2.36563 2.4 2.36563ZM17.4 13.1656H14.1C13.2729 13.1656 12.6 12.4927 12.6 11.6656C12.6 10.8385 13.2729 10.1656 14.1 10.1656H17.4V13.1656ZM17.4 7.16563H17.1C16.9341 7.16563 16.8 7.29973 16.8 7.46563C16.8 7.63153 16.9341 7.76563 17.1 7.76563H17.4V9.56563H14.1C12.9423 9.56563 12 10.5079 12 11.6656C12 12.8233 12.9423 13.7656 14.1 13.7656H17.4V16.1656H17.1C16.9341 16.1656 16.8 16.2997 16.8 16.4656C16.8 16.6315 16.9341 16.7656 17.1 16.7656H17.4V17.3656H2.1456C1.2936 17.3656 0.6 16.6723 0.6 15.82V15.1588C0.6699 15.0838 0.7035 14.9779 0.6723 14.8726C0.6243 14.7088 0.6 14.5381 0.6 14.3656V6.15883C0.6699 6.08383 0.7035 5.97793 0.6723 5.87263C0.6666 5.85313 0.6645 5.83303 0.6594 5.81353C0.6864 5.84203 0.7137 5.86993 0.7419 5.89693C0.7677 5.92183 0.7944 5.94553 0.8214 5.96923C0.855 5.99863 0.8892 6.02713 0.9243 6.05473C0.9525 6.07693 0.9813 6.09823 1.0104 6.11923C1.0467 6.14533 1.0842 6.16993 1.122 6.19393C1.1523 6.21313 1.1826 6.23173 1.2138 6.24973C1.2534 6.27223 1.2939 6.29323 1.3347 6.31363C1.3662 6.32953 1.3977 6.34543 1.4301 6.35983C1.473 6.37873 1.5168 6.39553 1.5606 6.41203C1.593 6.42433 1.6251 6.43693 1.6581 6.44773C1.7052 6.46303 1.7532 6.47533 1.8012 6.48793C1.833 6.49603 1.8642 6.50563 1.8966 6.51253C1.9509 6.52423 2.0061 6.53203 2.0616 6.53983C2.0892 6.54373 2.1162 6.54943 2.1441 6.55243C2.2281 6.56143 2.3133 6.56653 2.3994 6.56653H3.5442H4.3926H5.2548H6.1032H7.59H14.4315H15.9174H16.7658H17.4V7.16563ZM17.0826 5.96563L14.6826 3.56563H14.7C14.8659 3.56563 15 3.43153 15 3.26563C15 3.09973 14.8659 2.96563 14.7 2.96563H14.1C14.0949 2.96563 14.0907 2.96833 14.0856 2.96863L13.4826 2.36563H17.4V5.96563H17.0826Z" fill="#44546F" fill-opacity="0.7"/>
</svg>
