<?xml version="1.0" encoding="utf-8"?>
<!-- Generator: Adobe Illustrator 27.1.1, SVG Export Plug-In . SVG Version: 6.00 Build 0)  -->
<svg version="1.1" id="Layer_1" xmlns="http://www.w3.org/2000/svg" xmlns:xlink="http://www.w3.org/1999/xlink" x="0px" y="0px"
	 viewBox="0 0 421.43 186.43" style="enable-background:new 0 0 421.43 186.43;" xml:space="preserve">
<style type="text/css">
	.st0{clip-path:url(#SVGID_00000101089707482728472990000016553857706719775674_);fill:#112C4E;}
	.st1{clip-path:url(#SVGID_00000014599849026429049180000018163800588105191552_);fill:#112C4E;}
</style>
<g>
	<defs>
		<rect id="SVGID_1_" x="27.48" y="33.57" width="367.7" height="127.79"/>
	</defs>
	<clipPath id="SVGID_00000059296978193237407050000000594459521158605197_">
		<use xlink:href="#SVGID_1_"  style="overflow:visible;"/>
	</clipPath>
	<path style="clip-path:url(#SVGID_00000059296978193237407050000000594459521158605197_);fill:#112C4E;" d="M358.07,66.64
		c-2.47,0-3.51,2.24-3.67,3.87h6.96C361.38,69.05,360.73,66.64,358.07,66.64 M202.53,75.32c0,1.56,1.01,2.28,2.27,2.28
		c1.63,0,2.76-1.05,3.16-2.18c0.1-0.29,0.1-0.59,0.1-0.88v-2.17C205.22,72.34,202.53,72.92,202.53,75.32 M279.48,66.81
		c-2.83,0-3.97,2.76-3.97,5.4c0,3.05,1.53,5.37,3.94,5.37c2.28,0,3.87-2.21,3.87-5.43C283.32,69.67,282.21,66.81,279.48,66.81
		 M252.61,66.64c-2.47,0-3.51,2.24-3.67,3.87h6.96C255.93,69.05,255.28,66.64,252.61,66.64 M223.83,67.03
		c-1.63,0-3.12,1.17-3.54,2.93c-0.07,0.29-0.13,0.65-0.13,1.04v2.57c0,0.33,0.03,0.65,0.1,0.95c0.42,1.62,1.82,2.8,3.54,2.8
		c2.5,0,4.03-1.99,4.03-5.2C227.83,69.31,226.49,67.03,223.83,67.03 M365.02,118.75h-20.5c0.08,3.03,1.07,5.34,2.98,6.95
		c1.72,1.44,3.95,2.15,6.7,2.15c3.04,0,5.8-0.48,8.29-1.47l1.08,4.75c-2.9,1.28-6.34,1.89-10.32,1.89c-4.75,0-8.5-1.39-11.22-4.2
		c-2.72-2.8-4.09-6.56-4.09-11.28c0-4.65,1.27-8.5,3.8-11.59c2.67-3.29,6.25-4.92,10.76-4.92c4.44,0,7.79,1.64,10.06,4.92
		c1.81,2.62,2.72,5.85,2.72,9.69C365.27,116.85,365.18,117.89,365.02,118.75 M336.83,70.61v9.49h-4V57.02h4v9.4h0.06
		c0.49-0.75,1.17-1.36,1.99-1.79c0.81-0.46,1.75-0.72,2.76-0.72c2.7,0,5.53,1.79,5.53,6.86v9.33h-4V71.2c0-2.28-0.85-4.03-3.05-4.03
		c-1.56,0-2.67,1.04-3.12,2.24C336.86,69.77,336.83,70.19,336.83,70.61 M335.79,107.72c-0.67-0.12-1.39-0.17-2.15-0.17
		c-2.4,0-4.25,0.91-5.56,2.72c-1.14,1.6-1.71,3.6-1.71,6.06v16.13h-6.83v-21.07c0-3.52-0.06-6.75-0.18-9.67h5.94l0.26,5.89h0.19
		c0.71-2.02,1.85-3.65,3.41-4.86c1.52-1.11,3.17-1.64,4.94-1.64c0.63,0,1.2,0.03,1.7,0.12V107.72z M318.26,64.27h2.24v-2.96
		l3.94-1.1v4.07h3.8v2.99h-3.8v6.99c0,1.95,0.52,2.93,2.04,2.93c0.72,0,1.1-0.03,1.56-0.16l0.07,3.02
		c-0.59,0.22-1.66,0.42-2.89,0.42c-1.5,0-2.7-0.49-3.45-1.3c-0.88-0.91-1.27-2.38-1.27-4.46v-7.45h-2.24V64.27z M311.2,128.48
		c-2.83,3.11-6.59,4.67-11.26,4.67c-4.52,0-8.13-1.49-10.8-4.49c-2.67-2.99-4.01-6.78-4.01-11.32c0-4.76,1.38-8.66,4.14-11.7
		c2.77-3.04,6.48-4.54,11.16-4.54c4.53,0,8.15,1.48,10.9,4.49c2.61,2.89,3.91,6.66,3.91,11.25
		C315.24,121.58,313.9,125.44,311.2,128.48 M279.32,80.46c-4.45,0-7.93-3.06-7.93-8.16c0-5.2,3.41-8.39,8.19-8.39
		c4.72,0,7.87,3.32,7.87,8.13C287.45,77.86,283.35,80.46,279.32,80.46 M283.17,106.83h-7.54v14.95c0,3.79,1.34,5.67,4,5.67
		c1.22,0,2.22-0.09,3.03-0.3l0.2,5.17c-1.35,0.51-3.12,0.76-5.31,0.76c-2.68,0-4.81-0.81-6.32-2.47c-1.53-1.64-2.29-4.4-2.29-8.28
		v-15.51h-4.48v-5.12h4.48v-5.62l6.7-2.03v7.65h7.54V106.83z M259.09,129.36c-2.79,2.49-6.66,3.73-11.62,3.73
		c-4.6,0-8.27-0.89-11.05-2.65l1.59-5.69c2.99,1.77,6.28,2.66,9.86,2.66c2.58,0,4.58-0.59,6.02-1.74c1.43-1.15,2.14-2.7,2.14-4.67
		c0-1.71-0.59-3.16-1.77-4.35c-1.19-1.18-3.14-2.27-5.88-3.29c-7.46-2.78-11.19-6.85-11.19-12.2c0-3.5,1.3-6.38,3.94-8.61
		c2.64-2.23,6.12-3.35,10.47-3.35c3.88,0,7.11,0.68,9.68,2.02l-1.72,5.56c-2.4-1.3-5.13-1.96-8.18-1.96c-2.4,0-4.3,0.61-5.66,1.77
		c-1.13,1.07-1.71,2.36-1.71,3.87c0,1.67,0.66,3.07,1.96,4.18c1.14,1.01,3.21,2.1,6.19,3.28c3.68,1.46,6.37,3.21,8.11,5.19
		c1.73,1.98,2.59,4.44,2.59,7.39C262.87,124.13,261.6,127.09,259.09,129.36 M224.71,80.46c-2.05,0-3.87-0.78-5.01-2.73h-0.07
		l-0.19,2.37h-3.41c0.06-1.07,0.13-2.82,0.13-4.46V57.02h4v9.43h0.06c0.98-1.53,2.7-2.53,5.08-2.53c3.87,0,6.63,3.22,6.6,8.03
		C231.89,77.64,228.28,80.46,224.71,80.46 M220.01,129.12c-2.54,2.69-5.7,4.04-9.48,4.04c-4.07,0-6.99-1.45-8.77-4.37v16.14h-6.83
		v-33.1c0-3.29-0.09-6.65-0.25-10.11h5.99l0.39,4.87h0.12c2.29-3.66,5.74-5.49,10.38-5.49c3.63,0,6.66,1.42,9.08,4.3
		c2.43,2.86,3.64,6.64,3.64,11.32C224.28,121.96,222.87,126.08,220.01,129.12 M193.35,80.1h-4V57.02h4V80.1z M186.24,129.12
		c-2.54,2.69-5.7,4.04-9.48,4.04c-4.08,0-7-1.45-8.77-4.37v16.14h-6.83v-33.1c0-3.29-0.09-6.65-0.26-10.11h6.01l0.38,4.87h0.12
		c2.29-3.66,5.74-5.49,10.38-5.49c3.63,0,6.64,1.42,9.08,4.3c2.42,2.86,3.63,6.64,3.63,11.32
		C190.51,121.96,189.09,126.08,186.24,129.12 M159.49,75.75c0-3.97,3.54-6.02,9.4-5.98v-0.26c0-1.04-0.42-2.76-3.22-2.76
		c-1.56,0-3.18,0.49-4.26,1.17l-0.78-2.6c1.17-0.72,3.22-1.4,5.73-1.4c5.07,0,6.53,3.22,6.53,6.7v5.69c0,1.43,0.06,2.83,0.26,3.8
		h-3.61l-0.29-1.75h-0.1c-0.94,1.23-2.6,2.11-4.68,2.11C161.28,80.46,159.49,78.15,159.49,75.75 M151.26,80.1h-3.94l-5.89-15.83
		h4.33l2.57,8.03c0.45,1.4,0.78,2.66,1.07,3.97h0.1c0.29-1.3,0.65-2.54,1.07-3.97l2.54-8.03h4.19L151.26,80.1z M149.71,132.46
		l-3.98-12.51h-13.86l-3.8,12.51H121l13.71-42.63h8.48l13.8,42.63H149.71z M101.44,130.86c0,3.86-3.15,6.99-7.01,6.99H64.4
		c-3.86,0-7.01-3.13-7.01-6.99V64.13c0-3.86,3.15-7,7.01-7h30.03c3.86,0,7.01,3.14,7.01,7V130.86z M128.07,58.19h5.1l7.12,21.91
		h-4.32l-1.98-6.21h-6.93l-1.89,6.21h-4.13L128.07,58.19z M183.07,80.1h-4V64.27h4V80.1z M181.09,57.67c1.37,0,2.21,0.94,2.24,2.18
		c0,1.17-0.88,2.15-2.28,2.15c-1.34,0-2.21-0.98-2.21-2.15C178.85,58.61,179.76,57.67,181.09,57.67 M204.74,66.74
		c-1.56,0-3.18,0.49-4.26,1.17l-0.78-2.6c1.17-0.72,3.22-1.4,5.72-1.4c5.08,0,6.54,3.22,6.54,6.7v5.69c0,1.43,0.06,2.83,0.26,3.8
		h-3.61l-0.29-1.75h-0.1c-0.94,1.23-2.6,2.11-4.68,2.11c-3.19,0-4.97-2.31-4.97-4.72c0-3.97,3.54-6.02,9.4-5.98v-0.26
		C207.95,68.46,207.53,66.74,204.74,66.74 M236.45,57.02h4V80.1h-4V57.02z M252.84,63.91c5.14,0,6.83,4.23,6.83,7.7
		c0,0.75-0.07,1.34-0.13,1.7h-10.6c0.1,2.86,2.31,4.09,4.88,4.09c1.85,0,3.15-0.29,4.39-0.71l0.58,2.73
		c-1.37,0.58-3.25,1.01-5.53,1.01c-5.14,0-8.16-3.15-8.16-8C245.1,68.04,247.77,63.91,252.84,63.91 M294.84,64.27l0.19,2.37h0.1
		c0.71-1.23,2.44-2.73,5.07-2.73c2.76,0,5.63,1.79,5.63,6.79v9.4h-4v-8.94c0-2.28-0.85-4-3.02-4c-1.59,0-2.7,1.14-3.12,2.34
		c-0.13,0.33-0.19,0.81-0.19,1.27v9.33h-4V68.99c0-1.82-0.06-3.35-0.13-4.72H294.84z M358.3,63.91c5.13,0,6.83,4.23,6.83,7.7
		c0,0.75-0.07,1.34-0.13,1.7h-10.6c0.1,2.86,2.31,4.09,4.88,4.09c1.86,0,3.16-0.29,4.39-0.71l0.58,2.73
		c-1.36,0.58-3.25,1.01-5.53,1.01c-5.13,0-8.16-3.15-8.16-8C350.56,68.04,353.22,63.91,358.3,63.91 M379.64,33.57H43.02
		c-8.57,0-15.54,6.97-15.54,15.54v96.74c0,8.56,6.97,15.52,15.54,15.52h336.62c8.57,0,15.54-6.96,15.54-15.52V49.11
		C395.18,40.54,388.21,33.57,379.64,33.57 M131.62,65.47c-0.43-1.33-0.78-2.83-1.11-4.09h-0.07c-0.32,1.27-0.68,2.79-1.04,4.09
		l-1.68,5.4h5.62L131.62,65.47z M168.89,75.42c0.09-0.29,0.09-0.59,0.09-0.88v-2.17c-2.83-0.03-5.52,0.55-5.52,2.95
		c0,1.56,1.01,2.28,2.28,2.28C167.36,77.61,168.5,76.56,168.89,75.42 M351.99,105.76c-2.23,0-4.04,0.95-5.44,2.8
		c-1.14,1.47-1.82,3.24-2.02,5.3h14.23c0.04-2.02-0.39-3.76-1.32-5.25C356.24,106.72,354.43,105.76,351.99,105.76 M138.76,95.52
		h-0.12c-0.43,1.81-1.09,4.48-2.03,8.03l-3.54,11.14h11.45l-3.59-11.14C140.54,102.41,139.81,99.73,138.76,95.52 M209.35,106.52
		c-1.69,0-3.2,0.56-4.58,1.67c-1.37,1.13-2.27,2.6-2.69,4.41c-0.21,0.85-0.31,1.54-0.31,2.09v5.12c0,2.24,0.67,4.13,2.05,5.67
		c1.37,1.53,3.15,2.3,5.34,2.3c2.58,0,4.58-0.98,6.02-2.97c1.44-1.98,2.16-4.59,2.16-7.85c0-2.99-0.68-5.46-2.02-7.39
		C213.82,107.55,211.84,106.52,209.35,106.52 M300.18,106.1c-2.73,0-4.82,1.21-6.25,3.65c-1.24,2.01-1.84,4.47-1.84,7.37
		c0,2.83,0.6,5.24,1.84,7.26c1.46,2.44,3.53,3.65,6.2,3.65c2.6,0,4.65-1.23,6.12-3.73c1.28-2.04,1.91-4.48,1.91-7.3
		c0-2.81-0.61-5.24-1.82-7.25C304.88,107.31,302.84,106.1,300.18,106.1 M175.57,106.52c-1.68,0-3.21,0.56-4.58,1.67
		c-1.37,1.13-2.26,2.6-2.69,4.41c-0.21,0.85-0.31,1.54-0.31,2.09v5.12c0,2.24,0.67,4.13,2.05,5.67c1.37,1.53,3.15,2.3,5.34,2.3
		c2.57,0,4.58-0.98,6.01-2.97c1.43-1.98,2.15-4.59,2.15-7.85c0-2.99-0.67-5.46-2.02-7.39C180.04,107.55,178.06,106.52,175.57,106.52
		 M61.65,123.78h35.53V71.23H61.65V123.78z M79.41,126.88c-2,0-3.62,1.63-3.62,3.63c0,2,1.62,3.62,3.62,3.62
		c2,0,3.62-1.63,3.62-3.62C83.03,128.51,81.41,126.88,79.41,126.88 M75.93,65.86h6.96c0.45,0,0.83-0.37,0.83-0.81
		c0-0.46-0.37-0.84-0.83-0.84h-6.96c-0.44,0-0.82,0.37-0.82,0.84C75.11,65.49,75.49,65.86,75.93,65.86"/>
</g>
</svg>
