<?xml version="1.0" encoding="utf-8"?>
<!-- Generator: Adobe Illustrator 27.1.1, SVG Export Plug-In . SVG Version: 6.00 Build 0)  -->
<svg version="1.1" id="Layer_1" xmlns="http://www.w3.org/2000/svg" xmlns:xlink="http://www.w3.org/1999/xlink" x="0px" y="0px"
	 viewBox="0 0 300 300" style="enable-background:new 0 0 300 300;" xml:space="preserve">
<style type="text/css">
	.st0{fill:#CCA054;}
	.st1{fill:none;stroke:#CCA054;stroke-width:2.202;stroke-miterlimit:10;}
	.st2{fill:#12284B;}
	.st3{fill:none;stroke:#12284B;stroke-width:2.202;stroke-miterlimit:10;}
</style>
<g>
	<path class="st0" d="M134.36,198.91c15.96,4.9,30.43,2.62,43.03-6.76c14.64-10.89,21.06-25.73,19.07-44.1
		c-1.14-10.56-5.65-19.82-13.4-27.53c-7.83-7.79-17.08-12.34-27.47-13.5l-1.08-0.12c0.01-0.11,0.02-0.22,0.03-0.33
		c-0.76,0.28-1.58,0.16-2.18,0.07c-0.18-0.02-0.35-0.05-0.5-0.06c-3.96-0.22-7.84,0.04-11.54,0.77c-4.25,0.84-8.24,2.21-11.89,4.07
		c-4.84,2.48-8.81,5.32-12.14,8.7c-0.73,0.74-1.71,1.13-2.62,1.03c-0.76-0.08-1.41-0.47-1.83-1.11c-0.37-0.58-1.05-2.1,0.74-3.79
		c5.19-4.92,10.58-8.49,16.45-10.93c6.28-2.61,13.06-3.96,20.7-4.14c1.15-0.1,1.79,0.21,2.15,0.65c0.07-0.03,0.14-0.07,0.21-0.1
		c0.41-0.2,0.91-0.45,1.52-0.4c3.89,0.31,8,1.21,12.94,2.83c9.11,3,17.03,8.48,23.57,16.28c3.92,4.68,6.62,9.37,8.28,14.32l0.6,1.78
		c0.94,2.75,1.91,5.6,2.4,8.52c0.9,5.4,0.99,10.71,0.26,15.78c-0.84,5.87-2.53,11.43-5.02,16.54c-2.9,5.93-6.98,11.28-12.14,15.92
		c-4.61,4.14-9.7,7.32-15.12,9.44c-8.45,3.31-17.05,4.49-25.55,3.52c-4.21-0.48-8.51-1.52-13.93-3.36
		c-0.99-0.33-1.69-0.98-1.97-1.81c-0.3-0.88-0.11-1.89,0.53-2.84c1.36-2.05,2.7-4.1,4.04-6.16c-2.87,0.61-5.73,1.22-8.6,1.83
		c-3.94,0.84-7.87,1.68-11.81,2.52c0.99,4.64,1.98,9.29,2.97,13.93c0.46,2.14,0.91,4.28,1.37,6.42c1.24-1.84,2.45-3.67,3.63-5.52
		c0.91-1.43,2.17-1.82,3.84-1.19c0.88,0.33,1.75,0.66,2.62,1c2.83,1.1,5.77,2.23,8.71,2.93c7.93,1.9,15.37,2.25,22.74,1.08
		c5.22-0.83,9.41-1.88,13.18-3.32c3.88-1.48,7.65-3.4,11.53-5.87c5.28-3.37,10.01-7.52,14.06-12.34c4.15-4.94,7.1-9.68,9.01-14.51
		c1.35-3.4,2.63-6.73,3.54-10.12c1.87-6.99,2.37-14.46,1.47-22.21c-0.67-5.83-2.16-11.48-4.42-16.8c-2.08-4.9-4.8-9.5-8.09-13.68
		c-3.22-4.1-6.54-7.49-10.13-10.36c-4.76-3.8-8.98-6.37-13.28-8.08l-1.19-0.48c-2.85-1.14-5.79-2.32-8.75-3.08
		c-3.91-1-7.92-1.48-10.97-1.8c-2.48-0.25-5.22-0.26-8.14-0.01c-4.16,0.35-7.28,0.8-10.12,1.46c-2.98,0.69-6.85,1.68-10.35,3.26
		c-3.59,1.63-7.32,3.71-11.39,6.38c-4.47,2.93-8.56,6.74-12.5,11.67c-3.97,4.96-6.62,9.33-8.34,13.73
		c-1.43,3.67-2.69,6.99-3.58,10.37c-1.84,7.01-2.3,14.49-1.36,22.21c0.66,5.44,2.13,10.96,4.37,16.43c0.62,1.52,1.39,3.04,2.14,4.51
		l0.33,0.66c0.77,1.53,0.35,2.93-1.09,3.68c-0.64,0.33-2.27,0.86-3.52-1.33c-2.26-3.95-4.03-8.27-5.42-13.23
		c-2.21-7.87-3.01-15.16-2.45-22.26c0.58-7.38,2.07-14.04,4.56-20.36c4.5-11.42,11.75-21.08,21.53-28.72
		c4.64-3.62,9.79-6.62,15.3-8.91c5.21-2.17,10.77-3.64,16.51-4.37c6.27-0.8,12.58-0.76,18.78,0.1c4.91,0.68,9.55,1.85,13.79,3.47
		c6.17,2.35,11.27,5.13,15.58,8.49l5.24,4.09c0.43,0.34,0.86,0.67,1.29,1.01c0.1-0.11,0.21-0.23,0.32-0.34l3.5-3.79
		c0.18-0.19,0.37-0.37,0.57-0.54l0.24-0.22c1.19-1.11,2.64-1.16,3.8-0.12c0.74,0.66,0.92,1.37,0.93,1.84
		c0.02,0.51-0.13,1.3-0.95,2.14c-1.28,1.31-2.58,2.6-3.9,3.91l-0.9,0.89l0.45,0.52c0.81,0.94,1.61,1.86,2.38,2.81
		c3.87,4.76,6.69,9.36,8.62,14.04l0.83,1.99c1.07,2.54,2.18,5.16,2.92,7.88c1,3.69,1.57,7.44,2.15,11.61
		c0.79,5.65,0.28,11.14-0.33,15.77c-0.87,6.64-2.84,13.26-5.85,19.66c-2.52,5.35-5.85,10.42-9.9,15.07
		c-4.52,5.19-9.84,9.68-15.82,13.35c-4.72,2.9-8.82,4.8-12.92,5.98l-1.7,0.5c-3.12,0.92-6.35,1.86-9.63,2.37
		c-5.02,0.77-11.65,1.5-18.44,0.26c-1.01-0.19-2.03-0.35-3.05-0.52c-2.13-0.35-4.33-0.71-6.48-1.25c-2.43-0.61-4.78-1.53-7.06-2.42
		l-0.64-0.25c-0.41-0.16-0.82-0.32-0.94-0.33c0.11,0.02-0.19,0.48-0.3,0.66c-1.86,2.86-3.71,5.73-5.58,8.58
		c-0.58,0.88-1.48,1.37-2.41,1.31c-0.93-0.06-1.76-0.67-2.21-1.62c-0.26-0.54-0.43-1.01-0.52-1.47c-0.77-3.57-1.53-7.15-2.26-10.73
		c-0.36-1.74-0.7-3.49-1.05-5.23c-0.3-1.53-0.61-3.06-0.92-4.59c-0.25-1.23-0.51-2.46-0.78-3.7c-0.26-1.23-0.52-2.46-0.77-3.69
		c-0.57-2.81,2.13-3.42,3.02-3.61c3.76-0.84,7.53-1.63,11.3-2.41c2.84-0.59,5.68-1.15,8.53-1.72l4.2-0.84
		c0.36-0.07,0.71-0.15,1.07-0.24c0.84-0.19,1.71-0.39,2.61-0.47c0.22-0.02,2.13-0.16,2.91,0.93c0.61,0.85,0.48,2.37-0.03,3.2
		c-1.17,1.93-2.41,3.82-3.65,5.71l-1.38,2.12C134.84,198.15,134.6,198.53,134.36,198.91L134.36,198.91z"/>
	<path class="st1" d="M134.36,198.91c15.96,4.9,30.43,2.62,43.03-6.76c14.64-10.89,21.06-25.73,19.07-44.1
		c-1.14-10.56-5.65-19.82-13.4-27.53c-7.83-7.79-17.08-12.34-27.47-13.5l-1.08-0.12c0.01-0.11,0.02-0.22,0.03-0.33
		c-0.76,0.28-1.58,0.16-2.18,0.07c-0.18-0.02-0.35-0.05-0.5-0.06c-3.96-0.22-7.84,0.04-11.54,0.77c-4.25,0.84-8.24,2.21-11.89,4.07
		c-4.84,2.48-8.81,5.32-12.14,8.7c-0.73,0.74-1.71,1.13-2.62,1.03c-0.76-0.08-1.41-0.47-1.83-1.11c-0.37-0.58-1.05-2.1,0.74-3.79
		c5.19-4.92,10.58-8.49,16.45-10.93c6.28-2.61,13.06-3.96,20.7-4.14c1.15-0.1,1.79,0.21,2.15,0.65c0.07-0.03,0.14-0.07,0.21-0.1
		c0.41-0.2,0.91-0.45,1.52-0.4c3.89,0.31,8,1.21,12.94,2.83c9.11,3,17.03,8.48,23.57,16.28c3.92,4.68,6.62,9.37,8.28,14.32l0.6,1.78
		c0.94,2.75,1.91,5.6,2.4,8.52c0.9,5.4,0.99,10.71,0.26,15.78c-0.84,5.87-2.53,11.43-5.02,16.54c-2.9,5.93-6.98,11.28-12.14,15.92
		c-4.61,4.14-9.7,7.32-15.12,9.44c-8.45,3.31-17.05,4.49-25.55,3.52c-4.21-0.48-8.51-1.52-13.93-3.36
		c-0.99-0.33-1.69-0.98-1.97-1.81c-0.3-0.88-0.11-1.89,0.53-2.84c1.36-2.05,2.7-4.1,4.04-6.16c-2.87,0.61-5.73,1.22-8.6,1.83
		c-3.94,0.84-7.87,1.68-11.81,2.52c0.99,4.64,1.98,9.29,2.97,13.93c0.46,2.14,0.91,4.28,1.37,6.42c1.24-1.84,2.45-3.67,3.63-5.52
		c0.91-1.43,2.17-1.82,3.84-1.19c0.88,0.33,1.75,0.66,2.62,1c2.83,1.1,5.77,2.23,8.71,2.93c7.93,1.9,15.37,2.25,22.74,1.08
		c5.22-0.83,9.41-1.88,13.18-3.32c3.88-1.48,7.65-3.4,11.53-5.87c5.28-3.37,10.01-7.52,14.06-12.34c4.15-4.94,7.1-9.68,9.01-14.51
		c1.35-3.4,2.63-6.73,3.54-10.12c1.87-6.99,2.37-14.46,1.47-22.21c-0.67-5.83-2.16-11.48-4.42-16.8c-2.08-4.9-4.8-9.5-8.09-13.68
		c-3.22-4.1-6.54-7.49-10.13-10.36c-4.76-3.8-8.98-6.37-13.28-8.08l-1.19-0.48c-2.85-1.14-5.79-2.32-8.75-3.08
		c-3.91-1-7.92-1.48-10.97-1.8c-2.48-0.25-5.22-0.26-8.14-0.01c-4.16,0.35-7.28,0.8-10.12,1.46c-2.98,0.69-6.85,1.68-10.35,3.26
		c-3.59,1.63-7.32,3.71-11.39,6.38c-4.47,2.93-8.56,6.74-12.5,11.67c-3.97,4.96-6.62,9.33-8.34,13.73
		c-1.43,3.67-2.69,6.99-3.58,10.37c-1.84,7.01-2.3,14.49-1.36,22.21c0.66,5.44,2.13,10.96,4.37,16.43c0.62,1.52,1.39,3.04,2.14,4.51
		l0.33,0.66c0.77,1.53,0.35,2.93-1.09,3.68c-0.64,0.33-2.27,0.86-3.52-1.33c-2.26-3.95-4.03-8.27-5.42-13.23
		c-2.21-7.87-3.01-15.16-2.45-22.26c0.58-7.38,2.07-14.04,4.56-20.36c4.5-11.42,11.75-21.08,21.53-28.72
		c4.64-3.62,9.79-6.62,15.3-8.91c5.21-2.17,10.77-3.64,16.51-4.37c6.27-0.8,12.58-0.76,18.78,0.1c4.91,0.68,9.55,1.85,13.79,3.47
		c6.17,2.35,11.27,5.13,15.58,8.49l5.24,4.09c0.43,0.34,0.86,0.67,1.29,1.01c0.1-0.11,0.21-0.23,0.32-0.34l3.5-3.79
		c0.18-0.19,0.37-0.37,0.57-0.54l0.24-0.22c1.19-1.11,2.64-1.16,3.8-0.12c0.74,0.66,0.92,1.37,0.93,1.84
		c0.02,0.51-0.13,1.3-0.95,2.14c-1.28,1.31-2.58,2.6-3.9,3.91l-0.9,0.89l0.45,0.52c0.81,0.94,1.61,1.86,2.38,2.81
		c3.87,4.76,6.69,9.36,8.62,14.04l0.83,1.99c1.07,2.54,2.18,5.16,2.92,7.88c1,3.69,1.57,7.44,2.15,11.61
		c0.79,5.65,0.28,11.14-0.33,15.77c-0.87,6.64-2.84,13.26-5.85,19.66c-2.52,5.35-5.85,10.42-9.9,15.07
		c-4.52,5.19-9.84,9.68-15.82,13.35c-4.72,2.9-8.82,4.8-12.92,5.98l-1.7,0.5c-3.12,0.92-6.35,1.86-9.63,2.37
		c-5.02,0.77-11.65,1.5-18.44,0.26c-1.01-0.19-2.03-0.35-3.05-0.52c-2.13-0.35-4.33-0.71-6.48-1.25c-2.43-0.61-4.78-1.53-7.06-2.42
		l-0.64-0.25c-0.41-0.16-0.82-0.32-0.94-0.33c0.11,0.02-0.19,0.48-0.3,0.66c-1.86,2.86-3.71,5.73-5.58,8.58
		c-0.58,0.88-1.48,1.37-2.41,1.31c-0.93-0.06-1.76-0.67-2.21-1.62c-0.26-0.54-0.43-1.01-0.52-1.47c-0.77-3.57-1.53-7.15-2.26-10.73
		c-0.36-1.74-0.7-3.49-1.05-5.23c-0.3-1.53-0.61-3.06-0.92-4.59c-0.25-1.23-0.51-2.46-0.78-3.7c-0.26-1.23-0.52-2.46-0.77-3.69
		c-0.57-2.81,2.13-3.42,3.02-3.61c3.76-0.84,7.53-1.63,11.3-2.41c2.84-0.59,5.68-1.15,8.53-1.72l4.2-0.84
		c0.36-0.07,0.71-0.15,1.07-0.24c0.84-0.19,1.71-0.39,2.61-0.47c0.22-0.02,2.13-0.16,2.91,0.93c0.61,0.85,0.48,2.37-0.03,3.2
		c-1.17,1.93-2.41,3.82-3.65,5.71l-1.38,2.12C134.84,198.15,134.6,198.53,134.36,198.91L134.36,198.91z"/>
	<path class="st2" d="M257.25,149.99c-0.12-1.19-0.23-2.45-0.34-3.76c-0.28-3.18-0.6-6.79-1.08-10.3
		c-0.49-3.56-1.21-8.24-2.43-12.83c-0.73-2.74-1.72-5.49-2.68-8.14c-0.55-1.51-1.09-3.02-1.6-4.55c-0.31-0.93-0.35-2-0.12-2.87
		c0.16-0.6,0.68-1,1.09-1.23c0.33-0.19,0.98-0.48,1.6-0.31c0.89,0.24,1.96,0.97,2.29,1.9l0.57,1.59c1.42,3.95,2.89,8.03,4.07,12.14
		c1.06,3.69,1.89,7.51,2.46,11.36c1.43,9.72,1.8,17.68,1.16,25.07c-0.4,4.65-0.85,8.48-1.4,12.05c-0.41,2.65-1.09,5.29-1.74,7.83
		l-0.21,0.83c-0.76,2.97-1.54,6.05-2.54,9.01c-1.11,3.28-2.23,6.13-3.45,8.71c-1.87,3.95-3.89,7.88-6.02,11.67
		c-1.33,2.37-2.87,4.65-4.36,6.85l-0.86,1.27c-0.23,0.34-0.26,0.45-0.27,0.49c0-0.02,0.02,0.07,0.21,0.3
		c2.65,3.14,4.13,6.86,4.28,10.74c0.25,6.52-2.15,11.8-7.13,15.69c-3.53,2.75-7.55,4.07-11.95,3.92c-4.15-0.14-7.93-1.61-11.25-4.38
		c-0.22-0.19-0.32-0.21-0.32-0.21c0.04,0-0.04,0.02-0.22,0.15c-4.78,3.52-9.87,6.59-15.13,9.11c-3.45,1.65-7.29,3.23-12.06,4.98
		c-4.19,1.53-8.02,2.73-11.7,3.66c-4.89,1.24-10.7,2.53-16.7,2.69c-1.73,0.04-3.45,0.11-5.18,0.19c-3.4,0.14-6.91,0.28-10.37,0.22
		c-2.76-0.05-5.52-0.44-8.19-0.82c-0.89-0.12-1.77-0.25-2.65-0.36l-0.65-0.08c-2.13-0.27-4.34-0.55-6.48-1.06
		c-3.86-0.91-7.63-1.93-11.21-3.02c-2.88-0.88-5.72-2-8.36-3.08c-0.8-0.33-1.39-0.88-1.66-1.56c-0.18-0.44-0.3-1.14,0.08-2
		c0.66-1.48,2.28-2.03,4.04-1.37l1.53,0.58c1.53,0.59,3.12,1.2,4.7,1.67c3.56,1.08,7.59,2.31,11.57,3.26
		c5.53,1.33,10.06,2,14.23,2.1l3.8,0.1c3.79,0.11,7.7,0.22,11.53,0.15c2.36-0.04,4.79-0.42,7.14-0.78l1.49-0.23
		c3-0.44,6.2-0.95,9.35-1.63c2.26-0.49,4.52-1.21,6.82-1.97l1.45-0.48c2.79-0.91,5.68-1.86,8.41-3c3.29-1.38,6.63-2.98,10.2-4.9
		c2.07-1.11,4.11-2.4,6.08-3.65c0.8-0.5,1.6-1.01,2.4-1.5l0.32-0.2c0.71-0.44,1.38-0.85,1.96-1.34c-2.2-3.56-3.11-7.38-2.7-11.38
		c0.59-5.72,3.25-10.27,7.91-13.51c3.6-2.51,7.66-3.61,12.08-3.27c2.79,0.21,5.49,1.1,8.01,2.65c0.05,0.03,0.09,0.06,0.13,0.08
		c0.98-1.6,1.88-3.05,2.78-4.5c1.91-3.08,3.89-6.26,5.6-9.49c1.99-3.75,3.57-7.85,4.99-11.72c1.57-4.3,2.76-8.15,3.62-11.79
		c0.86-3.63,1.55-7.68,2.11-12.4c0.34-2.82,0.51-5.74,0.69-8.82C257.05,153.07,257.14,151.57,257.25,149.99L257.25,149.99z
		 M227.47,244.09c4.02,0.05,7.81-1.49,10.68-4.34c2.92-2.9,4.51-6.78,4.48-10.9c-0.06-8.43-6.7-15.05-15.11-15.07
		c-8.52-0.02-15.24,6.63-15.28,15.14c-0.02,4.08,1.57,7.93,4.49,10.82C219.62,242.6,223.43,244.15,227.47,244.09L227.47,244.09z"/>
	<path class="st3" d="M257.25,149.99c-0.12-1.19-0.23-2.45-0.34-3.76c-0.28-3.18-0.6-6.79-1.08-10.3
		c-0.49-3.56-1.21-8.24-2.43-12.83c-0.73-2.74-1.72-5.49-2.68-8.14c-0.55-1.51-1.09-3.02-1.6-4.55c-0.31-0.93-0.35-2-0.12-2.87
		c0.16-0.6,0.68-1,1.09-1.23c0.33-0.19,0.98-0.48,1.6-0.31c0.89,0.24,1.96,0.97,2.29,1.9l0.57,1.59c1.42,3.95,2.89,8.03,4.07,12.14
		c1.06,3.69,1.89,7.51,2.46,11.36c1.43,9.72,1.8,17.68,1.16,25.07c-0.4,4.65-0.85,8.48-1.4,12.05c-0.41,2.65-1.09,5.29-1.74,7.83
		l-0.21,0.83c-0.76,2.97-1.54,6.05-2.54,9.01c-1.11,3.28-2.23,6.13-3.45,8.71c-1.87,3.95-3.89,7.88-6.02,11.67
		c-1.33,2.37-2.87,4.65-4.36,6.85l-0.86,1.27c-0.23,0.34-0.26,0.45-0.27,0.49c0-0.02,0.02,0.07,0.21,0.3
		c2.65,3.14,4.13,6.86,4.28,10.74c0.25,6.52-2.15,11.8-7.13,15.69c-3.53,2.75-7.55,4.07-11.95,3.92c-4.15-0.14-7.93-1.61-11.25-4.38
		c-0.22-0.19-0.32-0.21-0.32-0.21c0.04,0-0.04,0.02-0.22,0.15c-4.78,3.52-9.87,6.59-15.13,9.11c-3.45,1.65-7.29,3.23-12.06,4.98
		c-4.19,1.53-8.02,2.73-11.7,3.66c-4.89,1.24-10.7,2.53-16.7,2.69c-1.73,0.04-3.45,0.11-5.18,0.19c-3.4,0.14-6.91,0.28-10.37,0.22
		c-2.76-0.05-5.52-0.44-8.19-0.82c-0.89-0.12-1.77-0.25-2.65-0.36l-0.65-0.08c-2.13-0.27-4.34-0.55-6.48-1.06
		c-3.86-0.91-7.63-1.93-11.21-3.02c-2.88-0.88-5.72-2-8.36-3.08c-0.8-0.33-1.39-0.88-1.66-1.56c-0.18-0.44-0.3-1.14,0.08-2
		c0.66-1.48,2.28-2.03,4.04-1.37l1.53,0.58c1.53,0.59,3.12,1.2,4.7,1.67c3.56,1.08,7.59,2.31,11.57,3.26
		c5.53,1.33,10.06,2,14.23,2.1l3.8,0.1c3.79,0.11,7.7,0.22,11.53,0.15c2.36-0.04,4.79-0.42,7.14-0.78l1.49-0.23
		c3-0.44,6.2-0.95,9.35-1.63c2.26-0.49,4.52-1.21,6.82-1.97l1.45-0.48c2.79-0.91,5.68-1.86,8.41-3c3.29-1.38,6.63-2.98,10.2-4.9
		c2.07-1.11,4.11-2.4,6.08-3.65c0.8-0.5,1.6-1.01,2.4-1.5l0.32-0.2c0.71-0.44,1.38-0.85,1.96-1.34c-2.2-3.56-3.11-7.38-2.7-11.38
		c0.59-5.72,3.25-10.27,7.91-13.51c3.6-2.51,7.66-3.61,12.08-3.27c2.79,0.21,5.49,1.1,8.01,2.65c0.05,0.03,0.09,0.06,0.13,0.08
		c0.98-1.6,1.88-3.05,2.78-4.5c1.91-3.08,3.89-6.26,5.6-9.49c1.99-3.75,3.57-7.85,4.99-11.72c1.57-4.3,2.76-8.15,3.62-11.79
		c0.86-3.63,1.55-7.68,2.11-12.4c0.34-2.82,0.51-5.74,0.69-8.82C257.05,153.07,257.14,151.57,257.25,149.99L257.25,149.99z
		 M227.47,244.09c4.02,0.05,7.81-1.49,10.68-4.34c2.92-2.9,4.51-6.78,4.48-10.9c-0.06-8.43-6.7-15.05-15.11-15.07
		c-8.52-0.02-15.24,6.63-15.28,15.14c-0.02,4.08,1.57,7.93,4.49,10.82C219.62,242.6,223.43,244.15,227.47,244.09L227.47,244.09z"/>
	<path class="st2" d="M57.39,85.2c-0.28-0.53-0.58-1.06-0.87-1.59c-0.92-1.66-1.87-3.39-2.51-5.23c-0.64-1.87-0.92-4.18-0.81-6.68
		c0.23-5.03,2.39-9.33,6.41-12.78c3.72-3.19,8.1-4.58,13.39-4.24c3.84,0.25,7.4,1.74,10.59,4.43c0.09,0.08-0.04,0.07-0.11,0.1
		c0.01,0,0.07-0.03,0.23-0.13l2.04-1.34c2.37-1.57,4.82-3.19,7.36-4.59c3.69-2.03,7.65-4,12.11-6.01c3.13-1.41,6.41-2.66,9.73-3.72
		c3.37-1.07,6.95-2.02,10.97-2.9c10-2.21,20.54-2.95,31.32-2.2c5.42,0.38,10.82,1.15,16.52,2.36c5.17,1.1,10.28,2.62,15.62,4.64
		c0.91,0.34,1.82,0.68,2.73,1.01c0.89,0.32,1.57,0.9,1.92,1.65c0.29,0.62,0.32,1.3,0.09,1.93c-0.24,0.65-0.71,1.17-1.32,1.45
		c-0.74,0.34-1.66,0.34-2.58-0.01c-0.92-0.35-1.84-0.7-2.76-1.06c-2.35-0.92-4.77-1.86-7.2-2.56c-3.82-1.1-7.9-2.05-12.12-2.81
		c-9.87-1.79-18.86-2.19-27.48-1.23c-4.19,0.47-8.51,0.95-12.69,1.67c-2.89,0.5-5.72,1.37-8.1,2.16l-2.32,0.76
		c-3.82,1.25-7.78,2.53-11.47,4.17c-3.85,1.71-7.64,3.83-11.3,5.87l-2.52,1.4c-0.99,0.55-1.92,1.2-2.9,1.88
		c-0.76,0.53-1.53,1.07-2.32,1.55c-0.12,0.07-0.1-0.06-0.12-0.13c2.97,4.5,3.73,9.55,2.29,14.78c-1.61,5.86-5.47,10.08-11.14,12.2
		c-5.64,2.11-11.12,1.6-16.28-1.51c-0.14-0.09,0-0.12,0.06-0.17c-1.09,1.8-2.08,3.42-3.06,5.03c-1.64,2.68-3.33,5.46-4.89,8.24
		c-1.58,2.81-2.88,5.57-3.85,8.21c-1.5,4.06-3.43,9.43-4.99,15c-1.59,5.63-2.52,11.25-2.76,16.69l-0.16,3.14
		c-0.17,3.23-0.35,6.57-0.26,9.83c0.09,3.46,0.46,7.26,1.16,11.93c0.6,4.04,1.43,8.31,2.47,12.67c0.52,2.18,1.29,4.36,2.03,6.48
		l0.63,1.8c0.3,0.86,0.64,1.71,0.98,2.55c0.28,0.7,0.57,1.4,0.83,2.11c0.3,0.81,0.29,1.59-0.02,2.25c-0.21,0.44-0.65,1.03-1.6,1.36
		c-0.77,0.27-1.56,0.19-2.21-0.24c-0.51-0.34-0.92-0.87-1.14-1.51c-1.67-4.73-2.96-8.6-4.08-12.2c-0.78-2.51-1.44-5.08-1.96-7.66
		c-0.74-3.64-1.24-6.68-1.59-9.57c-0.91-7.51-1.11-13.67-0.62-19.38c0.34-3.96,0.88-7.96,1.4-11.82l0.34-2.56
		c0.76-5.67,2.36-11.73,4.92-18.51c1.77-4.69,3.92-9.44,6.59-14.54c1.66-3.18,3.56-6.23,5.4-9.19
		C56.05,87.38,56.73,86.29,57.39,85.2L57.39,85.2z M71.45,57.61c-8.73,0.14-15.31,6.72-15.29,15.3c0.01,8.76,6.6,15.38,15.33,15.39
		c8.49,0.01,15.2-6.68,15.29-15.22c0.09-8.57-6.63-15.37-15.3-15.47l-0.02,0L71.45,57.61L71.45,57.61z"/>
	<path class="st3" d="M57.39,85.2c-0.28-0.53-0.58-1.06-0.87-1.59c-0.92-1.66-1.87-3.39-2.51-5.23c-0.64-1.87-0.92-4.18-0.81-6.68
		c0.23-5.03,2.39-9.33,6.41-12.78c3.72-3.19,8.1-4.58,13.39-4.24c3.84,0.25,7.4,1.74,10.59,4.43c0.09,0.08-0.04,0.07-0.11,0.1
		c0.01,0,0.07-0.03,0.23-0.13l2.04-1.34c2.37-1.57,4.82-3.19,7.36-4.59c3.69-2.03,7.65-4,12.11-6.01c3.13-1.41,6.41-2.66,9.73-3.72
		c3.37-1.07,6.95-2.02,10.97-2.9c10-2.21,20.54-2.95,31.32-2.2c5.42,0.38,10.82,1.15,16.52,2.36c5.17,1.1,10.28,2.62,15.62,4.64
		c0.91,0.34,1.82,0.68,2.73,1.01c0.89,0.32,1.57,0.9,1.92,1.65c0.29,0.62,0.32,1.3,0.09,1.93c-0.24,0.65-0.71,1.17-1.32,1.45
		c-0.74,0.34-1.66,0.34-2.58-0.01c-0.92-0.35-1.84-0.7-2.76-1.06c-2.35-0.92-4.77-1.86-7.2-2.56c-3.82-1.1-7.9-2.05-12.12-2.81
		c-9.87-1.79-18.86-2.19-27.48-1.23c-4.19,0.47-8.51,0.95-12.69,1.67c-2.89,0.5-5.72,1.37-8.1,2.16l-2.32,0.76
		c-3.82,1.25-7.78,2.53-11.47,4.17c-3.85,1.71-7.64,3.83-11.3,5.87l-2.52,1.4c-0.99,0.55-1.92,1.2-2.9,1.88
		c-0.76,0.53-1.53,1.07-2.32,1.55c-0.12,0.07-0.1-0.06-0.12-0.13c2.97,4.5,3.73,9.55,2.29,14.78c-1.61,5.86-5.47,10.08-11.14,12.2
		c-5.64,2.11-11.12,1.6-16.28-1.51c-0.14-0.09,0-0.12,0.06-0.17c-1.09,1.8-2.08,3.42-3.06,5.03c-1.64,2.68-3.33,5.46-4.89,8.24
		c-1.58,2.81-2.88,5.57-3.85,8.21c-1.5,4.06-3.43,9.43-4.99,15c-1.59,5.63-2.52,11.25-2.76,16.69l-0.16,3.14
		c-0.17,3.23-0.35,6.57-0.26,9.83c0.09,3.46,0.46,7.26,1.16,11.93c0.6,4.04,1.43,8.31,2.47,12.67c0.52,2.18,1.29,4.36,2.03,6.48
		l0.63,1.8c0.3,0.86,0.64,1.71,0.98,2.55c0.28,0.7,0.57,1.4,0.83,2.11c0.3,0.81,0.29,1.59-0.02,2.25c-0.21,0.44-0.65,1.03-1.6,1.36
		c-0.77,0.27-1.56,0.19-2.21-0.24c-0.51-0.34-0.92-0.87-1.14-1.51c-1.67-4.73-2.96-8.6-4.08-12.2c-0.78-2.51-1.44-5.08-1.96-7.66
		c-0.74-3.64-1.24-6.68-1.59-9.57c-0.91-7.51-1.11-13.67-0.62-19.38c0.34-3.96,0.88-7.96,1.4-11.82l0.34-2.56
		c0.76-5.67,2.36-11.73,4.92-18.51c1.77-4.69,3.92-9.44,6.59-14.54c1.66-3.18,3.56-6.23,5.4-9.19
		C56.05,87.38,56.73,86.29,57.39,85.2L57.39,85.2z M71.45,57.61c-8.73,0.14-15.31,6.72-15.29,15.3c0.01,8.76,6.6,15.38,15.33,15.39
		c8.49,0.01,15.2-6.68,15.29-15.22c0.09-8.57-6.63-15.37-15.3-15.47l-0.02,0L71.45,57.61L71.45,57.61z"/>
	<path class="st0" d="M149.58,68.49l2.37-0.01c1.83-0.01,3.66-0.02,5.49,0.03c3.04,0.09,5.64,2.07,6.45,4.94
		c0.58,2.06,0.19,4.2-1.07,5.89c-1.3,1.73-3.34,2.78-5.48,2.8c-5.28,0.05-10.55,0.05-15.83,0c-2.69-0.03-5.76-2.13-6.43-4.4
		c-1.03-3.44,0.01-6.47,2.79-8.11c1.05-0.62,2.44-1.01,3.81-1.08c1.9-0.1,3.82-0.08,5.67-0.06
		C148.1,68.48,148.84,68.48,149.58,68.49L149.58,68.49z M149.52,78.77l2.26,0c1.78,0,3.55,0.01,5.33-0.01
		c1.57-0.01,2.46-0.59,2.92-1.07c0.6-0.62,0.91-1.48,0.88-2.49c-0.05-2.06-1.52-3.35-3.82-3.35c-5.1-0.01-10.2-0.01-15.3,0
		c-0.42,0-0.95,0-1.48,0.16c-1.57,0.48-2.53,2.06-2.27,3.77c0.29,1.88,1.53,2.94,3.48,2.97c1.82,0.03,3.65,0.02,5.47,0.02
		L149.52,78.77L149.52,78.77L149.52,78.77z"/>
	<path class="st1" d="M149.58,68.49l2.37-0.01c1.83-0.01,3.66-0.02,5.49,0.03c3.04,0.09,5.64,2.07,6.45,4.94
		c0.58,2.06,0.19,4.2-1.07,5.89c-1.3,1.73-3.34,2.78-5.48,2.8c-5.28,0.05-10.55,0.05-15.83,0c-2.69-0.03-5.76-2.13-6.43-4.4
		c-1.03-3.44,0.01-6.47,2.79-8.11c1.05-0.62,2.44-1.01,3.81-1.08c1.9-0.1,3.82-0.08,5.67-0.06
		C148.1,68.48,148.84,68.48,149.58,68.49L149.58,68.49z M149.52,78.77l2.26,0c1.78,0,3.55,0.01,5.33-0.01
		c1.57-0.01,2.46-0.59,2.92-1.07c0.6-0.62,0.91-1.48,0.88-2.49c-0.05-2.06-1.52-3.35-3.82-3.35c-5.1-0.01-10.2-0.01-15.3,0
		c-0.42,0-0.95,0-1.48,0.16c-1.57,0.48-2.53,2.06-2.27,3.77c0.29,1.88,1.53,2.94,3.48,2.97c1.82,0.03,3.65,0.02,5.47,0.02
		L149.52,78.77L149.52,78.77L149.52,78.77z"/>
	<path class="st0" d="M152.12,151.35c1.09,0,2.17,0,3.26,0h10.14l1.48,0c0.9,0,1.79,0.01,2.69,0c0.94-0.01,1.77,0.32,2.26,0.91
		c0.41,0.48,0.57,1.1,0.46,1.75c-0.15,0.88-0.86,1.5-1.43,1.99c-0.15,0.13-0.29,0.25-0.42,0.38c-0.45,0.44-1.03,0.38-1.31,0.34
		l-4.71-0.01l-14.59,0c-2.19,0-3.17-0.98-3.17-3.18v-8.25l-0.01-20.87c0-0.6,0-2.41,1.89-2.8c2.12-0.43,2.93,0.72,3.22,1.45
		c0.22,0.55,0.22,1.13,0.22,1.59l0.01,21.91v4.31C152.12,151.03,152.12,151.19,152.12,151.35L152.12,151.35z"/>
	<path class="st1" d="M152.12,151.35c1.09,0,2.17,0,3.26,0h10.14l1.48,0c0.9,0,1.79,0.01,2.69,0c0.94-0.01,1.77,0.32,2.26,0.91
		c0.41,0.48,0.57,1.1,0.46,1.75c-0.15,0.88-0.86,1.5-1.43,1.99c-0.15,0.13-0.29,0.25-0.42,0.38c-0.45,0.44-1.03,0.38-1.31,0.34
		l-4.71-0.01l-14.59,0c-2.19,0-3.17-0.98-3.17-3.18v-8.25l-0.01-20.87c0-0.6,0-2.41,1.89-2.8c2.12-0.43,2.93,0.72,3.22,1.45
		c0.22,0.55,0.22,1.13,0.22,1.59l0.01,21.91v4.31C152.12,151.03,152.12,151.19,152.12,151.35L152.12,151.35z"/>
	<path class="st0" d="M110.84,126.01l-0.44,0.75c-0.28,0.47-0.53,0.9-0.77,1.34c-1.28,2.37-2.56,4.74-3.81,7.12
		c-0.32,0.61-1.3,2.46-3.38,1.6c-0.74-0.31-1.29-0.85-1.53-1.54c-0.26-0.73-0.16-1.58,0.27-2.38c1.43-2.64,3.15-5.75,4.95-8.74
		c0.56-0.93,2.03-1.09,2.83-0.97c0.72,0.11,1.13,0.68,1.46,1.14c0.09,0.13,0.19,0.27,0.29,0.39l0.52,0.59L110.84,126.01
		L110.84,126.01z"/>
	<path class="st1" d="M110.84,126.01l-0.44,0.75c-0.28,0.47-0.53,0.9-0.77,1.34c-1.28,2.37-2.56,4.74-3.81,7.12
		c-0.32,0.61-1.3,2.46-3.38,1.6c-0.74-0.31-1.29-0.85-1.53-1.54c-0.26-0.73-0.16-1.58,0.27-2.38c1.43-2.64,3.15-5.75,4.95-8.74
		c0.56-0.93,2.03-1.09,2.83-0.97c0.72,0.11,1.13,0.68,1.46,1.14c0.09,0.13,0.19,0.27,0.29,0.39l0.52,0.59L110.84,126.01
		L110.84,126.01z"/>
	<path class="st2" d="M96.53,153.26l0.35-2.65c0.3-2.3,0.6-4.59,0.92-6.88c0.23-1.65,1.42-2.63,2.97-2.45
		c0.63,0.07,1.18,0.38,1.57,0.88c0.51,0.65,0.72,1.58,0.59,2.62l-0.06,0.44c-0.35,2.76-0.71,5.61-0.92,8.41
		c-0.05,0.72-0.2,2.65-2.35,2.95c-0.6,0.08-1.22-0.1-1.74-0.5c-0.72-0.56-1.22-1.52-1.33-2.54l-0.01-0.13L96.53,153.26L96.53,153.26
		z"/>
	<path class="st3" d="M96.53,153.26l0.35-2.65c0.3-2.3,0.6-4.59,0.92-6.88c0.23-1.65,1.42-2.63,2.97-2.45
		c0.63,0.07,1.18,0.38,1.57,0.88c0.51,0.65,0.72,1.58,0.59,2.62l-0.06,0.44c-0.35,2.76-0.71,5.61-0.92,8.41
		c-0.05,0.72-0.2,2.65-2.35,2.95c-0.6,0.08-1.22-0.1-1.74-0.5c-0.72-0.56-1.22-1.52-1.33-2.54l-0.01-0.13L96.53,153.26L96.53,153.26
		z"/>
	<path class="st2" d="M237.79,89.66c0-1.06,0.3-1.9,0.88-2.49c0.59-0.59,1.43-0.9,2.49-0.9c1.99,0,3.51,1.43,3.54,3.34
		c0.01,0.87-0.37,1.76-1.06,2.46c-0.69,0.7-1.58,1.1-2.45,1.1C239.28,93.17,237.79,91.63,237.79,89.66L237.79,89.66L237.79,89.66z"
		/>
	<path class="st3" d="M237.79,89.66c0-1.06,0.3-1.9,0.88-2.49c0.59-0.59,1.43-0.9,2.49-0.9c1.99,0,3.51,1.43,3.54,3.34
		c0.01,0.87-0.37,1.76-1.06,2.46c-0.69,0.7-1.58,1.1-2.45,1.1C239.28,93.17,237.79,91.63,237.79,89.66L237.79,89.66L237.79,89.66z"
		/>
	<path class="st2" d="M210.66,62.58c-2-0.02-3.46-1.43-3.47-3.37c-0.01-1.76,1.72-3.51,3.49-3.54c0.89-0.01,1.73,0.33,2.36,0.95
		c0.69,0.68,1.07,1.63,1.07,2.67c0,1.03-0.3,1.85-0.87,2.42C212.63,62.29,211.77,62.59,210.66,62.58L210.66,62.58L210.66,62.58z"/>
	<path class="st3" d="M210.66,62.58c-2-0.02-3.46-1.43-3.47-3.37c-0.01-1.76,1.72-3.51,3.49-3.54c0.89-0.01,1.73,0.33,2.36,0.95
		c0.69,0.68,1.07,1.63,1.07,2.67c0,1.03-0.3,1.85-0.87,2.42C212.63,62.29,211.77,62.59,210.66,62.58L210.66,62.58L210.66,62.58z"/>
	<path class="st2" d="M227.44,76.44c-1.82,0-3.49-1.65-3.51-3.47c-0.01-0.89,0.37-1.77,1.03-2.43c0.67-0.67,1.57-1.05,2.48-1.05
		c0.91,0.01,1.82,0.41,2.51,1.11c0.65,0.67,1.02,1.54,1,2.38C230.92,74.79,229.25,76.44,227.44,76.44L227.44,76.44L227.44,76.44z"/>
	<path class="st3" d="M227.44,76.44c-1.82,0-3.49-1.65-3.51-3.47c-0.01-0.89,0.37-1.77,1.03-2.43c0.67-0.67,1.57-1.05,2.48-1.05
		c0.91,0.01,1.82,0.41,2.51,1.11c0.65,0.67,1.02,1.54,1,2.38C230.92,74.79,229.25,76.44,227.44,76.44L227.44,76.44L227.44,76.44z"/>
	<path class="st2" d="M57.76,215.56c-0.9,0-1.76-0.34-2.42-0.96c-0.67-0.63-1.06-1.49-1.06-2.36c0-0.81,0.42-1.67,1.15-2.38
		c0.73-0.7,1.61-1.08,2.4-1.05c1.74,0.07,3.26,1.66,3.27,3.4c0,0.94-0.33,1.79-0.94,2.4C59.55,215.22,58.7,215.56,57.76,215.56
		L57.76,215.56L57.76,215.56z"/>
	<path class="st3" d="M57.76,215.56c-0.9,0-1.76-0.34-2.42-0.96c-0.67-0.63-1.06-1.49-1.06-2.36c0-0.81,0.42-1.67,1.15-2.38
		c0.73-0.7,1.61-1.08,2.4-1.05c1.74,0.07,3.26,1.66,3.27,3.4c0,0.94-0.33,1.79-0.94,2.4C59.55,215.22,58.7,215.56,57.76,215.56
		L57.76,215.56L57.76,215.56z"/>
	<path class="st2" d="M71.48,232.31c-0.94,0.01-1.81-0.35-2.45-1c-0.63-0.64-0.96-1.51-0.93-2.43c0.05-1.88,1.44-3.26,3.3-3.29
		c0.96-0.01,1.83,0.32,2.44,0.93c0.62,0.62,0.96,1.5,0.94,2.48C74.75,230.91,73.36,232.3,71.48,232.31L71.48,232.31L71.48,232.31z"
		/>
	<path class="st3" d="M71.48,232.31c-0.94,0.01-1.81-0.35-2.45-1c-0.63-0.64-0.96-1.51-0.93-2.43c0.05-1.88,1.44-3.26,3.3-3.29
		c0.96-0.01,1.83,0.32,2.44,0.93c0.62,0.62,0.96,1.5,0.94,2.48C74.75,230.91,73.36,232.3,71.48,232.31L71.48,232.31L71.48,232.31z"
		/>
	<path class="st2" d="M85.86,244.19c0.15-0.52,0.31-1.03,0.46-1.55c-0.01,0-0.01,0-0.02,0h-2.19l1.3-1.76
		c0.57-0.76,1.15-1.55,2.07-1.63c0.89-0.08,1.56,0.55,2.16,1.11l0.05,0.05c0.75,0.06,1.31,0.35,1.66,0.85
		c0.66,0.95,0.16,2.16,0,2.56c-0.4,0.97-1.14,1.72-2.03,2.07c-0.78,0.3-1.63,0.28-2.37-0.08c-0.23-0.11-0.44-0.25-0.58-0.35
		l-0.66-0.45L85.86,244.19L85.86,244.19z"/>
	<path class="st3" d="M85.86,244.19c0.15-0.52,0.31-1.03,0.46-1.55c-0.01,0-0.01,0-0.02,0h-2.19l1.3-1.76
		c0.57-0.76,1.15-1.55,2.07-1.63c0.89-0.08,1.56,0.55,2.16,1.11l0.05,0.05c0.75,0.06,1.31,0.35,1.66,0.85
		c0.66,0.95,0.16,2.16,0,2.56c-0.4,0.97-1.14,1.72-2.03,2.07c-0.78,0.3-1.63,0.28-2.37-0.08c-0.23-0.11-0.44-0.25-0.58-0.35
		l-0.66-0.45L85.86,244.19L85.86,244.19z"/>
</g>
</svg>
