<?xml version="1.0" encoding="utf-8"?>
<!-- Generator: Adobe Illustrator 27.1.1, SVG Export Plug-In . SVG Version: 6.00 Build 0)  -->
<svg version="1.1" id="Layer_1" xmlns="http://www.w3.org/2000/svg" xmlns:xlink="http://www.w3.org/1999/xlink" x="0px" y="0px"
	 viewBox="0 0 300 300" style="enable-background:new 0 0 300 300;" xml:space="preserve">
<style type="text/css">
	.st0{fill:#12284B;}
	.st1{fill:#CCA054;}
</style>
<g>
	<path class="st0" d="M228.96,199c-3.3,0-6.61,0-9.91,0c-0.44,0-0.87,0.01-1.31-0.04c-1.53-0.15-2.63-1.45-2.59-3.03
		c0.04-1.48,1.23-2.74,2.69-2.84c0.4-0.02,0.8-0.02,1.2-0.02c6.28,0,12.56,0.09,18.84-0.02c9.29-0.17,17.66-3.15,24.99-9.02
		c4.67-3.73,8.39-8.28,11.11-13.65c2.32-4.58,3.77-9.43,4.39-14.56c0.92-7.65-0.14-15-3.15-22.02c-3.93-9.19-10.3-16.1-19.05-20.73
		c-3.28-1.73-6.72-2.96-10.32-3.76c-2.03-0.45-2.6-1.19-2.88-3.31c-0.65-5.03-2.1-9.82-4.4-14.33c-3.96-7.76-9.72-13.69-17.32-17.73
		c-4.9-2.6-10.12-4.02-15.64-4.32c-8.23-0.45-15.82,1.6-22.81,6.01c-0.68,0.43-1.37,0.86-1.98,1.37c-1.83,1.54-3.98,0.92-5.02-1.24
		c-1.76-3.67-3.96-7.07-6.48-10.24c-8.9-11.18-20.2-18.45-34.03-21.47c-8.51-1.86-17.02-1.68-25.47,0.44
		c-10.69,2.68-19.9,8.06-27.67,16.01c-7.22,7.38-12.28,16.08-15.26,26.04c-1.24,4.15-2.1,8.39-2.41,12.72
		c-0.14,2.03-0.25,4.06-0.34,6.09c-0.08,1.94-1.06,2.93-3,3.04c-12.74,0.72-23.23,6.03-31.18,16.24c-5.1,6.54-7.95,14.05-8.63,22.41
		c-0.84,10.25,1.56,19.65,7.33,28.06c5.19,7.57,12.14,12.85,20.76,15.79c4.41,1.5,8.94,2.21,13.58,2.2c5.99-0.01,11.98,0,17.97,0
		c0.4,0,0.8-0.01,1.2,0.01c1.59,0.08,2.73,1.24,2.77,2.83c0.05,1.65-1.05,2.91-2.67,3.06c-0.32,0.03-0.65,0.02-0.98,0.02
		c-6.03,0-12.05-0.02-18.08,0c-8.8,0.03-17.02-2.14-24.61-6.7c-6.07-3.65-11.06-8.48-15.04-14.4c-3.75-5.58-6.22-11.7-7.39-18.35
		c-1.77-10.09-0.64-19.84,3.67-29.13c4.43-9.55,11.32-16.76,20.42-21.77c5.33-2.93,11.03-4.7,17.06-5.37
		c0.18-0.02,0.36-0.05,0.54-0.08c0.95-0.17,1.01-0.2,1.05-1.2c0.11-2.89,0.41-5.75,0.89-8.6C61.63,82.66,65.6,72.82,71.94,64
		c6.27-8.72,14.11-15.57,23.61-20.41c6.36-3.24,13.08-5.28,20.13-6.17c2.41-0.3,4.85-0.49,7.27-0.47
		c10.39,0.09,20.31,2.34,29.55,7.28c5.4,2.88,10.32,6.45,14.74,10.75c4.66,4.53,8.62,9.6,11.85,15.27c0.48,0.84,0.59,0.87,1.45,0.33
		c3.38-2.13,6.98-3.8,10.77-5c3.13-0.99,6.32-1.62,9.6-1.83c9.36-0.59,18,1.74,25.92,6.77c6.89,4.37,12.23,10.29,16.11,17.56
		c2.49,4.66,4.2,9.59,5.07,14.81c0.15,0.9,0.53,1.32,1.39,1.56c6.36,1.72,12.16,4.64,17.29,8.87c9.91,8.16,15.83,18.66,17.41,31.59
		c1.25,10.26-0.53,20.01-5.46,29.05c-6.03,11.05-14.97,18.61-26.74,22.65c-4.9,1.68-9.94,2.41-15.09,2.4
		C234.19,198.99,231.57,198.99,228.96,199C228.96,198.99,228.96,199,228.96,199L228.96,199z"/>
	<path class="st1" d="M93.53,187.26c0-24.77,0-49.54,0-74.32c0-0.87,0.06-1.69,0.69-2.38c0.54-0.6,1.18-0.99,1.99-1.01
		c0.73-0.02,1.45-0.02,2.18-0.02c22.58,0,45.16,0,67.74,0c0.25,0,0.51,0.02,0.76,0c1.21-0.1,2.16,0.37,3,1.25
		c2.53,2.65,5.11,5.26,7.68,7.88c8.34,8.51,16.69,17.02,25.03,25.53c0.92,0.94,1.82,1.91,2.74,2.86c0.67,0.69,1.03,1.48,1.01,2.48
		c-0.04,1.37,0,2.74,0,4.11c0,35.69,0,71.39,0,107.08c0,0.41,0.01,0.82-0.01,1.22c-0.07,1.58-0.95,2.63-2.47,2.92
		c-0.35,0.07-0.72,0.07-1.08,0.07c-35.22,0-70.43,0-105.65-0.01c-0.5,0-1.02-0.03-1.51-0.16c-1.26-0.33-2.03-1.34-2.08-2.65
		c-0.03-0.78,0-1.55,0-2.33C93.54,235.61,93.54,211.43,93.53,187.26C93.54,187.26,93.53,187.26,93.53,187.26L93.53,187.26z
		 M99.33,187.24c0,23.07,0,46.14,0,69.2c0,0.48-0.01,0.96,0,1.44c0.02,1.1,0.08,1.16,1.2,1.18c0.11,0,0.22,0,0.33,0
		c32.64,0,65.27,0,97.91,0c1.79,0,1.79,0,1.79-1.82c0-34.4,0-68.8,0-103.2c0-0.33-0.01-0.67-0.01-1c0-0.49-0.22-0.77-0.72-0.76
		c-0.22,0-0.44,0-0.65,0c-9.95,0-19.89,0-29.84,0c-0.65,0-1.31,0.03-1.96-0.02c-1.63-0.11-2.74-1.29-2.82-2.95
		c-0.01-0.33-0.01-0.67-0.01-1c0-10.44,0-20.88,0-31.33c0-1.55-0.04-1.57-1.5-1.57c-20.62,0-41.24,0-61.86,0
		c-2.02,0-1.86-0.17-1.86,1.95C99.33,140.65,99.33,163.94,99.33,187.24L99.33,187.24z M195.83,146.27c0.04-0.1,0.09-0.19,0.13-0.29
		c-0.22-0.27-0.43-0.56-0.67-0.82c-2.45-2.52-4.9-5.05-7.36-7.56c-3.59-3.67-7.18-7.33-10.77-11c-1.9-1.94-3.79-3.88-5.7-5.81
		c-0.26-0.26-0.47-0.69-1.12-0.48c0,0.48,0,0.99,0,1.49c0,7.66,0,15.32,0,22.99c0,0.3,0.01,0.59,0.01,0.89
		c0.01,0.4,0.23,0.61,0.6,0.65c0.25,0.03,0.51,0.04,0.76,0.04c7.66,0,15.31,0,22.97,0C195.06,146.37,195.45,146.3,195.83,146.27
		L195.83,146.27z"/>
	<path class="st0" d="M114.1,191.07c0-1.74,0-3.43,0-5.13c0-0.35,0.19-0.55,0.54-0.57c0.29-0.02,0.58-0.02,0.87-0.02
		c22.9,0,45.79,0,68.69,0c0.43,0,0.85,0,1.38,0c0.17,2,0.12,3.85,0.05,5.67C184.71,191.3,115.34,191.35,114.1,191.07L114.1,191.07z"
		/>
	<path class="st1" d="M114.17,175c0-1.97,0-3.76,0-5.53c0.89-0.26,70.22-0.29,71.36-0.04c0.04,0.18,0.13,0.39,0.14,0.6
		c0.01,1.37,0.03,2.74,0,4.11c-0.01,0.8-0.12,0.89-0.88,0.94c-0.25,0.02-0.51,0.01-0.76,0.01c-22.79,0-45.57,0-68.35,0
		C115.21,175.07,114.74,175.03,114.17,175L114.17,175z"/>
	<path class="st0" d="M161.15,207.24c-1.02,0.27-46.02,0.26-47-0.01c-0.02-0.29-0.05-0.62-0.06-0.94c-0.01-1.3-0.02-2.59-0.01-3.89
		c0.01-0.75,0.09-0.81,0.81-0.85c0.18-0.01,0.36,0,0.54,0c14.76,0,29.53,0,44.3,0c1.47,0,1.47,0,1.46,1.52c0,1.04,0,2.07-0.01,3.11
		C161.2,206.55,161.17,206.91,161.15,207.24L161.15,207.24z"/>
</g>
</svg>
