<?xml version="1.0" encoding="utf-8"?>
<!-- Generator: Adobe Illustrator 27.1.1, SVG Export Plug-In . SVG Version: 6.00 Build 0)  -->
<svg version="1.1" id="Layer_1" xmlns="http://www.w3.org/2000/svg" xmlns:xlink="http://www.w3.org/1999/xlink" x="0px" y="0px"
	 viewBox="0 0 300 300" style="enable-background:new 0 0 300 300;" xml:space="preserve">
<style type="text/css">
	.st0{fill:#12284B;}
	.st1{fill:#CCA054;}
</style>
<g>
	<path class="st0" d="M107.19,201.76c-0.79,0-1.38,0-1.96,0c-13.69,0-27.38-0.07-41.06,0.05c-3.53,0.03-7.83-3.93-7.8-7.75
		c0.15-19.63,0.13-39.27,0.01-58.91c-0.02-3.71,3.79-7.82,7.84-7.8c13.74,0.05,27.48,0.02,41.21,0.02c0.5,0,0.99,0,1.67,0
		c0.03-0.69,0.09-1.31,0.09-1.94c0.01-13.54,0-27.08,0.01-40.62c0.01-5.71,2.14-10.47,6.65-14.02c2.98-2.34,6.47-3.39,10.26-3.4
		c23.73-0.01,47.46,0.03,71.19-0.04c5.68-0.02,10.49,1.65,14.23,6.06c2.67,3.15,3.94,6.82,3.95,10.87
		c0.04,20.64,0.02,41.27,0.02,61.9c0,33.73,0,67.45,0.01,101.18c0,6.44-2.58,11.52-7.93,15.09c-2.79,1.86-5.98,2.48-9.3,2.48
		c-23.98,0-47.96,0-71.93,0.01c-5.55,0-10.07-2.14-13.54-6.43c-2.51-3.09-3.57-6.75-3.59-10.67c-0.04-14.69-0.02-29.38-0.02-44.07
		C107.19,203.19,107.19,202.59,107.19,201.76L107.19,201.76z M120.02,201.81c0,0.64,0,1.17,0,1.71c0,8.04,0,16.08,0,24.13
		c0,1.94,0,1.95,1.94,1.95c25.67,0,51.34,0,77.02,0c0.49,0,0.97-0.04,1.59-0.07c0-43.26,0-86.43,0-129.59c-26.92,0-53.7,0-80.44,0
		c0,9.2,0,18.26,0,27.36c12.97,0,25.83,0,38.87,0c0-3.19,0-6.3,0-9.41c1.5,0.08,2.82,0.15,4.19,0.23c0,0.58,0,1.02,0,1.47
		c0.01,25.33,0.01,50.65,0.02,75.98c0,4.8,0,9.59-0.02,14.39c0,0.59,0.25,1.4-0.82,1.4c-1.09-0.01-2.17,0-3.43,0
		c0-3.26,0-6.38,0-9.53C145.89,201.81,133.02,201.81,120.02,201.81L120.02,201.81z M60.92,156.85c-0.05,0.61-0.12,1.15-0.12,1.68
		c-0.01,11.34-0.01,22.68,0,34.02c0,0.69,0.07,1.39,0.18,2.08c0.25,1.56,1.29,2.49,2.83,2.56c1.35,0.06,2.69,0.1,4.04,0.1
		c29.82,0,59.64,0,89.46,0c0.52,0,1.05-0.05,1.57-0.07c0-3.87,0-7.56,0-11.25c-6.22,1.18-11.07-2.28-12.06-8.13
		c-0.38-2.25,0.29-4.39,1.49-6.2c2.49-3.75,6.3-4.64,10.54-4.02c0-3.75,0-7.23,0-10.76C126.23,156.85,93.68,156.85,60.92,156.85
		L60.92,156.85z M200.64,233.96c-26.98,0-53.77,0-80.62,0c0,4.88-0.02,9.62,0.01,14.36c0.01,1.29,0.49,2.5,1.69,3.06
		c0.93,0.43,2.02,0.69,3.04,0.69c22.53,0.04,45.06,0.02,67.59,0.04c1.55,0,3.1,0.16,4.65,0.28c1.56,0.12,3.61-1.72,3.62-3.3
		c0.01-2.07,0.01-4.13,0.01-6.2C200.64,239.95,200.64,237.01,200.64,233.96L200.64,233.96z M60.86,144.04c32.75,0,65.39,0,97.99,0
		c0-4.19,0-8.26,0-12.44c-0.64,0-1.18,0-1.72,0c-30.62,0-61.25,0-91.87,0c-0.2,0-0.4,0-0.6,0c-1.93,0.05-3.68,1.47-3.76,3.37
		C60.77,137.96,60.86,140.95,60.86,144.04L60.86,144.04z M200.63,95.49c0-0.63,0-1.16,0-1.68c0-3,0-5.99,0-8.99
		c-0.01-3.28-1.31-4.59-4.53-4.58c-12.08,0-24.16,0-36.24,0c-11.73,0-23.46,0-35.19,0c-3.27,0-4.65,1.39-4.66,4.64
		c0,3.1,0.03,6.19-0.02,9.29c-0.02,1.04,0.27,1.36,1.36,1.33c3.39-0.08,6.79-0.02,10.18-0.01c15.03,0,30.05,0,45.08,0
		C184.54,95.49,192.47,95.49,200.63,95.49L200.63,95.49z M158.95,176.71c0-1.15,0.04-2.3-0.03-3.44c-0.02-0.38-0.24-0.93-0.54-1.1
		c-1.97-1.06-5.68,0.05-6.55,2.04c-1.6,3.68,0.11,6.88,4.05,7.69c1.79,0.37,3.07-0.85,3.07-2.65
		C158.95,178.4,158.95,177.56,158.95,176.71L158.95,176.71z"/>
	<path class="st1" d="M243.42,75.89c-0.24,0.05-0.38,0.09-0.53,0.1c-3.71,0.15-3.78,0.08-3.89-3.64c-0.11-3.96-1.38-7.62-3.03-11.16
		c-2.58-5.53-6.36-10.11-11.34-13.64c-4.31-3.06-9.01-5.21-14.3-5.91c-1.67-0.22-3.34-0.48-5.02-0.61
		c-0.84-0.07-1.14-0.36-1.09-1.19c0.05-0.94,0.01-1.88,0.01-2.82C222.36,35.67,243.85,52.44,243.42,75.89L243.42,75.89z"/>
	<path class="st1" d="M204.28,50.59c-0.02-0.38-0.05-0.66-0.05-0.95c0.08-3.95-0.61-3.2,3.25-2.87c5.87,0.5,11.1,2.81,15.61,6.6
		c3.42,2.87,6.08,6.34,7.93,10.49c1.72,3.86,2.82,7.77,2.55,12.04c-1.36,0-2.66,0-4.09,0c-0.12-6.98-2.61-12.89-7.48-17.78
		C217.14,53.24,211.09,51.1,204.28,50.59L204.28,50.59z"/>
	<path class="st1" d="M204.23,60.41c0-0.75,0-1.4,0-2.04c0-2.18,0.18-2.28,2.29-1.95c3.9,0.61,7.47,1.96,10.46,4.59
		c3.93,3.45,6.45,7.66,6.75,13.01c0.03,0.59,0.11,1.18,0.2,2c-1.22,0-2.38,0.06-3.54-0.05c-0.24-0.02-0.57-0.6-0.62-0.96
		c-0.38-2.5-0.94-4.9-2.34-7.08c-2.97-4.6-7.18-7.04-12.61-7.43C204.67,60.51,204.53,60.47,204.23,60.41L204.23,60.41z"/>
	<path class="st1" d="M71.3,174.64c-0.06-0.08-0.11-0.12-0.11-0.16c-0.33-3.96-0.33-3.96,3.64-3.96c5.58,0,11.17,0,16.75,0
		c0.53,0,1.07,0,1.67,0c0,1.44,0,2.72,0,4.12C85.97,174.64,78.67,174.64,71.3,174.64L71.3,174.64z"/>
	<path class="st1" d="M93.26,179.81c0,1.47,0,2.75,0,4.15c-0.39,0.03-0.77,0.08-1.15,0.08c-6.49,0.01-12.98-0.02-19.47,0.04
		c-1.2,0.01-1.57-0.36-1.52-1.54c0.11-3.24-0.38-2.7,2.68-2.71C80.23,179.79,86.67,179.81,93.26,179.81L93.26,179.81z"/>
	<path class="st1" d="M154.38,243.24c-0.26-3.86,3.01-6.85,6.62-6.8c4.02,0.05,6.88,3.02,6.88,6.66c-0.01,3.81-2.71,6.82-6.85,6.89
		C158.08,250.03,154.11,247.6,154.38,243.24L154.38,243.24z M163.46,243.23c0-1.44-1.1-2.69-2.39-2.7c-1.2-0.01-2.63,1.45-2.61,2.68
		c0.01,1.27,1.34,2.61,2.58,2.59C162.42,245.79,163.46,244.68,163.46,243.23L163.46,243.23z"/>
	<path class="st1" d="M169.9,86.38c0.08,0.15,0.13,0.19,0.13,0.23c0.36,3.91,0.36,3.91-3.53,3.91c-2.73,0-5.47,0-8.32,0
		c0-1.39,0-2.7,0-4.14C162.05,86.38,165.95,86.38,169.9,86.38L169.9,86.38z"/>
	<path class="st1" d="M152.44,90.22c-1.27,0.06-1.67-0.81-1.78-1.78c-0.12-1.07,0.75-1.87,1.87-1.81c1.14,0.06,1.68,0.8,1.67,1.84
		C154.18,89.55,153.54,90.16,152.44,90.22L152.44,90.22z"/>
</g>
</svg>
