<?xml version="1.0" encoding="utf-8"?>
<!-- Generator: Adobe Illustrator 27.1.1, SVG Export Plug-In . SVG Version: 6.00 Build 0)  -->
<svg version="1.1" id="Layer_1" xmlns="http://www.w3.org/2000/svg" xmlns:xlink="http://www.w3.org/1999/xlink" x="0px" y="0px"
	 viewBox="0 0 421.43 186.43" style="enable-background:new 0 0 421.43 186.43;" xml:space="preserve">
<style type="text/css">
	.st0{clip-path:url(#SVGID_00000029766916370658988370000004010811059202730373_);fill:#112C4E;}
	.st1{clip-path:url(#SVGID_00000105404930840776176030000001665213786961325466_);fill:#112C4E;}
	.st2{clip-path:url(#SVGID_00000030477865378252936700000002019811864833880215_);fill:#112C4E;}
	.st3{clip-path:url(#SVGID_00000158007362629404326420000017456694119365237926_);fill:#112C4E;}
	.st4{clip-path:url(#SVGID_00000175292479477018329940000007356600872722935224_);fill:#112C4E;}
</style>
<g>
	<g>
		<defs>
			<rect id="SVGID_1_" x="13.48" y="39.43" width="388.95" height="127.23"/>
		</defs>
		<clipPath id="SVGID_00000172427379907704828100000004146647390127583630_">
			<use xlink:href="#SVGID_1_"  style="overflow:visible;"/>
		</clipPath>
		<path style="clip-path:url(#SVGID_00000172427379907704828100000004146647390127583630_);fill:#112C4E;" d="M212.75,104.88
			c-2.29,0-4.27,0.85-5.94,2.56s-2.51,3.97-2.51,6.78s0.84,5.07,2.51,6.78s3.65,2.56,5.94,2.56s4.27-0.85,5.94-2.56
			s2.51-3.97,2.51-6.78c0-2.82-0.84-5.08-2.51-6.78C217.01,105.73,215.03,104.88,212.75,104.88"/>
	</g>
	<g>
		<defs>
			<rect id="SVGID_00000072251624366895715890000007828658662031249310_" x="13.48" y="39.43" width="388.95" height="127.23"/>
		</defs>
		<clipPath id="SVGID_00000080178187415826766730000005570145755290312087_">
			<use xlink:href="#SVGID_00000072251624366895715890000007828658662031249310_"  style="overflow:visible;"/>
		</clipPath>
		<path style="clip-path:url(#SVGID_00000080178187415826766730000005570145755290312087_);fill:#112C4E;" d="M184.47,105.26
			c-2.29,0-4.27,0.85-5.94,2.56s-2.51,3.97-2.51,6.78s0.84,5.07,2.51,6.78s3.65,2.56,5.94,2.56c2.28,0,4.27-0.85,5.94-2.56
			s2.51-3.97,2.51-6.78c0-2.82-0.84-5.08-2.51-6.78C188.74,106.11,186.75,105.26,184.47,105.26"/>
	</g>
	<g>
		<defs>
			<rect id="SVGID_00000087377465259568483280000018248614234631947432_" x="13.48" y="39.43" width="388.95" height="127.23"/>
		</defs>
		<clipPath id="SVGID_00000075867172545182596290000015046347608419397790_">
			<use xlink:href="#SVGID_00000087377465259568483280000018248614234631947432_"  style="overflow:visible;"/>
		</clipPath>
		<path style="clip-path:url(#SVGID_00000075867172545182596290000015046347608419397790_);fill:#112C4E;" d="M346.73,115.83
			c-1.19,1.02-1.79,2.22-1.79,3.59c0,1.27,0.54,2.27,1.64,3.01c1.09,0.74,2.34,1.11,3.74,1.11c2.01,0,3.83-0.75,5.46-2.24
			c1.64-1.49,2.46-3.26,2.46-5.3c-1.37-1.13-3.43-1.69-6.18-1.69C349.7,114.3,347.92,114.82,346.73,115.83"/>
	</g>
	<g>
		<defs>
			<rect id="SVGID_00000080886766884249130380000006790342313525844914_" x="13.48" y="39.43" width="388.95" height="127.23"/>
		</defs>
		<clipPath id="SVGID_00000057116917007573360280000012010275833824807815_">
			<use xlink:href="#SVGID_00000080886766884249130380000006790342313525844914_"  style="overflow:visible;"/>
		</clipPath>
		<path style="clip-path:url(#SVGID_00000057116917007573360280000012010275833824807815_);fill:#112C4E;" d="M279.18,105.62
			c-1.79,0-3.35,0.56-4.67,1.69s-2.23,2.64-2.72,4.54h14.99c-0.11-1.48-0.78-2.88-2.03-4.22
			C283.5,106.29,281.64,105.62,279.18,105.62"/>
	</g>
	<g>
		<defs>
			<rect id="SVGID_00000082348778171975727680000005918067961025374342_" x="13.48" y="39.43" width="388.95" height="127.23"/>
		</defs>
		<clipPath id="SVGID_00000080203733370832803260000013084431477790735259_">
			<use xlink:href="#SVGID_00000082348778171975727680000005918067961025374342_"  style="overflow:visible;"/>
		</clipPath>
		<path style="clip-path:url(#SVGID_00000080203733370832803260000013084431477790735259_);fill:#112C4E;" d="M135.22,70.79h2.97
			c-0.93-2.81-1.4-4.33-1.4-4.56h-0.13C136.66,66.44,136.18,67.96,135.22,70.79 M161.26,72.73c0.56-0.73,0.85-1.61,0.85-2.66
			c0-1.04-0.31-1.93-0.92-2.64c-0.61-0.72-1.54-1.08-2.79-1.08c-0.23,0-0.56,0.02-0.96,0.08c0.06,1.09,0.08,2.23,0.08,3.41
			c0,1.3,0.02,2.59,0.08,3.87c0.36,0.07,0.71,0.11,1.06,0.11C159.83,73.82,160.7,73.46,161.26,72.73 M172.19,67.89
			c0-1.08-0.7-1.62-2.09-1.62c-0.51,0-0.96,0.04-1.35,0.11c0.06,0.85,0.09,1.95,0.09,3.3c0.3,0.01,0.55,0.02,0.76,0.02
			C171.32,69.7,172.19,69.09,172.19,67.89 M183.88,72.83c0.55-0.71,0.83-1.62,0.83-2.7c0-1.14-0.29-2.06-0.87-2.77
			c-0.59-0.71-1.3-1.06-2.16-1.06c-0.8,0-1.47,0.36-2.03,1.07c-0.55,0.71-0.83,1.62-0.83,2.7c0,1.14,0.29,2.05,0.88,2.77
			c0.59,0.71,1.3,1.07,2.15,1.07C182.64,73.9,183.32,73.55,183.88,72.83 M200.35,72.73c0.56-0.73,0.84-1.61,0.84-2.66
			c0-1.04-0.3-1.93-0.91-2.64c-0.61-0.72-1.54-1.08-2.79-1.08c-0.24,0-0.56,0.02-0.96,0.08c0.05,1.09,0.08,2.23,0.08,3.41
			c0,1.3,0.03,2.59,0.08,3.87c0.35,0.07,0.71,0.11,1.06,0.11C198.92,73.82,199.78,73.46,200.35,72.73 M212.38,70.79h2.97
			c-0.93-2.81-1.4-4.33-1.4-4.56h-0.13C213.83,66.44,213.35,67.96,212.38,70.79 M226.55,68c0-1.16-0.77-1.75-2.32-1.75
			c-0.39,0-0.8,0.04-1.23,0.12c0.06,1.03,0.09,2.2,0.09,3.5c0.14,0.01,0.29,0.02,0.47,0.02C225.56,69.89,226.55,69.26,226.55,68
			 M236.35,68c0-1.16-0.77-1.75-2.32-1.75c-0.39,0-0.8,0.04-1.23,0.12c0.06,1.03,0.09,2.2,0.09,3.5c0.14,0.01,0.29,0.02,0.47,0.02
			C235.35,69.89,236.35,69.26,236.35,68 M245.7,107.04c-1.6-1.69-3.55-2.54-5.83-2.54c-2.25,0-4.19,0.85-5.81,2.56
			s-2.43,3.97-2.43,6.78s0.81,5.07,2.43,6.78s3.55,2.56,5.81,2.56c2.28,0,4.23-0.84,5.83-2.53s2.4-3.96,2.4-6.81
			S247.3,108.72,245.7,107.04 M251.4,73.14c0.55-0.72,0.83-1.62,0.83-2.7c0-1.14-0.29-2.06-0.87-2.77s-1.3-1.06-2.16-1.06
			c-0.79,0-1.47,0.36-2.03,1.07c-0.55,0.71-0.83,1.61-0.83,2.7c0,1.13,0.29,2.05,0.88,2.77c0.59,0.71,1.3,1.07,2.15,1.07
			C250.17,74.21,250.84,73.86,251.4,73.14 M323.66,104.71c1.23-1.37,1.85-2.88,1.85-4.54c0-1.65-0.61-3.17-1.85-4.53
			c-1.23-1.38-2.87-2.06-4.91-2.06h-8.13v13.2h8.13C320.79,106.76,322.43,106.08,323.66,104.71 M390.88,101.18l-16.2,37.27h-5.02
			l6.02-13.04l-10.66-24.23h5.28l7.71,18.59h0.11l7.5-18.59L390.88,101.18L390.88,101.18z M364.12,127.05h-4.65v-3.59h-0.21
			c-1.94,2.96-4.77,4.44-8.5,4.44c-2.74,0-5.04-0.79-6.89-2.38c-1.85-1.58-2.77-3.67-2.77-6.28c0-2.82,1.09-5.03,3.27-6.62
			c2.18-1.6,4.87-2.4,8.07-2.4c2.85,0,5.19,0.53,7.02,1.58v-0.74c0-1.9-0.65-3.42-1.95-4.56c-1.3-1.15-2.9-1.72-4.8-1.72
			c-1.41,0-2.69,0.33-3.82,1c-1.15,0.67-1.93,1.58-2.35,2.74l-4.43-1.9c0.6-1.55,1.78-2.98,3.54-4.3s4.08-1.98,6.97-1.98
			c3.31,0,6.05,0.97,8.23,2.9c2.18,1.93,3.27,4.66,3.27,8.18V127.05z M338.26,127.05h-4.86v-37.8h4.86V127.05z M330.23,100.49
			c0,3.24-1.17,5.92-3.51,8.05c-2.34,2.13-5.11,3.19-8.31,3.19h-8.02v15.31h-4.86v-37.8h12.88c3.2,0,5.97,1.07,8.31,3.19
			C329.06,94.58,330.23,97.26,330.23,100.49 M291.27,114.12l-0.05,0.9h-20.43c0.14,2.61,1.01,4.66,2.61,6.18
			c1.6,1.52,3.48,2.27,5.62,2.27c3.48,0,5.84-1.48,7.07-4.43l4.33,1.79c-0.85,2.01-2.24,3.69-4.17,5.04
			c-1.93,1.35-4.31,2.03-7.12,2.03c-3.91,0-7.08-1.3-9.53-3.91c-2.45-2.6-3.67-5.89-3.67-9.87c0-3.77,1.19-7,3.57-9.71
			s5.41-4.06,9.1-4.06c3.83,0,6.91,1.25,9.21,3.75C290.12,106.59,291.27,109.93,291.27,114.12 M265.43,70.04
			c0,2.05,0.04,3.9,0.11,5.56h-2.02c0-0.22-0.75-1.4-2.25-3.54c-1.57-2.25-2.46-3.79-2.68-4.62h-0.13c0.14,1.19,0.21,2.27,0.21,3.23
			c0,1.34,0.04,2.98,0.11,4.92h-2.01c0.08-1.69,0.13-3.54,0.13-5.56c0-1.99-0.04-3.68-0.13-5.07h2.43c0,0.29,0.67,1.44,2.02,3.46
			c1.43,2.14,2.26,3.59,2.47,4.35h0.12c-0.13-1.22-0.2-2.31-0.2-3.27c0-1.48-0.03-2.99-0.11-4.54h2.04
			C265.47,66.32,265.43,68.01,265.43,70.04 M254.47,70.09c0,1.67-0.51,3.06-1.54,4.16c-1.02,1.1-2.29,1.65-3.8,1.65
			c-1.44,0-2.64-0.51-3.61-1.52c-0.97-1.01-1.46-2.29-1.46-3.85c0-1.67,0.51-3.06,1.54-4.16c1.02-1.1,2.29-1.65,3.8-1.65
			c1.44,0,2.64,0.51,3.61,1.51C253.99,67.24,254.47,68.53,254.47,70.09 M239.97,100.34c1.93,0,3.67,0.42,5.22,1.26
			c1.55,0.85,2.74,1.9,3.59,3.17h0.21v-3.59h4.65v24.55c0,4.43-1.29,7.8-3.86,10.11c-2.57,2.31-5.7,3.46-9.39,3.46
			c-3.06,0-5.56-0.77-7.5-2.3s-3.33-3.28-4.17-5.26l4.43-1.85c0.49,1.41,1.4,2.59,2.72,3.54s2.82,1.43,4.51,1.43
			c2.67,0,4.78-0.8,6.31-2.4s2.3-3.77,2.3-6.52v-2.48h-0.21c-0.84,1.27-2.04,2.32-3.59,3.17s-3.29,1.27-5.22,1.27
			c-3.34,0-6.23-1.32-8.66-3.96c-2.43-2.64-3.64-5.91-3.64-9.82s1.22-7.18,3.64-9.82C233.74,101.66,236.62,100.34,239.97,100.34
			 M238.45,67.75c0,1.3-0.48,2.26-1.45,2.88s-2.15,0.93-3.56,0.93c-0.26,0-0.44,0-0.55-0.01c0,1.02,0.03,2.38,0.09,4.05h-2.3
			c0.07-1.57,0.11-3.43,0.11-5.56c0-1.96-0.03-3.65-0.11-5.07h1.42c0.2,0,0.59-0.01,1.16-0.02c0.57-0.02,1.07-0.03,1.49-0.03
			c1.03,0,1.91,0.24,2.62,0.7C238.1,66.09,238.45,66.8,238.45,67.75 M228.66,67.75c0,1.3-0.48,2.26-1.45,2.88
			c-0.96,0.62-2.15,0.93-3.56,0.93c-0.26,0-0.44,0-0.55-0.01c0,1.02,0.03,2.38,0.09,4.05h-2.3c0.07-1.57,0.11-3.43,0.11-5.56
			c0-1.96-0.04-3.65-0.11-5.07h1.42c0.2,0,0.59-0.01,1.16-0.02c0.57-0.02,1.07-0.03,1.49-0.03c1.03,0,1.91,0.24,2.62,0.7
			C228.3,66.09,228.66,66.8,228.66,67.75 M219.13,75.6h-2.62c0-0.36-0.25-1.38-0.74-3.05H212c-0.51,1.65-0.77,2.67-0.77,3.05h-2.46
			c0-0.21,0.63-1.95,1.91-5.23c1.27-3.27,1.91-5.07,1.91-5.41h3.09c0,0.31,0.58,2.09,1.73,5.33
			C218.55,73.54,219.13,75.31,219.13,75.6 M203.42,69.92c0,1.55-0.49,2.9-1.49,4.05c-0.99,1.16-2.38,1.73-4.17,1.73
			c-0.8,0-1.92-0.03-3.33-0.1c0.07-1.64,0.11-3.5,0.11-5.56c0-1.98-0.04-3.67-0.11-5.07h1.43c0.23,0,0.58-0.01,1.04-0.02
			c0.46-0.02,0.76-0.03,0.91-0.03c1.97,0,3.39,0.49,4.28,1.47C202.98,67.37,203.42,68.55,203.42,69.92 M194.04,104.27
			c2.5,2.62,3.75,5.9,3.75,9.85s-1.25,7.22-3.75,9.84s-5.68,3.94-9.55,3.94c-3.87,0-7.06-1.31-9.55-3.94
			c-2.5-2.62-3.75-5.9-3.75-9.84s1.25-7.22,3.75-9.85c2.5-2.62,5.68-3.93,9.55-3.93S191.54,101.65,194.04,104.27 M191.47,70.04
			c0,2.05,0.03,3.91,0.11,5.56h-2.31c0.07-1.69,0.1-3.54,0.1-5.56c0-1.99-0.03-3.68-0.1-5.07h2.31
			C191.51,66.34,191.47,68.03,191.47,70.04 M186.96,70.09c0,1.67-0.51,3.06-1.53,4.16s-2.29,1.65-3.8,1.65
			c-1.44,0-2.64-0.51-3.61-1.52c-0.97-1.01-1.45-2.29-1.45-3.85c0-1.67,0.51-3.06,1.54-4.16c1.02-1.1,2.29-1.65,3.8-1.65
			c1.44,0,2.64,0.51,3.61,1.51C186.48,67.24,186.96,68.53,186.96,70.09 M172.13,70.32v0.12c0.55,0.15,1.03,0.58,1.45,1.29
			c0.41,0.71,0.97,2,1.68,3.88h-2.42c-0.63-1.93-1.11-3.12-1.45-3.57s-0.88-0.68-1.63-0.68c-0.32,0-0.62,0-0.91,0.01
			c0,1.4,0.02,2.81,0.07,4.24h-2.27c0.07-1.64,0.1-3.5,0.1-5.56c0-1.98-0.03-3.67-0.1-5.07h1.41c0.16,0,0.51-0.01,1.03-0.02
			c0.52-0.02,1-0.03,1.44-0.03c2.5,0,3.75,0.86,3.75,2.57C174.27,68.84,173.56,69.78,172.13,70.32 M164.33,69.92
			c0,1.55-0.49,2.9-1.49,4.05c-0.99,1.16-2.38,1.73-4.17,1.73c-0.8,0-1.92-0.03-3.33-0.1c0.07-1.64,0.11-3.5,0.11-5.56
			c0-1.98-0.03-3.67-0.11-5.07h1.43c0.23,0,0.58-0.01,1.04-0.02c0.46-0.02,0.77-0.03,0.91-0.03c1.97,0,3.39,0.49,4.28,1.47
			C163.89,67.37,164.33,68.55,164.33,69.92 M152.38,70.04c0,2.05,0.04,3.9,0.11,5.56h-2.02c0-0.22-0.75-1.4-2.24-3.54
			c-1.57-2.25-2.46-3.79-2.68-4.62h-0.13c0.14,1.19,0.21,2.27,0.21,3.23c0,1.34,0.03,2.98,0.11,4.92h-2.01
			c0.08-1.69,0.13-3.54,0.13-5.56c0-1.99-0.04-3.68-0.13-5.07h2.43c0,0.29,0.67,1.44,2.02,3.46c1.43,2.14,2.25,3.59,2.47,4.35h0.12
			c-0.13-1.22-0.2-2.31-0.2-3.27c0-1.48-0.04-2.99-0.11-4.54h2.04C152.42,66.32,152.38,68.01,152.38,70.04 M141.96,75.6h-2.62
			c0-0.36-0.25-1.38-0.74-3.05h-3.78c-0.51,1.65-0.77,2.67-0.77,3.05h-2.46c0-0.21,0.64-1.95,1.91-5.23
			c1.27-3.27,1.91-5.07,1.91-5.41h3.09c0,0.31,0.57,2.09,1.73,5.33C141.38,73.54,141.96,75.31,141.96,75.6 M130.96,108.15
			c0-5.59,1.91-10.29,5.73-14.07c3.81-3.78,8.45-5.67,13.91-5.67c2.71,0,5.29,0.53,7.76,1.58c2.46,1.05,4.43,2.46,5.91,4.22
			l-3.33,3.33c-2.5-2.99-5.95-4.49-10.34-4.49c-3.98,0-7.42,1.4-10.32,4.2c-2.9,2.8-4.36,6.43-4.36,10.9s1.45,8.1,4.36,10.9
			c2.9,2.8,6.34,4.2,10.32,4.2c4.22,0,7.74-1.41,10.56-4.22c1.83-1.83,2.88-4.38,3.17-7.66H150.6v-4.54h18.32
			c0.17,0.99,0.26,1.94,0.26,2.85c0,5.28-1.56,9.48-4.7,12.62c-3.56,3.73-8.19,5.6-13.88,5.6c-5.46,0-10.09-1.89-13.91-5.68
			C132.87,118.44,130.96,113.74,130.96,108.15 M117.28,107.84c-0.05,1.36-0.69,2.32-1.66,3.03c-0.72,0.53-1.51,0.96-2.3,1.4
			c-4.66,2.57-9.33,5.12-13.98,7.72c-0.63,0.35-1,0.33-1.52-0.2c-3.31-3.42-6.65-6.81-10-10.18c-0.49-0.49-0.5-0.76,0-1.25
			c3.91-3.85,7.8-7.73,11.67-11.62c0.46-0.46,0.78-0.51,1.35-0.19c4.6,2.61,9.22,5.18,13.84,7.76
			C116.1,105.12,117.21,106.15,117.28,107.84 M97.14,95.63c-3.7,3.64-7.36,7.31-11.03,10.98c-0.4,0.4-0.64,0.63-1.17,0.08
			c-13.16-13.41-26.33-26.81-39.5-40.21c-0.11-0.11-0.2-0.25-0.42-0.52c0.99-0.01,1.68,0.28,2.35,0.65
			c16.53,9.26,33.06,18.53,49.61,27.78C97.74,94.82,97.72,95.05,97.14,95.63 M42.91,67.3c8.12,8.29,16.27,16.56,24.41,24.83
			c5.27,5.36,10.54,10.72,15.83,16.05c0.52,0.52,0.56,0.79,0.02,1.33c-12.95,12.88-25.89,25.76-38.79,38.68
			c-0.79,0.79-1.34,0.71-2.1,0.13c-1.38-1.06-1.91-2.49-1.91-4.18c0-7.15-0.01-14.3-0.01-21.45c0-5.06,0-10.11,0-15.17h0.02
			c0-12.07,0-24.14-0.01-36.22c0-1.48,0.29-2.84,1.34-3.95C42.11,66.9,42.41,66.79,42.91,67.3 M48.72,147.88
			c12-12.13,24.01-24.25,35.98-36.41c0.75-0.76,1.09-0.65,1.76,0.04c3.04,3.17,6.13,6.29,9.23,9.4c0.55,0.55,0.59,0.77-0.15,1.18
			c-15.41,8.43-30.8,16.89-46.2,25.34C49.08,147.56,48.85,147.79,48.72,147.88 M199.43,114.12c0-3.94,1.25-7.22,3.75-9.85
			c2.5-2.62,5.68-3.93,9.55-3.93c3.87,0,7.06,1.31,9.56,3.93s3.74,5.9,3.74,9.85s-1.25,7.22-3.74,9.84
			c-2.5,2.62-5.69,3.94-9.56,3.94s-7.06-1.31-9.55-3.94C200.68,121.34,199.43,118.06,199.43,114.12 M258.23,89.25h4.86v37.8h-4.86
			V89.25z M402.43,149.46V56.62c0-9.49-7.7-17.2-17.19-17.2H30.68c-9.49,0-17.19,7.7-17.19,17.2v92.84c0,9.49,7.7,17.2,17.19,17.2
			h354.56C394.73,166.66,402.43,158.96,402.43,149.46"/>
	</g>
</g>
</svg>
