<?xml version="1.0" encoding="utf-8"?>
<!-- Generator: Adobe Illustrator 23.0.1, SVG Export Plug-In . SVG Version: 6.00 Build 0)  -->
<svg version="1.1" id="Layer_1" xmlns="http://www.w3.org/2000/svg" xmlns:xlink="http://www.w3.org/1999/xlink" x="0px" y="0px"
	 viewBox="0 0 841.9 190.9" style="enable-background:new 0 0 841.9 190.9;" xml:space="preserve">
<style type="text/css">
	.st0{fill:#102B4E;}
	.st1{fill:#6D6E71;}
	.st2{fill:#CAA457;}
</style>
<g>
	<g>
		<g>
			<g>
				<path class="st0" d="M13.5,106.4v19.3c0,0.6,0.1,1.1,0.4,1.5c0.3,0.3,0.8,0.6,1.5,0.8v0.9H4.1V128c0.7-0.2,1.2-0.4,1.5-0.8
					c0.3-0.3,0.4-0.8,0.4-1.5V97.9c0-0.6-0.1-1.1-0.4-1.4c-0.3-0.3-0.8-0.6-1.5-0.8v-0.9h13.1v0.9c-0.9,0.2-1.3,0.6-1.3,1.2
					c0,0.5,0.3,1.1,1,1.7l18.3,18.1V97.9c0-0.6-0.1-1.1-0.4-1.4c-0.3-0.3-0.8-0.6-1.5-0.8v-0.9h11.3v0.9c-0.7,0.2-1.2,0.5-1.5,0.8
					c-0.3,0.3-0.4,0.8-0.4,1.4v27.8c0,0.6,0.1,1.1,0.4,1.4c0.3,0.3,0.8,0.6,1.5,0.8v0.9H32.3V128c0.9-0.2,1.3-0.6,1.3-1.1
					c0-0.3-0.1-0.6-0.4-0.9c-0.2-0.3-0.8-0.9-1.7-1.8L13.5,106.4z"/>
				<path class="st0" d="M74.6,120.3H59l-1.8,3.7c-0.4,0.9-0.6,1.6-0.6,2.1c0,1,0.6,1.6,1.9,1.9v0.9H46V128c0.8-0.1,1.3-0.4,1.7-0.7
					c0.4-0.3,0.8-1,1.3-2l12.4-25.2c0.5-1,0.7-1.8,0.7-2.5c0-0.8-0.6-1.5-1.7-1.9v-0.9h13.2v0.9c-1.1,0.4-1.7,1.1-1.7,2.1
					c0,0.7,0.3,1.5,0.8,2.5l12.9,24.4c0.7,1.3,1.3,2.2,1.7,2.6c0.4,0.4,1,0.7,1.9,0.8v0.9H75.3V128c1.3-0.2,2-0.8,2-1.8
					c0-0.6-0.3-1.4-0.8-2.3L74.6,120.3z M72.2,115.5l-5.6-10.9l-5.3,10.9H72.2z"/>
				<path class="st0" d="M123.2,97.8l-4.1,7.9l-0.7-0.4c0-0.7-0.2-1.2-0.6-1.6c-1.2-1-2.9-1.9-5.1-2.6c-2.2-0.7-4.5-1-6.8-1
					c-2,0-3.7,0.3-5.2,0.8c-2.2,0.8-3.3,1.9-3.3,3.4c0,1,0.5,1.7,1.6,2.1c1.1,0.4,3.1,0.7,6.1,1l4.8,0.4c4.2,0.3,7.4,1.1,9.6,2.4
					c1.2,0.7,2.2,1.7,3,2.9c1,1.5,1.5,3.2,1.5,5.1c0,3.5-1.6,6.2-4.7,8.2c-3,1.9-7,2.9-12.1,2.9c-5.1,0-10.1-1.1-14.9-3.3
					c-0.3-0.1-0.6-0.2-0.8-0.2c-0.4,0-0.8,0.2-1.1,0.7l-0.8-0.3l3.5-8.3l0.8,0.3c0,0.1,0,0.2,0,0.2c0,0.5,0.2,1,0.6,1.3
					c1,0.9,2.8,1.7,5.3,2.3c2.5,0.7,5,1,7.4,1c2.1,0,4.1-0.3,5.8-0.9c2.1-0.7,3.2-1.8,3.2-3.3c0-1.2-0.7-2.1-2.2-2.6
					c-1-0.3-2.7-0.6-5.3-0.8l-4.8-0.4c-2.6-0.2-4.5-0.5-5.9-0.8c-1.4-0.3-2.5-0.8-3.6-1.4c-1.3-0.8-2.3-1.9-3-3.3
					c-0.7-1.4-1.1-2.9-1.1-4.6c0-3.7,1.6-6.6,4.8-8.5c2.9-1.8,6.5-2.7,10.8-2.7c2.3,0,4.5,0.3,6.5,0.8c2,0.5,4.4,1.4,7.2,2.7
					c0.8,0.4,1.4,0.6,1.7,0.6c0.3,0,0.7-0.2,1.2-0.7L123.2,97.8z"/>
				<path class="st0" d="M159.9,97.8l-4.1,7.9l-0.7-0.4c0-0.7-0.2-1.2-0.6-1.6c-1.2-1-2.9-1.9-5.1-2.6c-2.2-0.7-4.5-1-6.8-1
					c-2,0-3.7,0.3-5.2,0.8c-2.2,0.8-3.3,1.9-3.3,3.4c0,1,0.5,1.7,1.6,2.1c1.1,0.4,3.1,0.7,6.1,1l4.8,0.4c4.2,0.3,7.4,1.1,9.6,2.4
					c1.2,0.7,2.2,1.7,3,2.9c1,1.5,1.5,3.2,1.5,5.1c0,3.5-1.6,6.2-4.7,8.2c-3,1.9-7,2.9-12.1,2.9c-5.1,0-10.1-1.1-14.9-3.3
					c-0.3-0.1-0.6-0.2-0.8-0.2c-0.4,0-0.8,0.2-1.1,0.7l-0.8-0.3l3.5-8.3l0.8,0.3c0,0.1,0,0.2,0,0.2c0,0.5,0.2,1,0.6,1.3
					c1,0.9,2.8,1.7,5.3,2.3c2.5,0.7,5,1,7.4,1c2.1,0,4.1-0.3,5.8-0.9c2.1-0.7,3.2-1.8,3.2-3.3c0-1.2-0.7-2.1-2.2-2.6
					c-1-0.3-2.7-0.6-5.3-0.8l-4.8-0.4c-2.6-0.2-4.5-0.5-5.9-0.8c-1.4-0.3-2.5-0.8-3.6-1.4c-1.3-0.8-2.3-1.9-3-3.3
					c-0.7-1.4-1.1-2.9-1.1-4.6c0-3.7,1.6-6.6,4.8-8.5c2.9-1.8,6.5-2.7,10.8-2.7c2.3,0,4.5,0.3,6.5,0.8c2,0.5,4.4,1.4,7.2,2.7
					c0.8,0.4,1.4,0.6,1.7,0.6c0.3,0,0.7-0.2,1.2-0.7L159.9,97.8z"/>
				<path class="st0" d="M174.1,114.8v10.9c0,0.6,0.1,1.1,0.4,1.4c0.3,0.3,0.8,0.6,1.5,0.8v0.9h-12V128c0.7-0.2,1.2-0.4,1.5-0.8
					c0.3-0.3,0.4-0.8,0.4-1.5V97.9c0-0.6-0.1-1.1-0.4-1.4c-0.3-0.3-0.8-0.6-1.5-0.8v-0.9h22.3c2.9,0,5.1,0.1,6.6,0.4
					c1.5,0.3,2.9,0.8,4.1,1.6c2.5,1.6,3.7,4.2,3.7,7.8c0,2.8-0.8,4.9-2.3,6.5c-1.5,1.6-3.9,2.7-7.3,3.4l6.4,9
					c1.2,1.7,2.1,2.8,2.8,3.4c0.7,0.6,1.5,1,2.4,1.1v0.9h-14.3V128c1.1-0.3,1.6-0.7,1.6-1.4c0-0.4-0.3-1.1-1-2l-6.8-9.7H174.1z
					 M174.1,108.7h12.3c1.9,0,3.2-0.2,4.1-0.6c1.3-0.5,1.9-1.6,1.9-3.3c0-1.4-0.4-2.4-1.3-3c-0.9-0.6-2.4-0.9-4.7-0.9h-12.3V108.7z"
					/>
				<path class="st0" d="M258.9,120.3h-15.6l-1.8,3.7c-0.4,0.9-0.6,1.6-0.6,2.1c0,1,0.6,1.6,1.9,1.9v0.9h-12.5V128
					c0.8-0.1,1.3-0.4,1.7-0.7s0.8-1,1.3-2l12.4-25.2c0.5-1,0.7-1.8,0.7-2.5c0-0.8-0.6-1.5-1.7-1.9v-0.9H258v0.9
					c-1.1,0.4-1.7,1.1-1.7,2.1c0,0.7,0.3,1.5,0.8,2.5l12.9,24.4c0.7,1.3,1.3,2.2,1.7,2.6c0.4,0.4,1,0.7,1.9,0.8v0.9h-13.9V128
					c1.3-0.2,2-0.8,2-1.8c0-0.6-0.3-1.4-0.8-2.3L258.9,120.3z M256.5,115.5l-5.6-10.9l-5.3,10.9H256.5z"/>
				<path class="st0" d="M284.8,122.6h19c0.6,0,1.1-0.1,1.5-0.4c0.3-0.3,0.6-0.8,0.8-1.5h0.8v10.1h-0.8c-0.2-0.7-0.5-1.2-0.8-1.5
					c-0.3-0.3-0.8-0.4-1.5-0.4h-29.1V128c0.7-0.2,1.2-0.4,1.5-0.8c0.3-0.3,0.4-0.8,0.4-1.5V97.9c0-0.6-0.1-1.1-0.4-1.4
					c-0.3-0.3-0.8-0.6-1.5-0.8v-0.9h12v0.9c-0.7,0.2-1.2,0.5-1.5,0.8s-0.4,0.8-0.4,1.4V122.6z"/>
				<path class="st0" d="M354.2,110.5c1.7,0.8,2.9,1.5,3.7,2.3c1.5,1.5,2.2,3.4,2.2,5.9c0,3.3-1.3,5.9-3.8,7.7
					c-2.2,1.6-5.3,2.4-9.2,2.4h-24.2V128c0.7-0.2,1.2-0.4,1.5-0.8c0.3-0.3,0.4-0.8,0.4-1.5V97.9c0-0.6-0.1-1.1-0.4-1.4
					c-0.3-0.3-0.8-0.6-1.5-0.8v-0.9h23.8c4.2,0,7.2,0.7,9.2,2.2c2.1,1.6,3.1,3.7,3.1,6.5c0,1.6-0.4,2.9-1.1,4
					C357.2,108.5,356,109.5,354.2,110.5z M333,107.5h12.4c1.9,0,3.3-0.2,4.1-0.7c0.8-0.5,1.2-1.4,1.2-2.6c0-1.2-0.4-2-1.2-2.5
					c-0.8-0.5-2.2-0.7-4.1-0.7H333V107.5z M333,122.6h12.7c4.1,0,6.1-1.5,6.1-4.5c0-3-2-4.5-6.1-4.5H333V122.6z"/>
				<path class="st0" d="M389.3,120.3h-15.6l-1.8,3.7c-0.4,0.9-0.6,1.6-0.6,2.1c0,1,0.6,1.6,1.9,1.9v0.9h-12.5V128
					c0.8-0.1,1.3-0.4,1.7-0.7s0.8-1,1.3-2l12.4-25.2c0.5-1,0.7-1.8,0.7-2.5c0-0.8-0.6-1.5-1.7-1.9v-0.9h13.2v0.9
					c-1.1,0.4-1.7,1.1-1.7,2.1c0,0.7,0.3,1.5,0.8,2.5l12.9,24.4c0.7,1.3,1.3,2.2,1.7,2.6c0.4,0.4,1,0.7,1.9,0.8v0.9H390V128
					c1.3-0.2,2-0.8,2-1.8c0-0.6-0.3-1.4-0.8-2.3L389.3,120.3z M386.8,115.5l-5.6-10.9l-5.3,10.9H386.8z"/>
				<path class="st0" d="M415.2,114.8v10.9c0,0.6,0.1,1.1,0.4,1.4c0.3,0.3,0.8,0.6,1.5,0.8v0.9h-12V128c0.7-0.2,1.2-0.4,1.5-0.8
					c0.3-0.3,0.4-0.8,0.4-1.5V97.9c0-0.6-0.1-1.1-0.4-1.4c-0.3-0.3-0.8-0.6-1.5-0.8v-0.9h22.3c2.9,0,5.1,0.1,6.6,0.4
					c1.5,0.3,2.9,0.8,4.1,1.6c2.5,1.6,3.7,4.2,3.7,7.8c0,2.8-0.8,4.9-2.3,6.5c-1.5,1.6-3.9,2.7-7.3,3.4l6.4,9
					c1.2,1.7,2.1,2.8,2.8,3.4c0.7,0.6,1.5,1,2.4,1.1v0.9h-14.3V128c1.1-0.3,1.6-0.7,1.6-1.4c0-0.4-0.3-1.1-1-2l-6.8-9.7H415.2z
					 M415.2,108.7h12.3c1.9,0,3.2-0.2,4.1-0.6c1.3-0.5,1.9-1.6,1.9-3.3c0-1.4-0.4-2.4-1.3-3c-0.9-0.6-2.4-0.9-4.7-0.9h-12.3V108.7z"
					/>
				<path class="st0" d="M473.6,120.3H458l-1.8,3.7c-0.4,0.9-0.6,1.6-0.6,2.1c0,1,0.6,1.6,1.9,1.9v0.9H445V128
					c0.8-0.1,1.3-0.4,1.7-0.7s0.8-1,1.3-2l12.4-25.2c0.5-1,0.7-1.8,0.7-2.5c0-0.8-0.6-1.5-1.7-1.9v-0.9h13.2v0.9
					c-1.1,0.4-1.7,1.1-1.7,2.1c0,0.7,0.3,1.5,0.8,2.5l12.9,24.4c0.7,1.3,1.3,2.2,1.7,2.6c0.4,0.4,1,0.7,1.9,0.8v0.9h-13.9V128
					c1.3-0.2,2-0.8,2-1.8c0-0.6-0.3-1.4-0.8-2.3L473.6,120.3z M471.2,115.5l-5.6-10.9l-5.3,10.9H471.2z"/>
				<path class="st0" d="M504.4,113.3l-4.8,3.9v8.5c0,0.6,0.1,1.1,0.4,1.4c0.3,0.3,0.8,0.6,1.5,0.8v0.9h-12V128
					c0.7-0.2,1.2-0.4,1.5-0.8c0.3-0.3,0.4-0.8,0.4-1.5V97.9c0-0.6-0.1-1.1-0.4-1.4c-0.3-0.3-0.8-0.6-1.5-0.8v-0.9h12v0.9
					c-0.7,0.2-1.2,0.5-1.5,0.8c-0.3,0.3-0.4,0.8-0.4,1.4V109l12.8-10.2c1-0.7,1.4-1.4,1.4-2c0-0.6-0.6-1-1.8-1.2v-0.9h15.3v0.9
					c-0.8,0.1-1.4,0.4-1.9,0.7c-0.5,0.3-1.8,1.4-3.8,3.2l-11.5,9.2l12.6,14.5c1.6,1.9,2.8,3.1,3.5,3.7c0.7,0.6,1.5,0.9,2.4,1.1v0.9
					h-14.9V128c1.1-0.3,1.7-0.7,1.7-1.2c0-0.2-0.1-0.4-0.2-0.6c-0.1-0.2-0.6-0.7-1.4-1.7L504.4,113.3z"/>
				<path class="st0" d="M558.1,120.3h-15.6l-1.8,3.7c-0.4,0.9-0.6,1.6-0.6,2.1c0,1,0.6,1.6,1.9,1.9v0.9h-12.5V128
					c0.8-0.1,1.3-0.4,1.7-0.7s0.8-1,1.3-2l12.4-25.2c0.5-1,0.7-1.8,0.7-2.5c0-0.8-0.6-1.5-1.7-1.9v-0.9h13.2v0.9
					c-1.1,0.4-1.7,1.1-1.7,2.1c0,0.7,0.3,1.5,0.8,2.5l12.9,24.4c0.7,1.3,1.3,2.2,1.7,2.6c0.4,0.4,1,0.7,1.9,0.8v0.9h-13.9V128
					c1.3-0.2,2-0.8,2-1.8c0-0.6-0.3-1.4-0.8-2.3L558.1,120.3z M555.7,115.5l-5.6-10.9l-5.3,10.9H555.7z"/>
				<path class="st0" d="M592.7,100.9v24.7c0,0.6,0.1,1.1,0.4,1.4c0.3,0.3,0.8,0.6,1.5,0.8v0.9h-12V128c0.7-0.2,1.2-0.4,1.5-0.8
					c0.3-0.3,0.4-0.8,0.4-1.5v-24.8h-10c-0.6,0-1.1,0.1-1.5,0.4c-0.3,0.3-0.6,0.8-0.8,1.5h-0.8V92.8h0.8c0.2,0.7,0.4,1.2,0.8,1.5
					c0.3,0.3,0.8,0.4,1.5,0.4h28.2c0.6,0,1.1-0.1,1.5-0.4c0.3-0.3,0.6-0.8,0.8-1.5h0.8v10.1H605c-0.2-0.7-0.5-1.2-0.8-1.5
					c-0.3-0.3-0.8-0.4-1.5-0.4H592.7z"/>
				<path class="st0" d="M617.9,97.9v27.8c0,0.6,0.1,1.1,0.4,1.4c0.3,0.3,0.8,0.6,1.5,0.8v0.9h-12V128c0.7-0.2,1.2-0.4,1.5-0.8
					c0.3-0.3,0.4-0.8,0.4-1.5V97.9c0-0.6-0.1-1.1-0.4-1.4c-0.3-0.3-0.8-0.6-1.5-0.8v-0.9h12v0.9c-0.7,0.2-1.2,0.5-1.5,0.8
					C618,96.8,617.9,97.2,617.9,97.9z"/>
			</g>
		</g>
		<g>
			<path class="st1" d="M23,164.4l-6.3-12.7c-0.2-0.3-0.2-0.6-0.2-0.8c0-0.3,0.2-0.6,0.7-0.7v-0.4h-5.9v0.4c0.5,0.2,0.7,0.4,0.7,0.8
				c0,0.2-0.1,0.6-0.3,1l-6.1,12.7c-0.2,0.5-0.4,0.8-0.6,0.9c-0.2,0.2-0.4,0.3-0.7,0.3v0.4h5.5v-0.4c-0.5-0.1-0.8-0.4-0.8-0.7
				c0-0.2,0.1-0.4,0.2-0.8l1.1-2.3h7.5l1.1,2.3c0.2,0.3,0.2,0.6,0.2,0.8c0,0.4-0.3,0.7-0.8,0.7v0.4h6.1v-0.4
				c-0.3-0.1-0.6-0.2-0.8-0.4C23.5,165.3,23.3,164.9,23,164.4z M11.4,159.8l2.7-5.9l2.7,5.9H11.4z"/>
			<path class="st1" d="M39.1,155.1l2-3.9l-0.3-0.2c-0.2,0.2-0.4,0.3-0.6,0.3c-0.1,0-0.4-0.1-0.9-0.3c-1.4-0.6-2.5-1-3.4-1.2
				c-0.9-0.2-1.9-0.3-3-0.3c-2.5,0-4.4,0.6-5.7,1.8c-1,0.9-1.4,2.1-1.4,3.5c0,0.8,0.2,1.6,0.6,2.3c0.4,0.7,1,1.3,1.7,1.6
				c0.5,0.3,1,0.4,1.5,0.6c0.5,0.1,1.4,0.2,2.7,0.4l1.9,0.2c1.3,0.1,2.1,0.3,2.5,0.4c0.6,0.2,0.9,0.6,0.9,1.2c0,0.4-0.1,0.7-0.4,1
				c-0.2,0.3-0.6,0.6-1,0.8c-0.8,0.4-1.7,0.5-2.7,0.5c-1,0-2-0.2-3.1-0.5c-1.1-0.3-1.9-0.7-2.4-1.2c-0.3-0.3-0.5-0.6-0.5-1
				c0,0,0-0.1,0-0.2l-0.4-0.2l-1.8,4.1l0.4,0.2c0.2-0.2,0.4-0.3,0.5-0.3c0.1,0,0.4,0.1,0.8,0.3c2.1,1,4.3,1.6,6.5,1.6
				c1.2,0,2.4-0.1,3.4-0.4c1.4-0.4,2.5-1,3.2-1.8c0.7-0.9,1.1-1.9,1.1-3.1c0-0.7-0.2-1.4-0.5-2.1c-0.3-0.6-0.8-1.2-1.3-1.6
				c-0.5-0.4-1.2-0.7-1.9-0.9c-0.7-0.2-1.6-0.4-2.7-0.5l-1.9-0.2c-1.3-0.1-2.1-0.2-2.5-0.4c-0.8-0.2-1.1-0.6-1.1-1.3
				c0-0.4,0.1-0.7,0.4-1.1c0.3-0.3,0.7-0.6,1.2-0.7c0.7-0.2,1.4-0.3,2.3-0.3c1.9,0,3.6,0.5,5.1,1.5c0.5,0.3,0.7,0.6,0.7,0.9
				c0,0,0,0.1,0,0.2L39.1,155.1z"/>
			<path class="st1" d="M56.7,155.1l2-3.9l-0.3-0.2c-0.2,0.2-0.4,0.3-0.6,0.3c-0.1,0-0.4-0.1-0.9-0.3c-1.4-0.6-2.5-1-3.4-1.2
				c-0.9-0.2-1.9-0.3-3-0.3c-2.5,0-4.4,0.6-5.7,1.8c-1,0.9-1.4,2.1-1.4,3.5c0,0.8,0.2,1.6,0.6,2.3c0.4,0.7,1,1.3,1.7,1.6
				c0.5,0.3,1,0.4,1.6,0.6c0.5,0.1,1.4,0.2,2.7,0.4l1.9,0.2c1.3,0.1,2.1,0.3,2.5,0.4c0.6,0.2,0.9,0.6,0.9,1.2c0,0.4-0.1,0.7-0.4,1
				c-0.3,0.3-0.6,0.6-1,0.8c-0.8,0.4-1.7,0.5-2.7,0.5c-1,0-2-0.2-3.1-0.5c-1.1-0.3-1.9-0.7-2.4-1.2c-0.3-0.3-0.5-0.6-0.5-1
				c0,0,0-0.1,0-0.2l-0.4-0.2l-1.8,4.1l0.4,0.2c0.2-0.2,0.4-0.3,0.5-0.3c0.1,0,0.4,0.1,0.8,0.3c2.1,1,4.3,1.6,6.5,1.6
				c1.2,0,2.4-0.1,3.4-0.4c1.4-0.4,2.5-1,3.2-1.8c0.8-0.9,1.1-1.9,1.1-3.1c0-0.7-0.2-1.4-0.5-2.1c-0.3-0.6-0.8-1.2-1.3-1.6
				c-0.5-0.4-1.2-0.7-1.9-0.9c-0.7-0.2-1.6-0.4-2.7-0.5l-1.9-0.2c-1.3-0.1-2.1-0.2-2.5-0.4c-0.8-0.2-1.1-0.6-1.1-1.3
				c0-0.4,0.1-0.7,0.4-1.1c0.3-0.3,0.7-0.6,1.2-0.7c0.7-0.2,1.4-0.3,2.3-0.3c1.9,0,3.6,0.5,5.1,1.5c0.5,0.3,0.7,0.6,0.7,0.9
				c0,0,0,0.1,0,0.2L56.7,155.1z"/>
			<path class="st1" d="M70,149.5c-3.8,0-6.6,1.4-8.2,4c-0.8,1.4-1.3,2.9-1.3,4.5c0,1.1,0.2,2.2,0.6,3.2c0.5,1.2,1.2,2.2,2.1,3
				c1.7,1.6,4,2.3,6.8,2.3c3.8,0,6.6-1.3,8.2-4c0.9-1.4,1.3-2.8,1.3-4.4c0-2.6-0.9-4.7-2.7-6.3C75.2,150.3,72.9,149.5,70,149.5z
				 M75.4,160.3c-0.3,0.8-0.8,1.5-1.4,2c-1,0.9-2.4,1.4-4,1.4c-1.6,0-2.9-0.5-4-1.4c-1.2-1.1-1.9-2.6-1.9-4.3s0.6-3.2,1.9-4.3
				c1.1-0.9,2.4-1.4,3.9-1.4c1.6,0,2.9,0.5,4,1.4c1.2,1.1,1.9,2.5,1.9,4.4C75.8,158.9,75.7,159.6,75.4,160.3z"/>
			<path class="st1" d="M97.9,155.4l2.3-3.5l-0.3-0.2c-0.2,0.2-0.4,0.3-0.6,0.3c-0.1,0-0.6-0.2-1.2-0.6c-1.4-0.8-2.6-1.3-3.5-1.6
				c-0.9-0.3-2.1-0.4-3.4-0.4c-3.6,0-6.2,1.1-8,3.3c-1.2,1.5-1.8,3.2-1.8,5.2c0,1.5,0.3,2.8,1,4c0.6,1.1,1.3,2,2.3,2.7
				c1.7,1.2,3.8,1.9,6.4,1.9c1.3,0,2.4-0.1,3.4-0.4c0.9-0.3,2.1-0.8,3.5-1.6c0.7-0.4,1.1-0.6,1.2-0.6c0.1,0,0.3,0.1,0.6,0.3l0.3-0.2
				l-2.3-3.4l-0.3,0.2c0,0.1,0,0.2,0,0.3c0,0.2-0.1,0.5-0.3,0.7c-0.2,0.2-0.6,0.5-1.1,0.7c-1.4,0.8-2.9,1.2-4.5,1.2
				c-1.9,0-3.4-0.5-4.5-1.4c-1.3-1.1-2-2.5-2-4.3c0-1.8,0.7-3.2,2-4.3c1.1-0.9,2.6-1.4,4.5-1.4c1.6,0,3.1,0.4,4.5,1.2
				c0.5,0.3,0.9,0.5,1.1,0.7c0.2,0.2,0.3,0.4,0.3,0.7c0,0.1,0,0.2,0,0.3L97.9,155.4z"/>
			<path class="st1" d="M102.4,150.2c0.3,0.1,0.5,0.2,0.6,0.3c0.1,0.1,0.2,0.3,0.2,0.6v14c0,0.3-0.1,0.4-0.2,0.6
				c-0.1,0.1-0.3,0.2-0.6,0.3v0.4h5.2v-0.4c-0.3-0.1-0.5-0.2-0.6-0.3c-0.1-0.1-0.2-0.3-0.2-0.6v-14c0-0.2,0.1-0.4,0.2-0.6
				c0.1-0.1,0.3-0.2,0.6-0.3v-0.4h-5.2V150.2z"/>
			<path class="st1" d="M127.5,164.4l-6.3-12.7c-0.2-0.3-0.2-0.6-0.2-0.8c0-0.3,0.2-0.6,0.7-0.7v-0.4h-5.9v0.4
				c0.5,0.2,0.7,0.4,0.7,0.8c0,0.2-0.1,0.6-0.3,1l-6.1,12.7c-0.2,0.5-0.4,0.8-0.6,0.9c-0.2,0.2-0.4,0.3-0.7,0.3v0.4h5.5v-0.4
				c-0.5-0.1-0.8-0.4-0.8-0.7c0-0.2,0.1-0.4,0.2-0.8l1.1-2.3h7.5l1.1,2.3c0.2,0.3,0.2,0.6,0.2,0.8c0,0.4-0.3,0.7-0.8,0.7v0.4h6.1
				v-0.4c-0.3-0.1-0.6-0.2-0.8-0.4C128,165.3,127.8,164.9,127.5,164.4z M116,159.8l2.7-5.9l2.7,5.9H116z"/>
			<path class="st1" d="M142.8,149.6c-0.1,0.1-0.3,0.2-0.6,0.2h-13.9c-0.2,0-0.4-0.1-0.6-0.2c-0.1-0.1-0.2-0.3-0.3-0.6h-0.4v4.3h0.4
				c0.1-0.3,0.2-0.5,0.3-0.6c0.1-0.1,0.3-0.2,0.6-0.2h5.1V165c0,0.3-0.1,0.4-0.2,0.6c-0.1,0.1-0.3,0.2-0.6,0.3v0.4h5.2v-0.4
				c-0.3-0.1-0.5-0.2-0.6-0.3c-0.1-0.1-0.2-0.3-0.2-0.6v-12.5h5.1c0.2,0,0.4,0.1,0.6,0.2c0.1,0.1,0.2,0.3,0.3,0.6h0.4V149h-0.4
				C143,149.3,142.9,149.5,142.8,149.6z"/>
			<path class="st1" d="M160.5,163.4c-0.1,0.1-0.3,0.2-0.6,0.2h-10.6V159h6.7c0.2,0,0.4,0.1,0.6,0.2c0.1,0.1,0.2,0.3,0.3,0.6h0.4
				v-4.2h-0.4c-0.1,0.3-0.2,0.5-0.3,0.6c-0.1,0.1-0.3,0.2-0.6,0.2h-6.7v-3.9h10.3c0.2,0,0.4,0.1,0.6,0.2c0.1,0.1,0.2,0.3,0.3,0.6
				h0.4V149h-0.4c-0.1,0.3-0.2,0.5-0.3,0.6c-0.1,0.1-0.3,0.2-0.6,0.2h-14.7v0.4c0.3,0.1,0.5,0.2,0.6,0.3c0.1,0.1,0.2,0.3,0.2,0.6v14
				c0,0.3-0.1,0.4-0.2,0.6c-0.1,0.1-0.3,0.2-0.6,0.3v0.4h15c0.2,0,0.4,0.1,0.6,0.2c0.1,0.1,0.2,0.3,0.3,0.6h0.4v-4.3h-0.4
				C160.7,163.1,160.6,163.3,160.5,163.4z"/>
			<path class="st1" d="M184.5,163.4c-0.1,0.1-0.3,0.2-0.6,0.2h-10.2V151c0-0.2,0.1-0.4,0.2-0.6c0.1-0.1,0.3-0.2,0.6-0.3v-0.4h-5.2
				v0.4c0.3,0.1,0.5,0.2,0.6,0.3c0.1,0.1,0.2,0.3,0.2,0.6v14c0,0.3-0.1,0.4-0.2,0.6c-0.1,0.1-0.3,0.2-0.6,0.3v0.4H184
				c0.2,0,0.4,0.1,0.6,0.2c0.1,0.1,0.2,0.3,0.3,0.6h0.4v-4.3h-0.4C184.8,163.1,184.7,163.3,184.5,163.4z"/>
			<path class="st1" d="M204.9,164.4l-6.3-12.7c-0.2-0.3-0.2-0.6-0.2-0.8c0-0.3,0.2-0.6,0.7-0.7v-0.4h-5.9v0.4
				c0.5,0.2,0.7,0.4,0.7,0.8c0,0.2-0.1,0.6-0.3,1l-6.1,12.7c-0.2,0.5-0.4,0.8-0.6,0.9c-0.2,0.2-0.4,0.3-0.7,0.3v0.4h5.5v-0.4
				c-0.5-0.1-0.8-0.4-0.8-0.7c0-0.2,0.1-0.4,0.2-0.8l1.1-2.3h7.5l1.1,2.3c0.2,0.3,0.2,0.6,0.2,0.8c0,0.4-0.3,0.7-0.8,0.7v0.4h6.1
				v-0.4c-0.3-0.1-0.6-0.2-0.8-0.4C205.4,165.3,205.2,164.9,204.9,164.4z M193.3,159.8l2.7-5.9l2.7,5.9H193.3z"/>
			<path class="st1" d="M227,150.2c0.6,0.1,0.9,0.3,0.9,0.7c0,0.2-0.1,0.5-0.3,1l-3.3,8.6l-3.4-8.7c-0.1-0.4-0.2-0.6-0.2-0.7
				c0-0.4,0.3-0.6,0.8-0.8v-0.4h-6v0.4c0.5,0.1,0.8,0.3,0.8,0.7c0,0.1-0.1,0.4-0.2,0.7l-3.5,8.8l-3.3-8.7c-0.1-0.3-0.2-0.6-0.2-0.8
				c0-0.4,0.3-0.6,0.8-0.7v-0.4h-5.7v0.4c0.4,0.1,0.6,0.2,0.8,0.4c0.2,0.2,0.4,0.6,0.6,1.2l4.7,12.2c0.2,0.6,0.3,1,0.3,1.1
				c0,0.4-0.3,0.7-0.8,0.8v0.4h5.3v-0.4c-0.6-0.2-0.9-0.4-0.9-0.8c0-0.1,0.1-0.4,0.3-0.9l3.8-9.6l3.6,9.4c0.2,0.6,0.4,0.9,0.4,1.1
				c0,0.5-0.3,0.7-0.8,0.8v0.4h5.4v-0.4c-0.6-0.1-0.9-0.3-0.9-0.7c0-0.2,0.1-0.6,0.3-1.2l4.7-12.2c0.3-0.6,0.5-1,0.6-1.2
				c0.2-0.2,0.4-0.3,0.8-0.4v-0.4H227V150.2z"/>
			<path class="st1" d="M254.8,149.6c-0.1,0.1-0.3,0.2-0.6,0.2h-14.6v0.4c0.3,0.1,0.5,0.2,0.6,0.3c0.1,0.1,0.2,0.3,0.2,0.6v14
				c0,0.3-0.1,0.4-0.2,0.6c-0.1,0.1-0.3,0.2-0.6,0.3v0.4h5.2v-0.4c-0.3-0.1-0.5-0.2-0.6-0.3c-0.1-0.1-0.2-0.3-0.2-0.6v-6h6.7
				c0.2,0,0.4,0.1,0.6,0.2c0.1,0.1,0.2,0.3,0.3,0.6h0.4v-4.2h-0.4c-0.1,0.3-0.2,0.5-0.3,0.6c-0.1,0.1-0.3,0.2-0.6,0.2H244v-3.9h10.2
				c0.2,0,0.4,0.1,0.6,0.2c0.1,0.1,0.2,0.3,0.3,0.6h0.4V149h-0.4C255,149.3,254.9,149.5,254.8,149.6z"/>
			<path class="st1" d="M257.4,150.2c0.3,0.1,0.5,0.2,0.6,0.3c0.1,0.1,0.2,0.3,0.2,0.6v14c0,0.3-0.1,0.4-0.2,0.6
				c-0.1,0.1-0.3,0.2-0.6,0.3v0.4h5.2v-0.4c-0.3-0.1-0.5-0.2-0.6-0.3c-0.1-0.1-0.2-0.3-0.2-0.6v-14c0-0.2,0.1-0.4,0.2-0.6
				c0.1-0.1,0.3-0.2,0.6-0.3v-0.4h-5.2V150.2z"/>
			<path class="st1" d="M281.1,164l-3.2-4.6c3-0.5,4.5-2,4.5-4.7c0-0.8-0.1-1.5-0.4-2.2c-0.3-0.7-0.8-1.3-1.4-1.7
				c-0.5-0.4-1.2-0.6-1.9-0.8c-0.7-0.1-1.7-0.2-3-0.2h-10.3v0.4c0.3,0.1,0.5,0.2,0.6,0.3c0.1,0.1,0.2,0.3,0.2,0.6v14
				c0,0.2-0.1,0.4-0.2,0.6c-0.1,0.1-0.3,0.2-0.6,0.3v0.4h5.2v-0.4c-0.3-0.1-0.5-0.2-0.6-0.3c-0.1-0.1-0.2-0.3-0.2-0.6v-5.5h4.4
				l3.3,4.9c0.4,0.6,0.6,0.9,0.6,1.1c0,0.2-0.2,0.4-0.6,0.4v0.4h6v-0.4c-0.4,0-0.7-0.2-1-0.4C282.1,165.3,281.7,164.8,281.1,164z
				 M277,156.7c-0.3,0-0.9,0.1-1.7,0.1h-5.6v-4.3h5.6c0.8,0,1.4,0,1.7,0.1c0.3,0,0.6,0.1,0.9,0.3c0.6,0.3,0.9,0.9,0.9,1.8
				c0,0.9-0.3,1.5-0.9,1.8C277.6,156.6,277.3,156.7,277,156.7z"/>
			<path class="st1" d="M305.5,150.5c0.1-0.1,0.3-0.2,0.6-0.3v-0.4h-6.2v0.4c0.4,0,0.6,0.2,0.6,0.6c0,0.2-0.1,0.4-0.3,0.8l-4.6,8.4
				l-4.5-8.5c-0.1-0.2-0.2-0.4-0.2-0.6c0-0.3,0.2-0.6,0.6-0.7v-0.4h-6.4v0.4c0.3,0.1,0.5,0.2,0.6,0.3c0.1,0.1,0.2,0.3,0.2,0.6v14
				c0,0.3-0.1,0.4-0.2,0.6c-0.1,0.1-0.3,0.2-0.6,0.3v0.4h4.9v-0.4c-0.3-0.1-0.5-0.2-0.6-0.3c-0.1-0.1-0.2-0.3-0.2-0.6v-10.1
				l6.1,11.4l6.4-11.4V165c0,0.3-0.1,0.4-0.2,0.6c-0.1,0.1-0.3,0.2-0.6,0.3v0.4h5.2v-0.4c-0.3-0.1-0.5-0.2-0.6-0.3
				c-0.1-0.1-0.2-0.3-0.2-0.6v-14C305.3,150.8,305.4,150.6,305.5,150.5z"/>
		</g>
		<g>
			<path class="st0" d="M30.2,43.3l-4.3-4.2h-6c-4.3,0-8,1.5-11,4.6c-3,3-4.6,6.7-4.6,11v2c0,4.3,1.5,8,4.6,11c3,3,6.7,4.6,11,4.6
				h5.2v-0.2c0.7,0.1,1.2,0.2,1.6,0.2H34c2.3,0,3.9-1,4.8-3.1c0.5-1,0.7-2,0.7-3.1V39.1h-9.3V43.3z M30.2,63H19.9
				c-1.7,0-3.2-0.6-4.4-1.8c-1.3-1.2-1.9-2.7-1.9-4.4v-2c0-1.7,0.6-3.2,1.9-4.4c1.2-1.2,2.7-1.8,4.4-1.8h10.3V63z"/>
			<path class="st0" d="M50.1,43.6c-3,3-4.5,6.7-4.5,11v17.6h24c-0.3,1.5-1,2.9-2.2,4c-1.2,1.1-2.5,1.7-4,1.7h-3v5.7h3
				c4.3,0,8-1.5,11-4.6c3-3,4.5-6.7,4.5-11v-29H61.1C56.8,39.1,53.2,40.6,50.1,43.6z M69.6,63H54.9v-8.5c0.1-1.6,0.7-3,1.9-4.2
				c1.2-1.1,2.6-1.7,4.3-1.7h8.5V63z"/>
			<path class="st0" d="M56.4,30.7h-5.9c-0.8,0-1.3-0.5-1.3-1.6v-0.5c0-1.1,0.6-1.7,1.7-1.7h0.9c0.8,0,1.4,0.4,1.6,1.3H56
				c-0.1-1.1-0.5-2-1.3-2.7c-0.8-0.7-1.7-1.1-2.7-1.1h-0.9c-1.1,0-2.1,0.4-2.9,1.2c-0.8,0.8-1.2,1.8-1.2,2.9v0.5
				c0,0.7,0.1,1.2,0.2,1.6h-1.5v3.1h10.8V30.7z"/>
			<path class="st0" d="M123.4,39h-4.6l16.5-13.8h-14.6L104.1,39v9.3h19.3c1.7,0,3.2,0.6,4.4,1.9c1.2,1.2,1.8,2.7,1.8,4.4V63H98.9
				h-0.2h-4.2V25.2h-9.4v40.9c0,1,0.3,2.1,0.7,3.1c1,2.1,2.6,3.1,4.8,3.1h8h0.2H139V54.4c-0.1-4.2-1.6-7.9-4.6-10.8
				C131.3,40.5,127.6,39,123.4,39z"/>
			<path class="st0" d="M207.4,63h-7.5V39.1h-9.3V63h-7.3V39.1h-9.4V63h-5.2h-0.2h-4.7V39h-9.5v32.8c-0.1,1.7-0.8,3.1-2,4.4
				c-1.2,1.3-2.6,2-4.3,2h-2.9v5.7h2.9c3.6,0,6.8-1.1,9.6-3.3c2.8-2.1,4.6-4.9,5.5-8.2h5.3h0.2h9c2,0,3.5-0.8,4.4-2.3
				c1.2,1.5,3,2.3,5.2,2.3h7.1c2.1,0,3.6-0.8,4.5-2.5c1.2,1.7,3,2.5,5.3,2.5h7c2.3,0,3.9-1,4.8-3.1c0.5-1,0.7-2,0.7-3.1V39.1h-9.4
				V63z"/>
			<polygon class="st0" points="195.2,29.7 200.7,35.1 206.2,29.6 200.7,24.1 195.2,29.5 189.7,24.1 184.2,29.6 189.7,35.1 			"/>
			<polygon class="st0" points="200.8,21.9 195.2,16.4 189.7,21.9 195.2,27.4 			"/>
			<path class="st0" d="M227.4,43.6c-3,3-4.5,6.7-4.5,11v17.6h24c-0.3,1.5-1,2.9-2.2,4c-1.2,1.1-2.5,1.7-4,1.7h-3v5.7h3
				c4.3,0,8-1.5,11-4.6c3-3,4.5-6.7,4.5-11v-29h-17.8C234.1,39.1,230.4,40.6,227.4,43.6z M246.9,63h-14.7v-8.5
				c0.1-1.6,0.7-3,1.9-4.2c1.2-1.1,2.6-1.7,4.3-1.7h8.5V63z"/>
			<polygon class="st0" points="298.8,80.4 293.3,74.9 287.7,80.4 293.3,86 298.8,80.5 304.3,86 309.8,80.4 304.3,74.9 			"/>
			<polygon class="st0" points="348,29.4 342.6,23.9 337,29.5 342.6,35 348,29.5 353.5,35 359,29.5 353.5,23.9 			"/>
			<path class="st0" d="M343,63h-8.6h-0.2h-5.3l-4.4-17.8l-0.7-2.3c-0.6-2.5-2.8-3.7-6.4-3.7h-19.8l6.3,23.9h-14.6
				c-1.7,0-3.2-0.6-4.4-1.9c-1.3-1.2-1.9-2.7-1.9-4.4v-2.1c0-1.6,0.6-3,1.7-4.2c1.1-1.2,2.5-1.9,4.2-2v-9.3
				c-4.2,0.1-7.8,1.6-10.8,4.6c-3,3-4.4,6.7-4.4,10.9v2.1c0,4.3,1.5,8,4.6,11c3.1,3,6.8,4.6,11.1,4.6h26.1l-6.1-23.9h5.8l5.3,20.1
				c0.6,2.6,2.7,3.8,6.4,3.8h7.3h0.2h12.5c2.3,0,3.9-1,4.8-3.1c0.5-1,0.7-2,0.7-3.1V39.1H343V63z"/>
			<path class="st0" d="M400.3,39h-4.6l16.5-13.8h-14.6L381,39v9.3h19.3c1.7,0,3.2,0.6,4.4,1.9c1.2,1.2,1.8,2.7,1.8,4.4V63h-30.8
				h-0.2h-4.2V25.2H362v40.9c0,1,0.3,2.1,0.7,3.1c1,2.1,2.6,3.1,4.8,3.1h8h0.2h40.1V54.4c-0.1-4.2-1.6-7.9-4.6-10.8
				C408.2,40.5,404.5,39,400.3,39z"/>
			<polygon class="st0" points="448.3,81.7 453.8,87.2 459.3,81.7 453.8,76.1 			"/>
			<path class="st0" d="M470.3,63h-5.2h-0.2h-4.8V39.1h-9.4V63h-5.2h-0.2h-4.7V39h-9.5v32.8c-0.1,1.7-0.8,3.1-2,4.4
				c-1.2,1.3-2.6,2-4.3,2H422v5.7h2.9c3.6,0,6.8-1.1,9.6-3.3c2.8-2.1,4.6-4.9,5.5-8.2h5.3h0.2h19.4h0.2h9v-0.1c2.3,0,3.9-1,4.8-3.1
				c0.5-1,0.7-2,0.7-3.1V25.2h-9.4V63z"/>
			<rect x="485.8" y="25.2" class="st0" width="9.3" height="47.1"/>
			<polygon class="st0" points="621,29.3 615.5,23.8 609.9,29.3 615.5,34.9 			"/>
			<path class="st0" d="M611.3,63h-5.4c-0.4,0-0.7,0-1,0.1h-11.7V63h-4.5v-8.5c0-4.3-1.6-7.9-4.6-10.9c-3-3-6.7-4.5-11-4.5h-11.5
				c-4.3,0-8,1.5-10.9,4.6V39h-9.4v24H536h-0.2h-4.7V39h-9.5v32.8c-0.1,1.7-0.8,3.1-2,4.4c-1.2,1.3-2.6,2-4.3,2h-2.9v5.7h2.9
				c3.6,0,6.8-1.1,9.6-3.3c2.8-2.1,4.6-4.9,5.5-8.2h5.3h0.2h45.7h11.4h12.7h3.6h5.5c2.3,0,3.9-1,4.8-3.1c0.5-1,0.7-2.1,0.7-3.1h0.1
				V39h-9.4V63z M550.6,54.4c0-1.7,0.7-3.1,2.2-4.3c1.4-1.2,2.9-1.8,4.6-1.8H573c1.8,0,3.3,0.6,4.5,1.8c1.2,1.2,1.8,2.6,1.8,4.4V63
				h-28.7V54.4z"/>
		</g>
		<g>
			<polygon class="st1" points="326.1,150.7 328.1,152.7 330,150.7 328.1,148.8 326.1,150.7 324.2,148.8 322.3,150.7 324.2,152.7 
							"/>
			<polygon class="st1" points="338.6,168.5 336.7,166.6 334.7,168.5 336.7,170.5 338.6,168.5 340.5,170.5 342.4,168.5 340.5,166.6 
							"/>
			<path class="st1" d="M347.4,155.6c-1.1,1.1-1.6,2.3-1.6,3.8v3H344h-0.1H341v-8.3h-3.3v8.3h-3h-0.1h-1.8v-8.3h-3.3v1.2
				c-0.4-0.8-1.1-1.2-2.1-1.2h-2.4c-1.5,0-2.7,0.5-3.8,1.6c-1.1,1-1.6,2.3-1.6,3.8v6.2h9.2l1-1.7c0.4,1.1,1.2,1.7,2.3,1.7h2.5h0.1
				h9.2h0.1h13.5v-11.6h-6.3C349.7,154.1,348.5,154.6,347.4,155.6z M329.6,162.4H323v-2.9c0-0.6,0.2-1.1,0.7-1.5
				c0.4-0.4,0.9-0.7,1.5-0.7h4.4V162.4z M354.2,162.4H349v-2.9c0-0.6,0.2-1.1,0.6-1.5c0.4-0.4,0.9-0.7,1.5-0.7h3V162.4z"/>
			<polygon class="st1" points="352.4,150.7 354.3,152.7 356.2,150.7 354.3,148.8 352.4,150.7 350.5,148.8 348.6,150.7 350.5,152.7 
							"/>
			<polygon class="st1" points="380.9,150.7 382.8,152.7 384.7,150.7 382.8,148.8 380.9,150.7 379,148.8 377,150.7 379,152.7 			"/>
			<path class="st1" d="M404.1,162.4h-1.8h-0.1h-1c-0.1-0.2-0.2-0.5-0.2-0.7v-2.2c0-1.5-0.5-2.8-1.6-3.9c-1.1-1.1-2.3-1.6-3.8-1.6
				h-4.2l-1.3,3.3h5.5c0.6,0,1.1,0.2,1.5,0.6c0.4,0.4,0.7,0.9,0.7,1.6v0.6c0,0.8,0.2,1.6,0.5,2.3h-9.9h-0.1h-1.8v-8.4h-6.3
				c-1.5,0-2.7,0.5-3.8,1.6c-1.1,1.1-1.6,2.3-1.6,3.8v3H373h-0.1h-1.7v-8.3H365c-1.5,0-2.8,0.5-3.8,1.6c-1,1.1-1.6,2.3-1.6,3.9v6.1
				h8.3c-0.1,0.5-0.4,1-0.7,1.4c-0.4,0.4-0.9,0.6-1.4,0.6h-1v2h1c1.2,0,2.3-0.4,3.3-1.1c1-0.7,1.6-1.7,1.9-2.8h1.9h0.1h15.3h0.1
				h13.8h0.1h3.1v0c0.8,0,1.4-0.4,1.7-1.1c0.2-0.4,0.2-0.7,0.3-1.1v-14.3h-3.3V162.4z M368,162.4h-5.1v-3c0-0.6,0.2-1.1,0.7-1.5
				c0.4-0.4,0.9-0.6,1.5-0.6h3V162.4z M383.3,162.4h-5.2v-2.9c0-0.6,0.2-1.1,0.6-1.5c0.4-0.4,0.9-0.7,1.5-0.7h3V162.4z"/>
			<rect x="409.4" y="149.3" class="st1" width="3.2" height="16.4"/>
			<polygon class="st1" points="428.2,150.7 430.1,152.7 432,150.7 430.1,148.8 428.2,150.7 426.3,148.8 424.4,150.7 426.3,152.7 
							"/>
			<path class="st1" d="M431.9,162.4H422v-2.9c0-0.6,0.2-1.1,0.7-1.5c0.4-0.4,0.9-0.7,1.5-0.7h0.9v-3.3h-0.9c-1.5,0-2.7,0.5-3.8,1.6
				c-1.1,1-1.6,2.3-1.6,3.8v6.2h16.4v-11.6h-3.2V162.4z"/>
			<rect x="437.2" y="149.3" class="st1" width="3.2" height="16.4"/>
			<path class="st1" d="M445.8,165.3c0,0.6-0.2,1.2-0.6,1.6c-0.4,0.5-1,0.7-1.5,0.7h-1v2h1c1.5,0,2.8-0.5,3.9-1.6
				c1.1-1.1,1.6-2.3,1.6-3.8v-10.2h-3.3V165.3z"/>
			<polygon class="st1" points="467,148.1 465.1,146.2 463.2,148.1 465.1,150 			"/>
			<polygon class="st1" points="465.1,150.8 467,152.7 468.9,150.8 467,148.9 465.1,150.8 463.2,148.9 461.3,150.8 463.2,152.7 			
				"/>
			<polygon class="st1" points="479.4,150.7 481.3,152.7 483.2,150.7 481.3,148.8 479.4,150.7 477.5,148.8 475.5,150.7 477.5,152.7 
							"/>
			<path class="st1" d="M497.3,162.4h-2.6v-8.3h-3.2v8.3h-2.6v-8.3h-3.3v8.3h-1.8h-0.1h-2.9v-8.3h-3.3v8.3h-3h-0.1h-1.8v-8.3h-3.3
				v8.3h-2.6v-8.3h-3.2v8.3h-2.6v-8.3h-3.3v8.3H456h-0.1h-1.4v-13.2h-3.3v14.3c0,0.4,0.1,0.7,0.3,1.1c0.3,0.7,0.9,1.1,1.7,1.1h2.8
				h0.1h3.1c0.7,0,1.2-0.3,1.5-0.8c0.4,0.5,1,0.8,1.8,0.8h2.5c0.7,0,1.2-0.3,1.6-0.9c0.4,0.6,1,0.9,1.9,0.9h6.2h0.1h9.2h0.1h3.1
				c0.7,0,1.2-0.3,1.5-0.8c0.4,0.5,1,0.8,1.8,0.8h2.5c0.7,0,1.2-0.3,1.6-0.9c0.4,0.6,1,0.9,1.9,0.9h2.4c0.8,0,1.4-0.4,1.7-1.1
				c0.2-0.4,0.2-0.7,0.3-1.1v-9.5h-3.3V162.4z"/>
			<path class="st1" d="M510.9,160.2c0,0.6-0.2,1.1-0.6,1.5c-0.4,0.4-0.9,0.7-1.5,0.7h-1v-13.2h-3.2v13.2h-1.8l1,3.3h4.9
				c1.5,0,2.8-0.5,3.8-1.6c1.1-1.1,1.6-2.3,1.6-3.9v-11h-3.3V160.2z"/>
			<rect x="516.3" y="149.3" class="st1" width="3.2" height="16.4"/>
			<path class="st1" d="M523.2,155.7c-1,1.1-1.6,2.3-1.6,3.9v6.1h8.3c-0.1,0.5-0.4,1-0.8,1.4c-0.4,0.4-0.9,0.6-1.4,0.6h-1v2h1
				c1.5,0,2.8-0.5,3.8-1.6c1-1.1,1.6-2.3,1.6-3.8v-10.1H527C525.5,154.1,524.3,154.6,523.2,155.7z M530,162.4h-5.1v-3
				c0-0.6,0.3-1.1,0.7-1.5c0.4-0.4,0.9-0.6,1.5-0.6h3V162.4z"/>
			<polygon class="st1" points="546.1,150.7 548,152.7 549.9,150.7 548,148.8 546.1,150.7 544.2,148.8 542.2,150.7 544.2,152.7 			
				"/>
			<path class="st1" d="M548.3,155.6l-1.5-1.5h-2.1c-1.5,0-2.8,0.5-3.8,1.6c-1.1,1.1-1.6,2.3-1.6,3.9v0.7c0,1.5,0.5,2.8,1.6,3.9
				c1.1,1.1,2.3,1.6,3.8,1.6h1.8v-0.1c0.2,0,0.4,0.1,0.6,0.1h2.5c0.8,0,1.3-0.4,1.7-1.1c0.2-0.4,0.2-0.7,0.2-1.1v-9.5h-3.2V155.6z
				 M548.3,162.4h-3.6c-0.6,0-1.1-0.2-1.5-0.6c-0.4-0.4-0.7-0.9-0.7-1.6v-0.7c0-0.6,0.2-1.1,0.7-1.6c0.4-0.4,0.9-0.6,1.5-0.6h3.6
				V162.4z"/>
			<path class="st1" d="M566.8,154.1h-6.3v8.4h-2.1h-0.1h-1.4v-13.2h-3.3v14.3c0,0.4,0.1,0.7,0.3,1.1c0.3,0.7,0.9,1.1,1.7,1.1h2.8
				h0.1h10c0.8,0,1.4,0.4,1.9,1.2l1.8-1.1c0,0,0,0,0-0.1h0v-6.2c0-1.5-0.5-2.8-1.6-3.9C569.5,154.6,568.2,154.1,566.8,154.1z
				 M568.9,162.7c-0.6-0.2-1.1-0.3-1.7-0.3h-3.5v-5.1h3c0.6,0,1.1,0.3,1.6,0.7c0.4,0.4,0.6,0.9,0.6,1.5V162.7z"/>
			<path class="st1" d="M616.9,149.3v13.2h-1.8h-0.1h-1.8v-13.2H610v13.2h-1.8h-0.1h-1.4v-2.9c0-1.5-0.5-2.8-1.6-3.9
				c-1.1-1.1-2.3-1.6-3.8-1.6H595v8.4H593h-0.1h-1c-0.1-0.2-0.2-0.5-0.2-0.7v-2.2c0-1.5-0.5-2.8-1.6-3.9c-1.1-1.1-2.3-1.6-3.8-1.6
				h-4.2l-1.3,3.3h5.5c0.6,0,1.1,0.2,1.5,0.6c0.4,0.4,0.7,0.9,0.7,1.6v0.6c0,0.8,0.2,1.6,0.5,2.3h-9.9H579h-1.4v-13.2h-3.3v14.3
				c0,0.4,0.1,0.7,0.3,1.1c0.3,0.7,0.9,1.1,1.7,1.1h2.8h0.1h13.8h0.1h10c0.8,0,1.4,0.4,1.9,1.2l1.8-1.1c0,0,0,0,0-0.1h1.4h0.1h6.9
				h0.1h3.1v0c0.8,0,1.4-0.4,1.7-1.1c0.2-0.4,0.2-0.7,0.3-1.1v-14.3H616.9z M603.5,162.7c-0.6-0.2-1.1-0.3-1.7-0.3h-3.5v-5.1h3
				c0.6,0,1.1,0.3,1.6,0.7c0.4,0.4,0.6,0.9,0.6,1.5V162.7z"/>
		</g>
	</g>
	<g>
		<path class="st2" d="M797.7,4l-36.3,36.1v28.7l36.1-36.1l24.7,24.9l-42.6,42.1c-25-24-67.8-68-67.8-68l0,28.8l67.9,69.1l58.6-58.5
			V45.1L797.7,4z"/>
		<polygon class="st0" points="711.9,89.9 655.4,146.4 655.5,175.3 711.9,118.4 780.1,187 838.5,128.6 838.5,99.2 780,157.7 		"/>
	</g>
</g>
</svg>
