<?xml version="1.0" encoding="utf-8"?>
<!-- Generator: Adobe Illustrator 27.1.1, SVG Export Plug-In . SVG Version: 6.00 Build 0)  -->
<svg version="1.1" id="Layer_1" xmlns="http://www.w3.org/2000/svg" xmlns:xlink="http://www.w3.org/1999/xlink" x="0px" y="0px"
	 viewBox="0 0 300 300" style="enable-background:new 0 0 300 300;" xml:space="preserve">
<style type="text/css">
	.st0{fill:#12284B;}
	.st1{fill:#CCA054;}
</style>
<g>
	<path class="st0" d="M61.46,151.06c0-28.7-0.01-57.39,0.02-86.09c0-3.3-0.11-6.66,0.44-9.9c1.76-10.39,8.96-16.92,19.45-17.91
		c2.56-0.24,5.14-0.2,7.72-0.2c28.33-0.02,56.65-0.03,84.98-0.01c2.94,0,5.9-0.02,8.81,0.35c9.68,1.23,17.26,8.18,18.18,17.9
		c0.76,8.02,0.19,16.16,0.14,24.25c0,0.67-0.32,1.53-0.8,1.96c-0.75,0.68-1.76,1.48-2.65,1.47c-0.9,0-2.26-0.72-2.6-1.49
		c-0.71-1.62-1.16-3.47-1.22-5.24c-0.17-5.51,0.07-11.04-0.17-16.55c-0.44-9.84-5.22-14.65-15.07-15.41
		c-2.2-0.17-4.41-0.09-6.62-0.09c-27.22,0-54.45,0-81.67,0.01c-2.21,0-4.43-0.08-6.62,0.12c-9.09,0.81-14,5.77-14.66,14.79
		c-0.16,2.2-0.08,4.41-0.08,6.62c0,56.66-0.01,113.32,0,169.97c0,2.94-0.12,5.91,0.21,8.82c0.78,6.87,5.09,11.55,11.82,12.72
		c2.87,0.5,5.86,0.48,8.8,0.48c27.96,0.04,55.92,0.04,83.88,0.02c2.57,0,5.18,0.01,7.7-0.41c7.39-1.22,11.84-5.83,12.19-13.44
		c0.4-8.81,0.13-17.65,0.21-26.48c0.03-2.93,0.02-5.91,0.56-8.77c0.21-1.09,1.77-2.19,2.97-2.74c1.47-0.67,3.47,1.08,3.75,3.05
		c0.2,1.45,0.3,2.93,0.31,4.39c0.03,9.57-0.32,19.15,0.1,28.69c0.51,11.61-8.57,23.14-22.76,23c-31.64-0.32-63.28,0.04-94.91-0.19
		c-13.69-0.1-21.7-8.25-22.35-22.08c-0.31-6.61-0.05-13.24-0.05-19.86C61.46,198.89,61.46,174.98,61.46,151.06L61.46,151.06z"/>
	<path class="st0" d="M189.4,194.91c-12.21,23.66-34.55,21.7-44.82,0.26c-5.11-1.74-10.66-0.71-16.1-0.91
		c-4.78-0.17-9.57,0.04-14.34-0.23c-1.73-0.1-3.69-0.72-5.06-1.75c-5.67-4.28-5.01-19.81,1.6-22.26
		c11.35-4.21,13.27-12.44,12.6-22.81c-0.33-5.13-0.06-10.3-0.05-15.45c0.04-19.44,8.2-33.94,25.89-42.66
		c0.99-0.49,1.98-0.97,2.94-1.51c0.31-0.17,0.51-0.53,0.75-0.8c3.68-12.44,5.83-14.59,14.46-14.44c8,0.14,9.99,2.27,13.55,14.81
		c2.25,1.19,4.9,2.44,7.4,3.93c14.02,8.41,21.48,20.79,21.99,37.15c0.24,7.72,0.24,15.45,0.03,23.17
		c-0.21,8.17,2.31,14.44,10.58,17.32c5.27,1.83,7.41,5.65,7.1,11.08c-0.11,1.84,0.07,3.69-0.11,5.51c-0.57,5.92-3.1,8.45-9.18,8.8
		c-4.4,0.25-8.83,0.08-13.24,0.11c-4.05,0.02-8.09,0.02-12.14,0.11C192.18,194.36,191.1,194.65,189.4,194.91L189.4,194.91z
		 M160.91,91.8c-1.33,0.92-2.16,1.67-3.14,2.12c-1.66,0.76-3.47,1.2-5.13,1.98c-13.5,6.35-20.92,17.01-21.68,31.89
		c-0.47,9.15-0.06,18.35-0.22,27.52c-0.14,7.91-3.62,14.08-10.38,18.29c-2.14,1.33-4.36,2.54-6.17,3.6
		c-1.07,3.48-1.54,6.28,0.86,8.66c8.05,1.38,77.38,2.19,97.9,1.08c2.1-0.11,4.18-0.74,6.66-1.21c0-3.21,0-5.97,0-8.43
		c-1.49-0.93-2.37-1.62-3.36-2.08c-9.38-4.39-13.44-12.01-13.51-22.08c-0.06-8.81,0.22-17.63-0.22-26.42
		c-0.67-13.63-7.76-23.38-19.51-29.88c-2.23-1.23-4.75-1.93-7.11-2.93c-2.18-0.92-3.57-2.52-3.88-4.91
		c-0.23-1.82-0.23-3.67-0.56-5.47c-0.46-2.51-2.2-3.7-4.68-3.72c-2.49-0.02-4.26,1.23-4.75,3.68
		C161.49,86.34,161.25,89.22,160.91,91.8L160.91,91.8z M177.69,195.3c-12.07-1.73-15.18-1.57-21.65,0.98
		c2.34,5.92,5.28,8.09,10.87,8.04C172.62,204.27,175.76,201.82,177.69,195.3L177.69,195.3z"/>
	<path class="st1" d="M236.67,123.51c0.11,5.85-1.19,8.35-3.63,8.04c-3.3-0.42-3.71-3.1-3.83-5.68
		c-0.59-11.95-4.46-22.77-10.92-32.77c-1.19-1.85-1.99-3.99-0.13-5.99c1.49-1.61,4.38-0.78,6.33,2.04
		C231.93,99.89,235.78,111.88,236.67,123.51L236.67,123.51z"/>
	<path class="st1" d="M96.88,125.83c1-12.99,4.27-24.16,10.7-34.28c1.15-1.81,2.62-3.58,4.35-4.79c0.83-0.58,2.77-0.1,3.9,0.49
		c0.65,0.34,1.12,1.93,0.93,2.81c-0.29,1.38-1.07,2.72-1.85,3.93c-6.31,9.75-9.94,20.37-10.58,32c-0.08,1.41-0.45,2.92-1.14,4.12
		c-0.44,0.76-1.75,1.43-2.65,1.4c-0.9-0.02-2.21-0.77-2.56-1.55C97.25,128.37,97.05,126.54,96.88,125.83L96.88,125.83z"/>
	<path class="st1" d="M131.06,238.53c-2.98-0.23-5.93-0.21-8.74-0.83c-0.95-0.21-1.89-1.98-2.15-3.19c-0.15-0.68,1.04-2.4,1.66-2.41
		c6.49-0.17,12.99-0.16,19.48,0.04c0.64,0.02,1.86,1.76,1.7,2.41c-0.31,1.21-1.3,2.97-2.26,3.15
		C137.57,238.3,134.26,238.3,131.06,238.53L131.06,238.53z"/>
	<path class="st1" d="M130.38,55.41c2.57-0.34,4.66,1.34,4.16,2.94c-0.35,1.12-1.52,2.32-2.62,2.77c-1.58,0.65-3.7-1.27-3.3-2.99
		C128.89,56.98,129.97,56.01,130.38,55.41L130.38,55.41z"/>
	<path class="st1" d="M165.4,103.46c0.69,0.19,1.92,0.22,2.74,0.82c0.77,0.57,1.3,1.68,1.54,2.65c0.13,0.54-0.38,1.6-0.89,1.86
		c-1.59,0.81-3.27,1.53-4.99,1.97c-8.29,2.12-13.36,7.28-15.13,15.67c-0.23,1.07-0.2,2.41-0.85,3.13c-0.88,0.97-2.38,2.12-3.45,1.97
		c-1.09-0.15-2.78-1.76-2.79-2.75c-0.03-2.86,0.24-5.87,1.12-8.58C145.88,110.41,155.11,103.64,165.4,103.46L165.4,103.46z"/>
</g>
</svg>
