<?xml version="1.0" encoding="utf-8"?>
<!-- Generator: Adobe Illustrator 27.1.1, SVG Export Plug-In . SVG Version: 6.00 Build 0)  -->
<svg version="1.1" id="Layer_1" xmlns="http://www.w3.org/2000/svg" xmlns:xlink="http://www.w3.org/1999/xlink" x="0px" y="0px"
	 viewBox="0 0 300 300" style="enable-background:new 0 0 300 300;" xml:space="preserve">
<style type="text/css">
	.st0{fill:#12284B;}
	.st1{fill:#CCA054;}
</style>
<g>
	<path class="st0" d="M247.99,105.96c0,8.84,0.16,17.68-0.03,26.52c-1.16,55.74-35.53,106.6-87.1,129.05
		c-1.71,0.74-3.48,1.36-5.17,2.14c-3.99,1.85-7.82,1.56-11.89-0.07c-11.14-4.47-21.74-9.9-31.34-17.03
		c-39.29-29.19-59.32-68.29-60.78-116.54c-0.56-18.4,0.34-36.84-0.3-55.24c-0.28-8.04,3.27-12,9.87-15.36
		c55.06-28.03,110.81-30.12,167.37-4.74c4.08,1.83,7.96,4.09,12.02,5.96c5.32,2.44,7.74,6.07,7.48,12.17
		c-0.46,11.03-0.13,22.09-0.13,33.14C248,105.96,247.99,105.96,247.99,105.96L247.99,105.96z M59.68,70.05
		c-0.11,3.19-0.33,6.84-0.34,10.48c-0.04,15.85-0.3,31.71,0.09,47.55c0.22,8.81,0.71,17.75,2.51,26.35
		c9.62,46,35.99,79.3,78.99,99.87c6.33,3.03,12.03,3.28,18.05-0.15c2.26-1.29,4.74-2.21,7.02-3.47
		c47.17-26.31,72.09-66.17,74.17-119.51c0.69-17.67,0.14-35.38,0.08-53.08c-0.01-2.9-0.41-5.81-0.6-8.35
		C185.29,35.82,113.01,36.41,59.68,70.05L59.68,70.05z"/>
	<path class="st1" d="M114.52,123.14c0-4.57,0.03-9.33-0.01-14.09c-0.04-5.6,0.9-11.01,3.19-16.13
		c6.57-14.71,22.05-22.66,38.66-19.91c15.02,2.48,26.83,14.88,28.47,30.13c0.39,3.65,0.14,7.36,0.28,11.03
		c0.12,3.25,0.38,6.49,0.59,9.97c2.46,0.98,4.53,1.73,6.53,2.62c6.78,3,10.61,8.22,10.71,15.49c0.22,14.72,0.37,29.46-0.02,44.18
		c-0.28,10.61-6.93,16.63-18.04,16.96c-9.34,0.27-18.69,0.09-28.04,0.09c-13.46,0.01-26.92,0.15-40.37-0.04
		c-13.55-0.19-19.66-6.26-19.91-19.8c-0.22-12.15,0.17-24.31-0.11-36.45c-0.25-10.82,3.52-18.64,14.73-21.79
		C111.87,125.2,112.41,124.59,114.52,123.14L114.52,123.14z M149.76,132.69c0,0.01,0,0.02,0,0.02c-10.82,0-21.65-0.2-32.46,0.06
		c-9.36,0.23-12.77,3.66-12.98,12.79c-0.22,9.55-0.08,19.11-0.06,28.67c0.01,4.04-0.14,8.1,0.22,12.12c0.5,5.6,3.5,8.65,9.11,9.53
		c2.56,0.4,5.2,0.39,7.81,0.4c10.45,0.04,20.9,0.03,31.35,0.01c10.08-0.01,20.16,0.19,30.22-0.14c9.06-0.3,12.09-3.37,12.26-12.18
		c0.23-11.76,0.09-23.52,0.08-35.28c0-2.2,0.06-4.43-0.21-6.61c-0.61-4.98-3.42-8.04-8.43-8.94c-2.54-0.45-5.2-0.43-7.8-0.44
		C169.16,132.66,159.46,132.69,149.76,132.69L149.76,132.69z M176.25,124.09c1.98-6.43,1.29-12.71,0.91-18.85
		c-0.86-14-12.12-24.75-26.1-25.47c-13.6-0.7-26.34,9.4-28.35,23.12c-1,6.84-1.11,13.85,0.45,20.96c1.47,0.5,2.83,1.37,4.21,1.38
		c14.53,0.12,29.06,0.16,43.59,0.08C172.71,125.3,174.47,124.52,176.25,124.09L176.25,124.09z"/>
	<path class="st1" d="M149.68,176.33c-0.71-0.45-2.07-0.81-2.41-1.6c-1.88-4.31-3.71-8.66-5.14-13.13
		c-0.98-3.08,0.41-5.81,2.98-7.72c2.61-1.95,5.56-1.9,8.46-0.65c2.67,1.15,5.07,4.5,4.26,7.08c-1.6,5.15-3.79,10.12-5.87,15.12
		C151.78,175.87,150.68,175.95,149.68,176.33L149.68,176.33z"/>
</g>
</svg>
